<?xml version="1.0" standalone="no"?><!DOCTYPE svg PUBLIC "-//W3C//DTD SVG 1.1//EN" "http://www.w3.org/Graphics/SVG/1.1/DTD/svg11.dtd" ><svg xmlns="http://www.w3.org/2000/svg"><metadata></metadata><defs><font id="HYPingAnXingJ:Version 1.00" horiz-adv-x="1000"><font-face font-family="HYPingAnXingJ" font-weight="400" font-stretch="normal" units-per-em="1000" panose-1="0 2 6 0 4 1 1 1 1 1" ascent="856" descent="-266" x-height="1" bbox="-26 -237 1000 804" underline-thickness="50" underline-position="-266" unicode-range="U+0020-ffe3" /><missing-glyph horiz-adv-x="1000"  /><glyph glyph-name="" unicode="!" d="M137 145 q-2 0 -5.5 2.5 q-3.5 2.5 -3.5 10.5 l-9 309 q0 8 1.5 15.5 q1.5 7.5 8.5 9.5 q10 1 14 0 q6 -2 8 -9 q2 -7 2 -16 l-7 -309 q0 -9 -3.5 -11 q-3.5 -2 -5.5 -2 ZM112 40 q0 11 7 17.5 q7 6.5 18 6.5 q13 0 20 -6.5 q7 -6.5 7 -17.5 q0 -25 -27 -25 q-11 0 -18 7 q-7 7 -7 18 Z" /><glyph glyph-name="" unicode="&quot;" d="M98 385 q-5 0 -7 5 q-3 30 -4.5 49 q-1.5 19 -2.5 30 q-1 12 -1 18 q0 4 2 8.5 q2 4.5 10 4.5 q8 0 11 -4 q3 -4 3 -8 q-4 -41 -5 -61 q-1 -20 -1 -28 q0 -8 -1 -9 q-3 -5 -4 -5 ZM176 385 q-5 0 -5 5 q-3 34 -4.5 53.5 q-1.5 19.5 -2.5 29.5 q-1 10 -1 12.5 q0 2.5 0 2.5 q0 3 1.5 7.5 q1.5 4.5 9.5 4.5 q8 0 10.5 -4 q2.5 -4 2.5 -8 q-4 -43 -4.5 -63.5 q-0.5 -20.5 -0.5 -27.5 q0 -5 -1 -7 q-3 -5 -5 -5 Z" /><glyph glyph-name="" unicode="#" d="M173 368 l24 101 q2 7 5 7 l20 0 l0 -4 l-25 -103 l100 4 l23 96 q2 7 5 7 l20 0 l0 -4 l-24 -98 l36 2 q5 1 7 -3.5 q2 -4.5 1 -6.5 q0 -2 -1 -5 q-1 -3 -1 -5 l0 1 q-3 -10 -8 -10 l-41 -2 l-40 -171 l40 2 q5 0 6.5 -4 q1.5 -4 1.5 -6 q0 -2 -0.5 -2.5 q-0.5 -0.5 -0.5 -2.5 l1 1 l-1 -3 q-1 -2 -1 -5 q-4 -8 -8 -8 l-46 -2 l-29 -124 q-2 -6 -4 -6 l-23 0 l1 2 q0 2 2 6 l29 121 l-62 -3 l-38 -2 l-28 -118 q0 -6 -4 -6 l-22 0 q-2 0 2 8 l27 115 q-14 -1 -24.5 -1 q-10.5 0 -15.5 0 q-2 0 -2 3.5 q0 3.5 0 5.5 q0 7 1 10 q2 2 4.5 5.5 q2.5 3.5 6.5 5.5 l37 2 q10 43 20.5 85.5 q10.5 42.5 20.5 84.5 q-15 -1 -26 -1 q-11 0 -16 0 q-2 0 -2.5 3 q-0.5 3 -0.5 6 l0 5 q0 2 0.5 2.5 q0.5 0.5 0.5 2.5 q4 10 11 11 l-1 0 l42 1 ZM190 339 l-41 -170 l100 4 l41 171 l-2 0 l-98 -5 Z" /><glyph glyph-name="" unicode="$" d="M71 80 q2 5 4.5 4.5 q2.5 -0.5 4.5 -2.5 q29 -20 59.5 -26.5 q30.5 -6.5 68.5 -6.5 l10 0 q0 4 0.5 7.5 q0.5 3.5 0.5 8.5 q0 35 1 64 q1 29 1 39 l-1 95 l-12 5 q-14 5 -27.5 9 q-13.5 4 -24.5 9 q-37 13 -58 39 q-21 26 -21 58 q0 27 11.5 49.5 q11.5 22.5 30.5 34.5 q20 13 42.5 21 q22.5 8 57.5 10 q-1 17 -1 30.5 q0 13.5 0 20.5 q0 8 6 10 l5 0 q11 -2 11 -10 q0 -4 -0.5 -18.5 q-0.5 -14.5 -0.5 -31.5 l10 0 q26 0 49.5 -7 q23.5 -7 44.5 -18 q4 -3 4 -12 q0 -4 -2.5 -9.5 q-2.5 -5.5 -4.5 -10.5 l-2 -2 q-3 -3 -6 2 q-18 15 -39 23.5 q-21 8.5 -53 8.5 l-1 0 l0 -15 l0 -177 q29 -11 56.5 -23 q27.5 -12 38.5 -21 q20 -15 31.5 -34 q11.5 -19 11.5 -45 q0 -27 -11 -50.5 q-11 -23.5 -30 -41 q-19 -17.5 -44 -29 q-25 -11.5 -52 -15.5 q0 -25 1 -44 q1 -19 1 -27 q0 -9 -6 -11 q-2 0 -2.5 -0.5 q-0.5 -0.5 -1.5 -0.5 q-3 -1 -10 0 q-4 0 -4 10 q0 8 -0.5 27.5 q-0.5 19.5 0.5 43.5 l-8 0 q-41 0 -76 6 q-35 6 -65 22 q-6 4 -5 10 q1 4 3 9.5 q2 5.5 4 11.5 ZM240 59 l0 -8 q29 4 50.5 16 q21.5 12 35 27 q13.5 15 20 32 q6.5 17 6.5 32 q0 24 -12 39 q-12 15 -33 29 q-13 8 -30.5 15.5 q-17.5 7.5 -37.5 15.5 l0 -89 l1 -109 ZM214 292 q4 -2 6 -2 l-1 168 l0 15 q-26 -2 -45.5 -7.5 q-19.5 -5.5 -33.5 -13.5 q-16 -9 -28 -26 q-12 -17 -12 -33 q0 -19 7.5 -33.5 q7.5 -14.5 20 -25 q12.5 -10.5 28.5 -18.5 q16 -8 32 -14 l26 -10 Z" /><glyph glyph-name="" unicode="%" d="M449 126 q0 23 7.5 43.5 q7.5 20.5 24.5 35.5 q34 33 84 33 q24 0 46.5 -8 q22.5 -8 39.5 -25 q16 -14 23.5 -35 q7.5 -21 7.5 -44 q0 -23 -7 -43.5 q-7 -20.5 -24 -35.5 q-17 -16 -39.5 -24 q-22.5 -8 -46.5 -8 q-23 0 -45 8 q-22 8 -39 24 q-17 16 -24.5 36 q-7.5 20 -7.5 43 ZM45 387 q0 22 7.5 42.5 q7.5 20.5 23.5 36.5 q17 17 39 24.5 q22 7.5 47 7.5 q23 0 45.5 -7.5 q22.5 -7.5 38.5 -24.5 q17 -15 24.5 -35.5 q7.5 -20.5 7.5 -43.5 q0 -23 -7.5 -43.5 q-7.5 -20.5 -24.5 -35.5 q-16 -16 -38.5 -24 q-22.5 -8 -45.5 -8 q-52 0 -86 32 q-16 15 -23.5 35.5 q-7.5 20.5 -7.5 43.5 ZM475 126 q0 -15 3 -28 q3 -13 14 -27 q11 -16 31 -26 q20 -10 42 -10 q26 0 45 10 q19 10 30 26 q10 14 13.5 27.5 q3.5 13.5 3.5 27.5 q0 16 -3 28 q-3 12 -14 27 q-11 17 -30 27 q-19 10 -45 10 q-25 0 -43.5 -10 q-18.5 -10 -29.5 -27 q-17 -27 -17 -55 ZM70 387 q0 -16 4.5 -28.5 q4.5 -12.5 13.5 -26.5 q11 -17 31 -26.5 q20 -9.5 43 -9.5 q24 0 43 9.5 q19 9.5 30 26.5 q9 14 13.5 26.5 q4.5 12.5 4.5 28.5 q0 27 -18 55 q-11 16 -29.5 26.5 q-18.5 10.5 -43.5 10.5 q-26 0 -44.5 -10.5 q-18.5 -10.5 -29.5 -26.5 q-18 -28 -18 -55 ZM496 512 q2 3 6 3 l17 0 q4 0 3.5 -2 q-0.5 -2 -0.5 -3 l-294 -504 q-4 -8 -10 -8 l-17 0 q-2 0 -3 1.5 q-1 1.5 1 4.5 l297 508 Z" /><glyph glyph-name="" unicode="&amp;" d="M472 189 q-13 -15 -30.5 -35 q-17.5 -20 -32.5 -34 q15 -16 31 -31.5 q16 -15.5 30 -27.5 l26 -25 q3 -2 4.5 -5 q1.5 -3 -1.5 -5 l-44 0 q-5 0 -13 8 l-61 60 q-19 -17 -38.5 -30.5 q-19.5 -13.5 -39.5 -24.5 l1 0 q-47 -22 -102 -22 q-20 0 -44.5 5 q-24.5 5 -46 17.5 q-21.5 12.5 -36 34.5 q-14.5 22 -14.5 56 q0 24 14 46 q14 22 35.5 42.5 q21.5 20.5 48 38.5 q26.5 18 50.5 34 q-4 5 -7.5 10.5 q-3.5 5.5 -6.5 10.5 q-11 14 -25 38 q-14 24 -14 57 q0 38 31.5 66 q31.5 28 84.5 28 q35 0 61.5 -18.5 q26.5 -18.5 26.5 -62.5 q0 -20 -11 -38 q-11 -18 -27.5 -33.5 q-16.5 -15.5 -36.5 -29 q-20 -13.5 -37 -25.5 q8 -10 21 -23.5 q13 -13.5 27 -27.5 q20 -21 38.5 -41.5 q18.5 -20.5 27.5 -31.5 q5 -7 13.5 -16.5 q8.5 -9.5 19.5 -20.5 q18 18 37 40.5 q19 22.5 32 38.5 q11 14 18 23 q7 9 16 23 q3 4 6 9 q3 5 8 0 l7 -8 q4 -5 -1 -10 q-10 -14 -19.5 -27 q-9.5 -13 -26.5 -33 ZM200 46 q55 0 94.5 18.5 q39.5 18.5 73.5 45.5 l-27 30 q-3 3 -7.5 8 q-4.5 5 -17 19 q-12.5 14 -35 39.5 q-22.5 25.5 -61.5 69.5 l-1 -1 q-20 -14 -42 -31 q-22 -17 -40 -35.5 q-18 -18.5 -30 -38 q-12 -19.5 -13 -40.5 q-2 -33 25 -58.5 q27 -25.5 81 -25.5 ZM182 417 q0 -29 17 -58 q17 -29 37 -52 q18 12 36.5 26 q18.5 14 33.5 29 q15 15 24.5 29.5 q9.5 14.5 9.5 27.5 q0 31 -18.5 48 q-18.5 17 -53.5 17 q-36 0 -61 -20 q-25 -20 -25 -47 Z" /><glyph glyph-name="" unicode="&#39;" d="M115 385 q-5 0 -7 5 q-3 34 -4.5 53.5 q-1.5 19.5 -2.5 29.5 q-1 10 -1 12.5 q0 2.5 0 2.5 q0 3 2 7.5 q2 4.5 10 4.5 q10 0 13 -3.5 q3 -3.5 3 -7.5 q-5 -50 -6 -69.5 q-1 -19.5 -1 -24.5 l0 -5 q0 -2 -2 -3.5 q-2 -1.5 -4 -1.5 Z" /><glyph glyph-name="" unicode="(" d="M185 493 q1 -1 1 -3 q0 -1 -1 -2 q-15 -15 -28.5 -35 q-13.5 -20 -24.5 -41.5 q-11 -21.5 -20.5 -43 q-9.5 -21.5 -16.5 -39.5 q-8 -19 -13.5 -42 q-5.5 -23 -8.5 -46 q-3 -23 -4.5 -45 q-1.5 -22 -1.5 -39 q0 -24 3.5 -52.5 q3.5 -28.5 9.5 -56 q6 -27.5 12.5 -50.5 q6.5 -23 12.5 -37 q6 -14 15 -31 q9 -17 19.5 -34 q10.5 -17 23 -33.5 q12.5 -16.5 25.5 -29.5 q2 -2 1 -5 q-1 -3 -4 -5 q-2 -1 -5 -1.5 q-3 -0.5 -7 2.5 q-35 28 -63 70.5 q-28 42.5 -47 82.5 q-9 18 -15.5 41 q-6.5 23 -10.5 47 q-4 24 -6 48 q-2 24 -2 44 q0 16 2.5 36 q2.5 20 6 40.5 q3.5 20.5 8.5 39.5 q5 19 11 34 q9 21 21.5 46.5 q12.5 25.5 27 51 q14.5 25.5 30.5 48.5 q16 23 33 38 q4 3 9 3.5 q5 0.5 7 -1.5 Z" /><glyph glyph-name="" unicode=")" d="M34 493 q2 2 7 1.5 q5 -0.5 9 -3.5 q17 -15 33 -38 q16 -23 30.5 -48.5 q14.5 -25.5 27 -51 q12.5 -25.5 21.5 -46.5 q6 -15 11 -34 q5 -19 8.5 -39.5 q3.5 -20.5 6 -40.5 q2.5 -20 2.5 -36 q0 -20 -2 -44 q-2 -24 -6 -48 q-4 -24 -10.5 -47 q-6.5 -23 -15.5 -41 q-19 -40 -47 -82.5 q-28 -42.5 -63 -70.5 q-4 -3 -7 -2.5 q-3 0.5 -5 1.5 q-3 2 -4 5 q-1 3 1 5 q13 13 25.5 29.5 q12.5 16.5 23 33.5 q10.5 17 19.5 34 q9 17 15 31 q6 14 12.5 37 q6.5 23 12.5 50.5 q6 27.5 9.5 56 q3.5 28.5 3.5 52.5 q0 17 -1.5 39 q-1.5 22 -4.5 45 q-3 23 -8.5 46 q-5.5 23 -13.5 42 q-8 18 -17 39.5 q-9 21.5 -20 43 q-11 21.5 -24.5 41.5 q-13.5 20 -28.5 35 q-1 1 -1 2 q0 2 1 3 Z" /><glyph glyph-name="" unicode="*" d="M184 420 l-34 -60 q-2 -5 -10 -8 q-8 -3 -16 4 q-8 6 -7 14.5 q1 8.5 8 13.5 q3 1 8.5 5.5 q5.5 4.5 13 10.5 q7.5 6 15 13 q7.5 7 14.5 13 l-69 4 q-6 -1 -12 4.5 q-6 5.5 -4 16.5 q2 11 10 13 q8 2 14 -1 q7 -4 27 -12.5 q20 -8.5 37 -15.5 q-3 18 -5.5 38 q-2.5 20 -4.5 27 q-2 7 2 14.5 q4 7.5 15 7.5 q11 0 15 -7.5 q4 -7.5 2 -14.5 l-12 -64 q17 6 37 14.5 q20 8.5 26 12.5 q6 3 14 1 q8 -2 10 -13 q2 -11 -3 -16.5 q-5 -5.5 -13 -4.5 l-70 -4 q14 -13 30.5 -26.5 q16.5 -13.5 22.5 -15.5 q6 -5 7.5 -13.5 q1.5 -8.5 -6.5 -14.5 q-9 -7 -16.5 -4 q-7.5 3 -10.5 8 l-35 60 Z" /><glyph glyph-name="" unicode="+" d="M55 270 q0 6 5 6 l177 0 l0 156 q0 6 3 6 l15 0 q3 0 3 -6 l0 -156 l181 0 q3 0 3 -6 l0 -13 q0 -7 -4 -7 l-180 0 l0 -156 q0 -6 -3 -6 l-15 0 q-3 0 -3 6 l0 156 l-177 0 q-5 0 -5 7 l0 13 Z" /><glyph glyph-name="" unicode="," d="M130 31 q-1 -15 -8 -30.5 q-7 -15.5 -17.5 -29.5 q-10.5 -14 -23.5 -26 q-13 -12 -25 -20 q-5 -2 -8.5 -1 q-3.5 1 0.5 6 l0 -1 q23 23 32.5 40.5 q9.5 17.5 11.5 25.5 q3 11 0.5 21 q-2.5 10 -16.5 18 q-15 6 -5 24 q2 4 9 5.5 q7 1.5 15 0.5 q16 -2 26 -9.5 q10 -7.5 9 -23.5 Z" /><glyph glyph-name="" unicode="-" d="M51 270 q0 6 3 6 l166 0 q2 0 2 -6 l0 -14 q0 -6 -2 -6 l-166 0 q-3 0 -3 6 l0 14 Z" /><glyph glyph-name="" unicode="." d="M79 43 q0 13 8.5 20.5 q8.5 7.5 22.5 7.5 q14 0 23.5 -7.5 q9.5 -7.5 9.5 -20.5 q0 -13 -9.5 -21 q-9.5 -8 -23.5 -8 q-14 0 -22.5 8 q-8.5 8 -8.5 21 Z" /><glyph glyph-name="" unicode="/" d="M226 500 q2 3 6 3 l17 0 q4 0 3.5 -2 q-0.5 -2 -0.5 -3 l-201 -486 q-4 -8 -10 -8 l-17 0 q-2 0 -3 1.5 q-1 1.5 1 4.5 l204 490 Z" /><glyph glyph-name="" unicode="0" d="M25 252 q0 44 10.5 89.5 q10.5 45.5 33.5 80.5 q23 32 57 52 q34 20 76 20 q90 0 137 -72 q23 -34 31.5 -79.5 q8.5 -45.5 8.5 -90.5 q0 -45 -9.5 -89.5 q-9.5 -44.5 -35.5 -80.5 q-23 -34 -55.5 -52.5 q-32.5 -18.5 -76.5 -18.5 q-91 0 -137 70 q-23 37 -31.5 81 q-8.5 44 -8.5 90 ZM60 252 q0 -45 8.5 -89.5 q8.5 -44.5 31.5 -80.5 q17 -25 42 -38.5 q25 -13.5 60 -13.5 q32 0 57 11.5 q25 11.5 45 41.5 q40 62 40 169 q-3 109 -40 169 q-19 31 -44 42 q-25 11 -58 11 q-31 0 -58.5 -12 q-27.5 -12 -46.5 -43 q-37 -58 -37 -167 Z" /><glyph glyph-name="" unicode="1" d="M219 451 q-18 -8 -42.5 -19.5 q-24.5 -11.5 -42.5 -20.5 l-11 -5 q-2 -2 -3 0 q-1 0 -2 1 l-7 12 q-4 4 -1 6 l77 32 l64 29 q0 -9 -0.5 -25 q-0.5 -16 -0.5 -36 q0 -27 -0.5 -58.5 q-0.5 -31.5 -1.5 -57.5 l0 -70 q0 -21 0.5 -49.5 q0.5 -28.5 1 -59.5 q0.5 -31 1 -60 q0.5 -29 0.5 -51 q0 -2 0 -3.5 q0 -1.5 -3 -2.5 q-6 -1 -14 -1 q-8 0 -13 0 q-3 0 -3 5 l0 85 q0 20 0.5 41 q0.5 21 0.5 46 l0 262 Z" /><glyph glyph-name="" unicode="2" d="M73 425 q-4 10 0 14 q23 23 58 39 q35 16 70 16 q66 0 98.5 -31.5 q32.5 -31.5 32.5 -86.5 q0 -38 -18.5 -76 q-18.5 -38 -44.5 -71.5 q-26 -33.5 -53 -60.5 q-27 -27 -44 -42 l-34 -31 l-45 -39 l160 0 l36 0 q15 0 30.5 0.5 q15.5 0.5 24.5 0.5 q2 0 2 -5 q0 -5 0 -9.5 q0 -4.5 -2 -9.5 q-2 -6 -4 -6 q-1 0 -6.5 0 q-5.5 0 -13 0.5 q-7.5 0.5 -15 0.5 q-7.5 0 -13.5 0 q-11 1 -28 1 q-17 0 -25 0 q-23 0 -37 0.5 q-14 0.5 -25.5 0.5 q-11.5 0 -24.5 -0.5 q-13 -0.5 -34 -0.5 l-76 0 q-4 0 -3 5 q1 5 7 11 q44 38 71.5 62.5 q27.5 24.5 48.5 44.5 q22 21 45.5 45.5 q23.5 24.5 43 52 q19.5 27.5 32.5 58 q13 30.5 13 63.5 q0 46 -23.5 74.5 q-23.5 28.5 -75.5 28.5 q-42 0 -66 -15.5 q-24 -15.5 -40 -32.5 l-10 -9 q-2 -2 -4.5 -1.5 q-2.5 0.5 -2.5 1.5 q-2 2 -3 4 q-1 2 -2 4 Z" /><glyph glyph-name="" unicode="3" d="M83 421 q-1 -1 -2 -1 q-4 0 -4 1 q-5 5 -7 10 q-3 10 0 13 q7 7 20 16 q13 9 30 16.5 q17 7.5 37 12.5 q20 5 41 5 q43 0 70 -10.5 q27 -10.5 42 -26.5 q15 -16 20.5 -33.5 q5.5 -17.5 5.5 -30.5 q0 -26 -10 -45.5 q-10 -19.5 -26 -34.5 q-16 -15 -36 -25.5 q-20 -10.5 -39 -16.5 q22 -2 45 -8.5 q23 -6.5 42.5 -20.5 q19.5 -14 32 -35.5 q12.5 -21.5 12.5 -52.5 q0 -39 -16 -66.5 q-16 -27.5 -41 -44.5 q-25 -17 -57 -24.5 q-32 -7.5 -63 -7.5 q-45 0 -81.5 13.5 q-36.5 13.5 -54.5 31.5 q-2 2 -2.5 8 q-0.5 6 0.5 10 q1 5 3 8.5 q2 3.5 4 1.5 q21 -17 53 -35 q32 -18 82 -18 q27 0 52 9 q25 9 43.5 25 q18.5 16 29.5 37.5 q11 21.5 11 46.5 q0 33 -11.5 52.5 q-11.5 19.5 -27 31 q-15.5 11.5 -31.5 15.5 q-16 4 -25 6 q-14 2 -32 3 q-18 1 -35 1 l-17 0 q-4 0 -5 2 q-2 3 -2 8 q0 5 0 7 q0 3 4 3 l20 0 q15 0 33 2 q18 2 30 7 q15 7 29.5 16 q14.5 9 26 21.5 q11.5 12.5 18.5 28.5 q7 16 7 36 q0 41 -30.5 63 q-30.5 22 -75.5 22 q-21 0 -39.5 -6 q-18.5 -6 -32.5 -14 q-14 -8 -24.5 -17.5 q-10.5 -9.5 -16.5 -15.5 Z" /><glyph glyph-name="" unicode="4" d="M24 151 q-10 0 -7 9 q3 9 8 14 q11 14 33 41 q22 27 47.5 59.5 q25.5 32.5 53 67 q27.5 34.5 51 64 q23.5 29.5 40 50 q16.5 20.5 20.5 26.5 q6 6 11 6 l20 0 q3 0 4 -2.5 q1 -2.5 1 -4.5 q0 -13 -0.5 -29.5 q-0.5 -16.5 -1.5 -34.5 l0 -239 l77 0 q4 0 4 -4 q0 -8 -2 -18 q-2 -6 -5 -6 l-74 0 l1 -85 q1 -14 1 -25.5 q0 -11.5 0 -20.5 q0 -4 -3 -5 q-4 -1 -11.5 -1.5 q-7.5 -0.5 -10.5 -0.5 q-5 0 -5.5 2.5 q-0.5 2.5 -0.5 4.5 q1 16 1 36.5 q0 20.5 0 50.5 l0 45 l-252 0 ZM276 458 q-7 -9 -22 -29 q-15 -20 -33.5 -44 q-18.5 -24 -38.5 -49.5 q-20 -25.5 -36 -46.5 q-15 -18 -29.5 -37 q-14.5 -19 -26.5 -35 q-12 -16 -20.5 -26.5 q-8.5 -10.5 -10.5 -13.5 l217 0 l0 281 Z" /><glyph glyph-name="" unicode="5" d="M183 32 q63 0 98 34 q35 34 35 92 q0 49 -31.5 83.5 q-31.5 34.5 -96.5 34.5 q-31 0 -54 -7 q-23 -7 -32 -11 q-5 -2 -5.5 0.5 q-0.5 2.5 -0.5 5.5 l0 136 q0 7 -0.5 19 q-0.5 12 -0.5 25 l0 36 l238 0 q2 0 2 -5 q0 -11 -2 -19 q-2 -6 -3 -6 q-14 0 -31.5 0 q-17.5 0 -33.5 1 q-12 0 -22 0.5 q-10 0.5 -17 0.5 l-105 0 l-4 -168 q26 10 50.5 13.5 q24.5 3.5 32.5 3.5 q69 0 110.5 -36 q41.5 -36 41.5 -104 q0 -40 -13.5 -68.5 q-13.5 -28.5 -36.5 -46.5 q-23 -18 -53.5 -26.5 q-30.5 -8.5 -64.5 -8.5 q-45 0 -78 13 q-33 13 -52 32 q-3 3 -1 16 q2 14 5 12 q18 -16 47.5 -34 q29.5 -18 77.5 -18 Z" /><glyph glyph-name="" unicode="6" d="M321 470 q0 -1 -2 -1 q-52 4 -93 -8 q-41 -12 -79 -48 q-22 -21 -37.5 -49 q-15.5 -28 -25 -57.5 q-9.5 -29.5 -13 -56.5 q-3.5 -27 -1.5 -47 q31 48 70 70 q39 22 85 22 q36 0 62.5 -12 q26.5 -12 44.5 -32 q18 -20 27 -45.5 q9 -25.5 9 -51.5 q0 -33 -11.5 -59 q-11.5 -26 -32.5 -45 q-21 -19 -49 -29 q-28 -10 -61 -10 q-39 0 -67.5 10.5 q-28.5 10.5 -48 26 q-19.5 15.5 -31.5 34.5 q-12 19 -19 37 q-13 37 -13 92 q0 51 16.5 102 q16.5 51 49 91.5 q32.5 40.5 80 65.5 q47.5 25 110.5 25 q5 0 9.5 0 q4.5 0 9.5 -1 q2 0 3.5 -3 q1.5 -3 2.5 -6 l5 -15 ZM332 150 q0 21 -6.5 43 q-6.5 22 -20.5 40 q-14 18 -36.5 29.5 q-22.5 11.5 -55.5 11.5 q-27 0 -51 -12 q-24 -12 -43 -30 q-19 -18 -30 -40 q-11 -22 -11 -42 q0 -54 37.5 -87 q37.5 -33 97.5 -33 q51 0 85 32 q34 32 34 88 Z" /><glyph glyph-name="" unicode="7" d="M381 473 q-30 -55 -59.5 -116 q-29.5 -61 -56.5 -116 q-29 -60 -56.5 -115.5 q-27.5 -55.5 -50.5 -97.5 q-5 -9 -10 -9 l-31 -1 q-1 0 -2 1 q-1 1 0 4 q17 28 38.5 67 q21.5 39 44.5 81.5 q23 42.5 45 85.5 q22 43 41 81.5 q19 38.5 33.5 68 q14.5 29.5 20.5 45.5 l-264 0 l-1 1 q-2 2 -2 3 l0 10 q0 4 -0.5 7.5 q-0.5 3.5 -0.5 5.5 q0 3 2 3 q22 -2 34 -2 q12 0 29 0 l183 0 q9 0 17 1 q8 1 16 1 l32 0 q2 0 0 -5 l-2 -4 Z" /><glyph glyph-name="" unicode="8" d="M23 143 q0 21 10.5 42.5 q10.5 21.5 28.5 40 q18 18.5 42.5 33 q24.5 14.5 52.5 21.5 q-20 6 -38 15.5 q-18 9.5 -32.5 23 q-14.5 13.5 -23 32 q-8.5 18.5 -8.5 42.5 q0 22 12.5 40.5 q12.5 18.5 33 32 q20.5 13.5 47.5 21 q27 7.5 56 7.5 q30 0 56.5 -7 q26.5 -7 46.5 -20 q20 -13 32 -31.5 q12 -18.5 12 -42.5 q0 -23 -8.5 -41.5 q-8.5 -18.5 -23 -32.5 q-14.5 -14 -33 -23.5 q-18.5 -9.5 -39.5 -15.5 q34 -6 59.5 -21 q25.5 -15 42 -34 q16.5 -19 24.5 -38.5 q8 -19.5 8 -34.5 q0 -36 -13.5 -62.5 q-13.5 -26.5 -37.5 -44 q-24 -17.5 -57.5 -26 q-33.5 -8.5 -72.5 -8.5 q-44 0 -77 11 q-33 11 -55.5 29 q-22.5 18 -33.5 42 q-11 24 -11 50 ZM339 147 q0 51 -38 85 q-38 34 -101 34 q-30 0 -55.5 -9.5 q-25.5 -9.5 -44 -25.5 q-18.5 -16 -28.5 -38 q-10 -22 -10 -46 q0 -51 35.5 -83 q35.5 -32 102.5 -32 q68 0 103.5 32.5 q35.5 32.5 35.5 82.5 ZM315 383 q0 18 -7 34 q-7 16 -20.5 29 q-13.5 13 -35 20.5 q-21.5 7.5 -49.5 7.5 q-53 0 -83.5 -26.5 q-30.5 -26.5 -30.5 -64.5 q0 -40 32 -66.5 q32 -26.5 82 -26.5 q50 0 81 26.5 q31 26.5 31 66.5 Z" /><glyph glyph-name="" unicode="9" d="M82 34 q0 2 3 2 q53 -5 93 7.5 q40 12.5 78 48.5 q22 21 37.5 49 q15.5 28 25.5 57 q10 29 13.5 56 q3.5 27 1.5 47 q-60 -91 -157 -91 q-35 0 -61.5 12 q-26.5 12 -44.5 32 q-18 20 -27 45.5 q-9 25.5 -9 51.5 q0 33 11.5 59.5 q11.5 26.5 32.5 45.5 q21 19 49 29 q28 10 61 10 q39 0 67.5 -10.5 q28.5 -10.5 48.5 -26 q20 -15.5 32 -34.5 q12 -19 18 -37 q6 -18 9.5 -41.5 q3.5 -23.5 3.5 -52.5 q0 -51 -16.5 -101.5 q-16.5 -50.5 -49 -90.5 q-32.5 -40 -80.5 -65 q-48 -25 -110 -25 q-5 0 -9.5 0 q-4.5 0 -9.5 1 q-4 0 -6 7 q-2 5 -3 7.5 q-1 2.5 -2 7.5 ZM71 354 q0 -20 6.5 -42 q6.5 -22 20.5 -40 q14 -18 36.5 -29.5 q22.5 -11.5 55.5 -11.5 q27 0 51.5 12 q24.5 12 43 30 q18.5 18 29.5 39.5 q11 21.5 11 41.5 q0 27 -10 49.5 q-10 22.5 -28 38 q-18 15.5 -42.5 24.5 q-24.5 9 -54.5 9 q-52 0 -85.5 -32 q-33.5 -32 -33.5 -89 Z" /><glyph glyph-name="" unicode=":" d="M94 171 q0 9 7.5 15.5 q7.5 6.5 18.5 6.5 q12 0 20 -6.5 q8 -6.5 8 -15.5 q0 -12 -8 -18.5 q-8 -6.5 -20 -6.5 q-11 0 -18.5 6.5 q-7.5 6.5 -7.5 18.5 ZM94 38 q0 9 7.5 16.5 q7.5 7.5 18.5 7.5 q12 0 20 -7.5 q8 -7.5 8 -16.5 q0 -11 -8 -17 q-8 -6 -20 -6 q-11 0 -18.5 6 q-7.5 6 -7.5 17 Z" /><glyph glyph-name="" unicode=";" d="M103 172 q0 10 7.5 16 q7.5 6 18.5 6 q12 0 20 -6 q8 -6 8 -16 q0 -11 -8 -17.5 q-8 -6.5 -20 -6.5 q-11 0 -18.5 6.5 q-7.5 6.5 -7.5 17.5 ZM159 36 q-1 -15 -7.5 -30 q-6.5 -15 -16.5 -28.5 q-10 -13.5 -22.5 -25 q-12.5 -11.5 -24.5 -18.5 q-2 -1 -3.5 0 q-1.5 1 1.5 3 q21 22 29.5 39 q8.5 17 10.5 24 q4 11 1 20 q-3 9 -11 14 q-9 4 -12.5 11 q-3.5 7 -1.5 12 q1 6 9 8.5 q8 2.5 15 2.5 q34 -3 33 -32 Z" /><glyph glyph-name="" unicode="&lt;" d="M53 269 q0 4 1.5 6.5 q1.5 2.5 3.5 4.5 q48 19 96 38.5 q48 19.5 96 39.5 q48 20 94.5 38.5 q46.5 18.5 94.5 38.5 l0 -25 q0 -8 -5 -10 l-358 -134 l52 -20 l140 -55 q19 -8 38 -14.5 q19 -6.5 37 -14.5 l92 -37 l0 1 q4 -2 4 -11 l0 -25 l1 -1 q-50 22 -96.5 41 q-46.5 19 -94.5 39 q-14 5 -31 12 q-17 7 -32 13 l-128 53 q-5 2 -5 10 l0 12 ZM440 436 q-1 0 -1 -1 l0 1 q0 3 3 2.5 q3 -0.5 -2 -2.5 Z" /><glyph glyph-name="" unicode="=" d="M442 325 q0 -6 -3 -6 l-381 0 q-3 0 -3 6 l0 19 q0 6 3 6 l381 0 q3 0 3 -6 l0 -19 ZM442 183 q0 -6 -3 -6 l-381 0 q-3 0 -3 6 l0 19 q0 6 3 6 l381 0 q3 0 3 -6 l0 -19 Z" /><glyph glyph-name="" unicode="&gt;" d="M439 257 l0 12 q0 10 -5 12 l0 -1 l-381 156 l0 -26 q0 -7 3 -10 l127 -47 l139 -52 l-1 0 l95 -35 l-358 -141 q-2 -2 -3.5 -4.5 q-1.5 -2.5 -1.5 -5.5 l0 -25 q91 37 190 78.5 q99 41.5 190 78.5 q6 4 6 10 ZM50 89 q-4 -2 -0.5 -2 q3.5 0 3.5 3 q-1 -1 -3 -1 ZM53 436 l-1 0 q-2 1 -2 1 l3 -1 Z" /><glyph glyph-name="" unicode="?" d="M177 497 q25 0 45 -9 q20 -9 33 -23 q13 -14 20 -31.5 q7 -17.5 7 -33.5 q0 -30 -19.5 -59 q-19.5 -29 -42.5 -51 l1 0 l-16 -14 q-24 -26 -31.5 -55 q-7.5 -29 -8.5 -60 q1 -6 -3.5 -10.5 q-4.5 -4.5 -10.5 -4.5 q-9 0 -7 20 q0 38 9 68 q9 30 31 54 q5 6 12 12 q7 6 12 12 q17 18 32 43.5 q15 25.5 15 46.5 q0 11 -5 24 q-5 13 -15.5 24 q-10.5 11 -25.5 18.5 q-15 7.5 -33 7.5 q-21 0 -39 -6.5 q-18 -6.5 -32 -15.5 q-14 -9 -24.5 -19 q-10.5 -10 -17.5 -17 l-5 0 q-1 1 -4 5 q-3 4 -4 7 q-5 7 0 12 q7 7 18.5 16.5 q11.5 9.5 27.5 18 q16 8.5 36.5 14.5 q20.5 6 44.5 6 ZM133 40 q0 25 25 25 q26 0 26 -25 q0 -10 -7 -16.5 q-7 -6.5 -19 -6.5 q-11 0 -18 6.5 q-7 6.5 -7 16.5 Z" /><glyph glyph-name="" unicode="@" d="M459 384 l-1 -1 q1 3 4 6.5 q3 3.5 8 3.5 q2 0 3.5 -3.5 q1.5 -3.5 1.5 -6.5 l-26 -105 l-14 -76 q-2 -13 0.5 -28 q2.5 -15 8.5 -19 q5 -6 25 -6 q20 0 42 10.5 q22 10.5 38 21.5 q11 10 21.5 25.5 q10.5 15.5 18.5 32 q8 16.5 13 32.5 q5 16 5 26 q0 37 -12.5 73.5 q-12.5 36.5 -43.5 60.5 l1 0 q-32 28 -78.5 38.5 q-46.5 10.5 -102.5 10.5 q-19 0 -46 -4 q-27 -4 -55 -12.5 q-28 -8.5 -54 -22.5 q-26 -14 -44 -33 q-21 -17 -35 -38.5 q-14 -21.5 -22.5 -43.5 q-8.5 -22 -12.5 -42.5 q-4 -20.5 -4 -34.5 q0 -60 20 -100.5 q20 -40.5 59 -68.5 q34 -28 77 -36 q43 -8 93 -8 q54 0 102 13 q48 13 91 36 l-1 -1 q6 2 4 -8 q-2 -10 -10 -15 q-12 -10 -29 -19 q-17 -9 -30 -14 l1 0 q-39 -11 -74 -16 q-35 -5 -64 -5 q-23 0 -47.5 4 q-24.5 4 -49 11 q-24.5 7 -47.5 17.5 q-23 10.5 -42 24.5 q-42 32 -62 81.5 q-20 49.5 -20 103.5 q0 22 7 45.5 q7 23.5 18.5 46.5 q11.5 23 26.5 43.5 q15 20.5 31 37.5 q45 35 104 57 q59 22 119 22 q62 0 110 -13 q48 -13 89 -48 l-1 0 q29 -27 41 -59.5 q12 -32.5 12 -67.5 q0 -39 -15.5 -74.5 q-15.5 -35.5 -38.5 -62.5 q-20 -21 -51 -37 q-31 -16 -62 -16 q-21 -1 -34 12 q-4 5 -9 17.5 q-5 12.5 -6 33.5 q-35 -34 -63.5 -48.5 q-28.5 -14.5 -53.5 -14.5 q-20 0 -36.5 5.5 q-16.5 5.5 -26.5 18.5 q-11 11 -15.5 31 q-4.5 20 -3.5 46 q0 18 3.5 36.5 q3.5 18.5 9 36 q5.5 17.5 13 32 q7.5 14.5 16.5 23.5 q22 23 50 36.5 q28 13.5 59 13.5 q23 0 48 -15.5 q25 -15.5 38 -47.5 l11 45 ZM433 313 q0 9 -4 21 q-4 12 -12 22 q-8 10 -20.5 17 q-12.5 7 -30.5 7 q-32 0 -57 -14 q-25 -14 -39 -34 q-15 -23 -21.5 -53 q-6.5 -30 -6.5 -53 q0 -38 18 -55 q18 -17 50 -17 q14 0 29 5.5 q15 5.5 28 14.5 q13 9 23.5 19.5 q10.5 10.5 15.5 20.5 q17 28 22 50.5 q5 22.5 5 48.5 Z" /><glyph glyph-name="" unicode="A" d="M329 393 q22 -53 52.5 -120.5 q30.5 -67.5 59.5 -133.5 l52 -112 q3 -8 0 -10 q-2 -1 -16.5 -1 q-14.5 0 -21.5 0 q-1 1 -3.5 3.5 q-2.5 2.5 -4.5 6.5 l-48 116 l-21 51 q-15 1 -35.5 2 q-20.5 1 -42 1.5 q-21.5 0.5 -43 1 q-21.5 0.5 -38.5 0.5 q-18 0 -39 -2 q-21 -2 -31 -4 l-25 -56 l-52 -113 q-2 -7 -7 -7 q-4 0 -9.5 0.5 q-5.5 0.5 -10.5 0.5 l-10 0 q0 1 -1 2.5 q-1 1.5 1 4.5 q14 23 28.5 54.5 q14.5 31.5 28.5 57.5 q9 16 19.5 38.5 q10.5 22.5 22.5 49 q12 26.5 24.5 54.5 q12.5 28 24.5 55 q5 14 12.5 30 q7.5 16 13.5 29 q10 23 19 42 q8 17 14 31.5 q6 14.5 8 18.5 q2 4 5.5 10 q3.5 6 5.5 6 q10 2 16 0 q7 -2 10 -5.5 q3 -3.5 4 -6.5 q4 -8 8.5 -20.5 q4.5 -12.5 8.5 -21.5 l21 -53 ZM268 469 q-18 -42 -36 -85 q-16 -37 -34.5 -79.5 q-18.5 -42.5 -34.5 -79.5 l202 0 l-97 244 Z" /><glyph glyph-name="" unicode="B" d="M78 356 q-1 9 -1 25.5 q0 16.5 -1 34.5 q-1 19 -1.5 35 q-0.5 16 -0.5 26 q-1 9 0 12 q1 3 3 3 l49 2 q24 0 50 1.5 q26 1.5 60 1.5 q23 0 43.5 -1 q20.5 -1 34.5 -3 q18 -4 36 -12 q18 -8 32.5 -19.5 q14.5 -11.5 23 -26 q8.5 -14.5 8.5 -31.5 q0 -51 -41.5 -81.5 q-41.5 -30.5 -120.5 -47.5 q45 1 86 -11 q41 -12 63 -27 q40 -28 40 -80 q0 -32 -14.5 -54.5 q-14.5 -22.5 -38.5 -38 q-24 -15.5 -54.5 -24 q-30.5 -8.5 -63.5 -13.5 q-33 -5 -65 -7 q-32 -2 -58 -3 l-69 0 q-3 0 -3 6 q2 12 2 27 q0 15 0 27 q0 7 0.5 13 q0.5 6 0.5 12 l0 254 ZM109 281 q87 2 135 13 q48 11 65 20 q29 16 48 35.5 q19 19.5 19 48.5 q0 25 -15.5 41 q-15.5 16 -41.5 27 q-24 8 -50.5 9 q-26.5 1 -55.5 1 q-10 0 -22 0 q-12 0 -22 -1 q-5 0 -9 -0.5 q-4 -0.5 -9 -0.5 q-11 0 -22.5 -1 q-11.5 -1 -19.5 -2 l0 -190 ZM215 43 q26 2 58.5 7.5 q32.5 5.5 61 18.5 q28.5 13 47.5 35 q19 22 19 57 q0 30 -22 49.5 q-22 19.5 -54 30 q-32 10.5 -67 14.5 q-35 4 -61 4 l-88 -3 q0 -65 0 -104 q0 -39 0 -61.5 q0 -22.5 0.5 -32 q0.5 -9.5 0.5 -15.5 q16 -2 41.5 -2 q25.5 0 42.5 2 l21 0 Z" /><glyph glyph-name="" unicode="C" d="M469 54 q-2 -10 -5 -11 q-12 -7 -31.5 -13.5 q-19.5 -6.5 -41 -11 q-21.5 -4.5 -43 -7.5 q-21.5 -3 -36.5 -3 q-58 0 -106.5 17 q-48.5 17 -84 49 q-35.5 32 -55 78 q-19.5 46 -19.5 105 q0 52 21 97 q21 45 56.5 78 q35.5 33 82 51.5 q46.5 18.5 97.5 18.5 q48 0 90.5 -8.5 q42.5 -8.5 66.5 -20.5 q7 -4 6 -13 l-7 -18 q-2 -2 -6 -3.5 q-4 -1.5 -7 0.5 q-30 17 -65.5 26.5 q-35.5 9.5 -77.5 9.5 q-50 0 -91.5 -17 q-41.5 -17 -71 -47 q-29.5 -30 -46 -69.5 q-16.5 -39.5 -16.5 -84.5 q0 -42 14 -81.5 q14 -39.5 43 -70 q29 -30.5 73 -48.5 q44 -18 103 -18 q18 0 39 3.5 q21 3.5 40.5 8.5 q19.5 5 36.5 11.5 q17 6.5 29 12.5 q11 5 11 5 q2 -5 2 -14 q0 -9 -1 -12 Z" /><glyph glyph-name="" unicode="D" d="M64 310 q0 33 -0.5 64.5 q-0.5 31.5 -1.5 57.5 q-1 15 -1 26.5 q0 11.5 0 19.5 q0 5 1.5 9.5 q1.5 4.5 5.5 4.5 q27 0 52 0.5 q25 0.5 50 1.5 q24 1 47.5 1.5 q23.5 0.5 47.5 0.5 q60 0 103.5 -19.5 q43.5 -19.5 71.5 -51.5 q28 -32 41 -73.5 q13 -41.5 13 -85.5 q0 -54 -21.5 -97.5 q-21.5 -43.5 -59 -75 q-37.5 -31.5 -88.5 -50.5 q-51 -19 -111 -24 q-5 0 -16 -0.5 q-11 -0.5 -24 -1 q-13 -0.5 -25 -1 q-12 -0.5 -20 -0.5 q-11 0 -19.5 -0.5 q-8.5 -0.5 -13.5 -0.5 q-10 0 -17.5 0 q-7.5 0 -16.5 -1 l0 5 q1 21 1.5 40.5 q0.5 19.5 0.5 38.5 l0 212 ZM95 40 q46 0 66 0.5 q20 0.5 27 2.5 l7 0 q67 3 116.5 23.5 q49.5 20.5 81.5 52 q32 31.5 48 70 q16 38.5 16 77.5 q0 45 -13.5 83 q-13.5 38 -41.5 65.5 q-28 27.5 -71.5 43.5 q-43.5 16 -103.5 16 q-35 0 -66.5 -0.5 q-31.5 -0.5 -65.5 -5.5 l0 -428 Z" /><glyph glyph-name="" unicode="E" d="M109 281 l143 0 q26 0 56 0 q30 0 49 1 q5 0 5 -6 q0 -9 -2 -17 q-1 -2 -1 -4 l0 -1 l-250 0 l0 -210 l203 0 q11 0 24.5 0 q13.5 0 45.5 1 q6 0 6 -7 q0 -1 -2.5 -10 q-2.5 -9 -4.5 -11 q-2 -2 -6 -2 q-4 0 -12.5 0 q-8.5 0 -18.5 0.5 q-10 0.5 -19 0.5 q-9 0 -13 0 l-170 0 q-8 0 -15 -0.5 q-7 -0.5 -14 -0.5 l-29 0 q-6 0 -6 7 q0 11 0 28.5 q0 17.5 1 37.5 q0 19 0.5 36.5 q0.5 17.5 0.5 27.5 l0 168 q0 8 0 32.5 q0 24.5 -1 45.5 q-1 26 -2 48 q-1 22 -1 32 q0 13 12 13 l33 0 q11 0 21 -0.5 q10 -0.5 17 -0.5 l127 0 q7 0 19.5 0 q12.5 0 25.5 0.5 q13 0.5 25.5 1 q12.5 0.5 21.5 0.5 q5 -3 5 -6 q0 -4 0 -8.5 q0 -4.5 -1 -6.5 q-2 -7 -4 -7 l-269 0 l0 -183 Z" /><glyph glyph-name="" unicode="F" d="M92 355 q0 10 -0.5 26.5 q-0.5 16.5 -1.5 35.5 q-1 20 -1 37 q0 17 0 27 q0 11 5 11 q8 0 14.5 -0.5 q6.5 -0.5 12.5 -0.5 l201 0 q15 0 35 0 q20 0 37 1 q2 -2 2 -6 q0 -5 0 -9.5 q0 -4.5 -1 -6.5 q-1 -2 -1 -5 q0 -1 -1 -2 l-71 1 l-201 0 q0 -36 0 -64 q0 -28 0.5 -49.5 q0.5 -21.5 0.5 -38 q0 -16.5 0 -30.5 q29 0 62.5 0 q33.5 0 67 0.5 q33.5 0.5 65 0.5 q31.5 0 56.5 0 q2 0 2 -5 l-1 -18 q0 -3 -2 -4.5 q-2 -1.5 -3 -1.5 l-247 0 l0 -48 l0 -25 q0 -8 0.5 -31 q0.5 -23 0.5 -49 l0 -77 q0 -4 -3 -7 q-4 -2 -9 -2 q-5 0 -10 0 q-5 0 -7 1 q-6 1 -6 6 q0 10 0.5 35.5 q0.5 25.5 1.5 48.5 q1 25 1.5 45.5 q0.5 20.5 0.5 29.5 l0 174 Z" /><glyph glyph-name="" unicode="G" d="M317 501 q50 0 93 -9 q43 -9 67 -22 q3 -2 3 -10 q-1 -3 -3 -8.5 q-2 -5.5 -5 -10.5 l1 0 q-5 -7 -15 -3 l1 0 q-29 17 -64.5 26.5 q-35.5 9.5 -78.5 9.5 q-51 0 -93 -15 q-42 -15 -72.5 -43.5 q-30.5 -28.5 -47.5 -69 q-17 -40.5 -17 -92.5 q0 -43 13.5 -80.5 q13.5 -37.5 37.5 -65 q24 -27.5 58.5 -43 q34.5 -15.5 76.5 -15.5 q25 0 52 5 q27 5 52 15.5 q25 10.5 46 26 q21 15.5 34 35.5 l0 79 l-121 0 q-1 0 -1 6 l0 17 q2 5 5 5 l201 0 q1 0 1 -4 q0 -3 0 -8.5 q0 -5.5 -1 -8.5 q-1 -2 -1 -5 l0 -2 l-55 0 l0 -95 q0 -22 0.5 -44.5 q0.5 -22.5 0.5 -38.5 l0 -16 q0 -5 -5 -5 q-5 -1 -11.5 -1.5 q-6.5 -0.5 -10.5 -0.5 q-2 0 -2 5 l0 81 q-50 -47 -98.5 -62.5 q-48.5 -15.5 -85.5 -15.5 q-48 0 -88 18.5 q-40 18.5 -69 50 q-29 31.5 -45 74.5 q-16 43 -16 93 q0 55 20.5 101 q20.5 46 56 78 q35.5 32 83.5 50 q48 18 103 18 Z" /><glyph glyph-name="" unicode="H" d="M460 408 q0 20 0 40.5 q0 20.5 -1 39.5 q-1 3 3 5 q5 1 14.5 1 q9.5 0 14.5 -1 q3 0 3 -7 q0 -20 -1.5 -39.5 q-1.5 -19.5 -0.5 -39.5 l1 -239 q0 -14 0 -34.5 q0 -20.5 0.5 -42.5 q0.5 -22 1 -41 q0.5 -19 1.5 -29 q0 -6 -3 -6 q-2 0 -4.5 -0.5 q-2.5 -0.5 -5.5 -0.5 q-13 -2 -21 0 q-5 0 -3 5 q0 10 0.5 31.5 q0.5 21.5 0.5 44.5 q0 23 0 43.5 q0 20.5 0 29.5 l0 88 l-359 0 q0 -38 0.5 -76 q0.5 -38 0.5 -78 q1 -22 1.5 -43.5 q0.5 -21.5 0.5 -33.5 q0 -5 -6 -6 q-4 -1 -13 -1.5 q-9 -0.5 -14 -0.5 q-3 2 -4 7 q1 10 1.5 30.5 q0.5 20.5 1 42.5 q0.5 22 0.5 42 q0 20 0 29 q0 26 0 60.5 q0 34.5 0 69 q0 34.5 0 64 q0 29.5 0 45.5 q0 20 -0.5 40.5 q-0.5 20.5 -2.5 39.5 q1 2 2 4 q1 2 2 2 q5 1 12.5 1 q7.5 0 12.5 -1 q5 -2 5 -6 q-1 -20 -1 -40 q0 -20 0 -40 l0 -120 q85 0 180 0.5 q95 0.5 180 0.5 l0 120 Z" /><glyph glyph-name="" unicode="I" d="M131 189 q0 -9 0 -33.5 q0 -24.5 1 -47.5 q0 -26 0.5 -48.5 q0.5 -22.5 0.5 -32.5 q0 -8 -5 -10 l1 0 q-4 -1 -14 -1.5 q-10 -0.5 -16 0.5 q-4 0 -4 10 q0 11 0 34.5 q0 23.5 1 49.5 q0 26 0.5 48 q0.5 22 0.5 31 q0 49 -0.5 85.5 q-0.5 36.5 0.5 58.5 q0 10 -0.5 32.5 q-0.5 22.5 -0.5 45.5 l0 72 q0 8 4 10 q5 1 14 1 q9 0 13 -1 q4 -2 4 -10 q0 -3 0 -11.5 q0 -8.5 -0.5 -19 q-0.5 -10.5 -0.5 -21.5 q0 -11 0 -20 q-1 -23 -1 -45.5 q0 -22.5 0 -32.5 q0 -6 0 -29 q0 -23 1 -49 q0 -30 1 -66 Z" /><glyph glyph-name="" unicode="J" d="M-19 -45 q58 -2 98 18 q40 20 45 68 q0 3 0.5 7.5 q0.5 4.5 0.5 7.5 q1 14 1.5 29.5 q0.5 15.5 0.5 31.5 l0 200 q0 41 0 85.5 q0 44.5 -2 84.5 q0 6 4 6 q3 1 12 1 q9 0 16 -1 q3 -3 3 -7 q-1 -38 -1.5 -61 q-0.5 -23 -0.5 -39.5 q0 -16.5 0 -31.5 q0 -15 0 -37 q0 -25 0.5 -51 q0.5 -26 1.5 -52 q1 -26 1 -51.5 q0 -25.5 0 -50.5 q0 -18 -1 -38.5 q-1 -20.5 -5 -40.5 q-4 -20 -11.5 -37.5 q-7.5 -17.5 -19.5 -30.5 q-14 -12 -30 -20.5 q-16 -8.5 -32 -14.5 q-16 -6 -30 -9.5 q-14 -3.5 -23 -4.5 q-9 0 -11 2 q-2 1 -9 11 q-7 10 -10 21 q-1 5 2 5 Z" /><glyph glyph-name="" unicode="K" d="M128 170 q0 -9 0.5 -30.5 q0.5 -21.5 1.5 -41.5 q1 -20 1 -41.5 q0 -21.5 1 -32.5 q0 -7 -2 -7 l-37 -1 q-1 0 -1.5 2 q-0.5 2 -0.5 4 q0 10 0.5 31 q0.5 21 1 43.5 q0.5 22.5 1 43 q0.5 20.5 0.5 29.5 l0 194 q0 9 -0.5 25.5 q-0.5 16.5 -1 34.5 q-0.5 18 -1 35.5 q-0.5 17.5 -0.5 28.5 q0 2 0.5 4 q0.5 2 1.5 2 l37 0 q1 0 1.5 -2 q0.5 -2 0.5 -4 q-1 -10 -1.5 -27 q-0.5 -17 -1 -35.5 q-0.5 -18.5 -1 -35 q-0.5 -16.5 -0.5 -26.5 l0 -108 q32 25 70 56.5 q38 31.5 74.5 63 q36.5 31.5 68 59.5 q31.5 28 51.5 46 l10 8 q6 5 15 5 l32 0 q1 0 2 -1 q1 -2 0 -3 l-19 -17 q-2 -2 -6.5 -5.5 q-4.5 -3.5 -8.5 -6.5 q-4 -3 -6 -5 q-2 -2 0 0 l-1 -1 l-187 -155 q13 -15 28 -31.5 q15 -16.5 26 -30.5 q34 -41 70 -82.5 q36 -41.5 69 -76.5 l32 -35 l16 -18 q7 -6 5.5 -7.5 q-1.5 -1.5 -4.5 -2.5 q-6 -1 -18 -1.5 q-12 -0.5 -17 -0.5 q-9 0 -14 6 q-1 1 -14 16.5 q-13 15.5 -33.5 39.5 q-20.5 24 -45 53.5 q-24.5 29.5 -48.5 58 q-24 28.5 -44 53 q-20 24.5 -32 39.5 l-71 -59 l0 -50 Z" /><glyph glyph-name="" unicode="L" d="M80 349 q0 14 -0.5 25.5 q-0.5 11.5 -0.5 21.5 q0 21 0 43 q0 22 -2 48 q0 2 0 4 q0 2 2 2 l32 0 q1 0 1.5 -2 q0.5 -2 0.5 -4 q-2 -33 -2 -55 q0 -22 0 -49 l0 -71 q0 -14 0 -34.5 q0 -20.5 0 -43.5 q0 -23 0.5 -46.5 q0.5 -23.5 0.5 -42.5 l0 -86 q0 -6 2 -10 q2 -4 14 -4 l138 0 q5 0 17 0 q12 0 26.5 0 q14.5 0 29.5 0.5 q15 0.5 26 1.5 q2 0 2 -7 q0 -2 -1.5 -10 q-1.5 -8 -3.5 -13 q-1 -2 -2 -2 l-42 0 q-15 0 -28 0.5 q-13 0.5 -21 0.5 l-159 0 q-7 0 -13 -0.5 q-6 -0.5 -14 -0.5 q-2 0 -3.5 3.5 q-1.5 3.5 -1.5 6.5 q1 16 1 30 q0 14 0 28 l0 19 l1 247 Z" /><glyph glyph-name="" unicode="M" d="M487 393 q6 13 10 24 q4 11 9 22 q8 20 11.5 27 q3.5 7 8.5 17 q5 9 7.5 12 q2.5 3 7.5 5 q2 1 7 1 q5 0 8 -1 q3 -2 6 -8.5 q3 -6.5 7 -21.5 q5 -19 9 -38 q4 -19 8 -38 q12 -53 27.5 -116.5 q15.5 -63.5 29.5 -120 q14 -56.5 23.5 -95 q9.5 -38.5 10.5 -41.5 q2 -3 -0.5 -4.5 q-2.5 -1.5 -4.5 -2.5 q-5 -2 -11.5 -2 q-6.5 0 -11.5 1 q-6 2 -6 7 l-103 426 l-167 -377 q-2 -6 -10 -8 q-2 -1 -10 -1 q-8 0 -10 1 q-8 2 -11 8 q-5 11 -13.5 31 q-8.5 20 -26.5 62 q-18 42 -47.5 111 q-29.5 69 -77.5 177 q-12 -51 -24 -106 q-12 -55 -23.5 -110.5 q-11.5 -55.5 -23 -110 q-11.5 -54.5 -21.5 -103.5 q-2 -7 -6 -7 q-8 0 -17 0.5 q-9 0.5 -13 1.5 q-3 1 -1 9 q1 5 2.5 11.5 q1.5 6.5 4.5 16.5 q3 10 7 25.5 q4 15.5 11 39.5 q1 6 4.5 21.5 q3.5 15.5 8 36 q4.5 20.5 10 45 q5.5 24.5 10.5 48.5 q12 57 28 126 q2 12 5.5 25 q3.5 13 5.5 25 l10 40 q3 13 11 15 q2 1 7 1 q5 0 7 -1 q5 -2 8 -5 q3 -3 7 -11 q7 -12 12 -25 q5 -13 11 -26 l31 -71 q12 -29 30 -71.5 q18 -42.5 35 -83.5 q17 -41 30 -73.5 q13 -32.5 16 -39.5 q13 27 31.5 66.5 q18.5 39.5 37.5 81.5 q19 42 37 82 q18 40 31 70 Z" /><glyph glyph-name="" unicode="N" d="M179 446 q24 -26 51 -57 q27 -31 65 -75.5 q38 -44.5 91 -105 q53 -60.5 129 -145.5 q0 22 0 58.5 q0 36.5 0 75.5 q0 39 -0.5 73 q-0.5 34 -0.5 52 q0 10 -0.5 34.5 q-0.5 24.5 -0.5 50.5 q0 25 0 49 q0 24 -1 36 q0 5 3 5 q6 1 15 1.5 q9 0.5 15 0.5 q1 -1 2.5 -2.5 q1.5 -1.5 1.5 -3.5 q0 -8 0 -31 q0 -23 -1 -51 q-1 -29 -1.5 -54.5 q-0.5 -25.5 -0.5 -33.5 l0 -299 q0 -5 -3.5 -9.5 q-3.5 -4.5 -8.5 -4.5 q-7 0 -21 11 l1 0 q-4 3 -11.5 10.5 q-7.5 7.5 -15.5 15.5 q-10 9 -20 20 l0 -1 l-333 383 q0 -8 -0.5 -24.5 q-0.5 -16.5 -1 -35.5 q-0.5 -19 -0.5 -38 q0 -19 0 -34 q0 -26 0 -50.5 q0 -24.5 1 -35.5 q0 -13 0.5 -42.5 q0.5 -29.5 0.5 -62 q0 -32.5 0 -61.5 q0 -29 0 -41 q0 -4 -3 -7 q-3 0 -5.5 -0.5 q-2.5 -0.5 -7.5 -0.5 l-18 0 q-3 0 -3 6 q0 10 0 26.5 q0 16.5 0.5 36 q0.5 19.5 1 39.5 q0.5 20 0.5 37 q1 25 1 44 q0 19 0 26 l0 256 q0 5 4.5 9.5 q4.5 4.5 10.5 4.5 q10 0 21 -11 l0 1 l43 -45 Z" /><glyph glyph-name="" unicode="O" d="M67 254 q0 22 4.5 47.5 q4.5 25.5 14 50 q9.5 24.5 23.5 47 q14 22.5 34 40.5 l-1 0 q40 34 84 49 q44 15 99 15 q54 0 95 -15 q41 -15 80 -49 q41 -36 59 -86.5 q18 -50.5 18 -98.5 q0 -54 -19 -101.5 q-19 -47.5 -55 -81.5 q-35 -34 -81.5 -49.5 q-46.5 -15.5 -96.5 -15.5 q-54 0 -101 16 q-47 16 -82 46 q-17 16 -31 38.5 q-14 22.5 -24 48 q-10 25.5 -15 51.5 q-5 26 -5 48 ZM536 256 q0 21 -3.5 44 q-3.5 23 -11.5 46 q-8 23 -20.5 45 q-12.5 22 -31.5 40 q-28 26 -65 38.5 q-37 12.5 -79 12.5 q-40 0 -79 -12 q-39 -12 -71 -39 q-18 -17 -31 -39 q-13 -22 -21.5 -45.5 q-8.5 -23.5 -12 -47 q-3.5 -23.5 -3.5 -43.5 q0 -47 15 -94.5 q15 -47.5 53 -82.5 q16 -14 35 -23.5 q19 -9.5 39.5 -15.5 q20.5 -6 40 -9 q19.5 -3 35.5 -3 q37 0 74 11 q37 11 70 40 q19 18 32 40.5 q13 22.5 21 46.5 q8 24 11 47.5 q3 23.5 3 42.5 Z" /><glyph glyph-name="" unicode="P" d="M111 492 q9 0 22.5 0.5 q13.5 0.5 19.5 1.5 q29 2 58.5 3 q29.5 1 40.5 1 q8 0 18 -0.5 q10 -0.5 27 -1.5 q49 -5 83 -33.5 q34 -28.5 34 -76.5 q0 -41 -16 -68.5 q-16 -27.5 -52 -45.5 q-38 -19 -83.5 -23.5 q-45.5 -4.5 -87.5 -4.5 l-64 0 l0 -52 q0 -22 0.5 -43 q0.5 -21 0.5 -42 l0 -83 q0 -5 -5 -7 l2 0 q-5 -1 -15.5 -1.5 q-10.5 -0.5 -15.5 0.5 q-3 0 -3 7 q0 22 0 42.5 q0 20.5 1 40.5 q1 21 1.5 42 q0.5 21 0.5 44 l0 163 q0 11 -0.5 32 q-0.5 21 -1.5 42 q-1 15 -1 27.5 q0 12.5 0 17.5 q0 11 2 14.5 q2 3.5 5 3.5 l29 0 ZM111 470 l0 -201 l68 0 q33 0 69 5.5 q36 5.5 65 19.5 q32 15 46.5 35 q14.5 20 14.5 52 q0 25 -9 44 q-9 19 -36 34 q-20 10 -40 13 q-20 3 -42 3 q-8 0 -16.5 0 q-8.5 0 -15.5 -1 l-104 -4 Z" /><glyph glyph-name="" unicode="Q" d="M80 254 q0 21 5.5 46 q5.5 25 15.5 50 q10 25 24 48 q14 23 32 41 q77 64 182 64 q54 0 95 -15 q41 -15 82 -49 l-1 0 q40 -36 58 -86.5 q18 -50.5 18 -98.5 q0 -54 -19 -101.5 q-19 -47.5 -54 -81.5 q-23 -23 -51 -36.5 q-28 -13.5 -60 -21.5 q21 -14 48 -33.5 q27 -19.5 48 -36.5 q11 -7 20.5 -14.5 q9.5 -7.5 19.5 -14.5 l40 -28 q2 -2 3.5 -5 q1.5 -3 -0.5 -4 l-30 -16 q-3 -1 -7 0 q-5 5 -10.5 9 q-5.5 4 -9.5 8 l-30 26 q-9 8 -26.5 22 q-17.5 14 -37 29 q-19.5 15 -37.5 29 q-18 14 -30 23 q-8 -1 -15 -1 q-7 0 -14 0 q-55 0 -102 15.5 q-47 15.5 -81 46.5 q-18 16 -32 38.5 q-14 22.5 -24 48 q-10 25.5 -15 51.5 q-5 26 -5 48 ZM549 256 q0 21 -3.5 44 q-3.5 23 -11.5 46 q-8 23 -20.5 45 q-12.5 22 -31.5 40 q-28 26 -65 38.5 q-37 12.5 -78 12.5 q-42 0 -80 -11 q-38 -11 -71 -40 q-19 -17 -31.5 -39 q-12.5 -22 -20.5 -45.5 q-8 -23.5 -11.5 -47 q-3.5 -23.5 -3.5 -43.5 q0 -47 15 -94.5 q15 -47.5 52 -82.5 q16 -14 35.5 -23.5 q19.5 -9.5 39.5 -15.5 q20 -6 39.5 -9 q19.5 -3 36.5 -3 q36 0 74 12 q38 12 69 39 q19 18 31.5 40.5 q12.5 22.5 20.5 46.5 q8 24 11.5 47.5 q3.5 23.5 3.5 42.5 Z" /><glyph glyph-name="" unicode="R" d="M111 492 q14 0 32.5 1 q18.5 1 32.5 2 q18 1 36.5 1.5 q18.5 0.5 37.5 0.5 q17 0 32.5 -1 q15.5 -1 29.5 -4 q42 -7 67 -33 q25 -26 25 -66 q0 -33 -17 -58.5 q-17 -25.5 -47 -42.5 q-27 -16 -52 -23.5 q-25 -7.5 -56 -10.5 q9 -12 25 -31.5 q16 -19.5 33.5 -40.5 q17.5 -21 33 -39.5 q15.5 -18.5 23.5 -28.5 q19 -22 42.5 -46.5 q23.5 -24.5 44.5 -44.5 q5 -5 5 -7.5 q0 -2.5 -2 -3.5 q-8 -1 -21 -1 q-13 0 -17 1 q-12 1 -17 8 q-12 13 -33 40 q-21 27 -41 50 l-24 31 l-96 110 l-40 0 l-37 0 l0 -63 q0 -22 0.5 -43 q0.5 -21 0.5 -42 l0 -83 q0 -5 -5 -7 q-4 -1 -14 -1.5 q-10 -0.5 -15 0.5 q-3 0 -3 7 q0 22 0 42.5 q0 20.5 1 40.5 q1 21 1.5 42 q0.5 21 0.5 44 l0 163 q0 11 -0.5 32 q-0.5 21 -1.5 42 q-1 15 -1 27.5 q0 12.5 0 17.5 q0 11 2 14.5 q2 3.5 5 3.5 l29 0 ZM209 474 q-20 -1 -48.5 -3 q-28.5 -2 -49.5 -3 l0 -190 q14 -1 30.5 -0.5 q16.5 0.5 28.5 0.5 q48 0 83 6 q35 6 51 14 q29 14 46.5 35.5 q17.5 21.5 17.5 51.5 q0 26 -8.5 42 q-8.5 16 -25.5 30 q-8 7 -30.5 12.5 q-22.5 5.5 -64.5 5.5 q-6 0 -14.5 0 q-8.5 0 -15.5 -1 Z" /><glyph glyph-name="" unicode="S" d="M54 70 q1 3 3 5 q2 2 5 0 q28 -19 61.5 -27 q33.5 -8 73.5 -8 q34 0 60 10 q26 10 43.5 25.5 q17.5 15.5 26 34.5 q8.5 19 8.5 37 q0 40 -44 69 q-20 14 -52.5 26 q-32.5 12 -62.5 23 q-8 2 -17 6.5 q-9 4.5 -17 7.5 q-33 15 -57.5 41 q-24.5 26 -24.5 61 q0 29 12 52.5 q12 23.5 32 35.5 q23 15 53.5 24 q30.5 9 81.5 9 q25 0 50.5 -7 q25.5 -7 47.5 -18 q4 -4 4 -13 q0 -5 -2 -12.5 q-2 -7.5 -4 -12.5 l-2 -2 q-2 -2 -4 1 q-18 14 -42 24 q-24 10 -56 10 q-38 0 -60.5 -5.5 q-22.5 -5.5 -41.5 -16.5 q-16 -10 -26 -25.5 q-10 -15.5 -10 -33.5 q0 -32 25 -54 q25 -22 59 -36 l38 -15 q16 -6 33 -13 q17 -7 32.5 -13.5 q15.5 -6.5 28.5 -12.5 q13 -6 21 -12 q42 -33 42 -83 q0 -35 -14.5 -61.5 q-14.5 -26.5 -39 -44.5 q-24.5 -18 -55.5 -28 q-31 -10 -64 -11 q-50 -2 -84.5 6 q-34.5 8 -62.5 22 q-2 2 -2.5 6 q-0.5 4 -0.5 9 q0 5 1.5 9 q1.5 4 3.5 11 Z" /><glyph glyph-name="" unicode="T" d="M136 460 q-29 0 -54 -0.5 q-25 -0.5 -51 -2.5 q-5 0 -7 10 q0 2 -0.5 7 q-0.5 5 -0.5 10 q0 7 5 7 q9 0 25 -0.5 q16 -0.5 28 -0.5 q15 -1 29 -1 q14 0 26 0 l185 0 q12 0 28 0 q16 0 28 1 q14 0 26 0.5 q12 0.5 25 0.5 q1 0 3 -7 q1 -4 0 -11.5 q-1 -7.5 -3 -11.5 q-1 -4 -5 -4 q-26 2 -50.5 2.5 q-24.5 0.5 -51.5 0.5 l-76 0 l0 -268 q0 -41 1 -84.5 q1 -43.5 3 -85.5 q0 -2 -0.5 -4 q-0.5 -2 -1.5 -2 l-35 0 q-2 0 -2 7 q2 44 2.5 84 q0.5 40 0.5 85 l0 268 l-77 0 Z" /><glyph glyph-name="" unicode="U" d="M492 484 q0 7 3 8 q9 3 29 0 q2 -1 3.5 -2 q1.5 -1 1.5 -5 q0 -10 0 -26 q0 -16 -1 -35 q-1 -19 -1.5 -36.5 q-0.5 -17.5 -0.5 -28.5 l0 -153 q0 -47 -11.5 -84 q-11.5 -37 -37 -62.5 q-25.5 -25.5 -66.5 -39.5 q-41 -14 -99 -14 q-109 0 -159 47 q-50 47 -50 150 l0 283 q0 4 6 6 q3 2 11.5 1.5 q8.5 -0.5 13.5 -1.5 q4 0 4 -7 q0 -8 0 -23.5 q0 -15.5 -0.5 -34 q-0.5 -18.5 -1 -37.5 q-0.5 -19 -0.5 -32 l0 -95 q0 -20 0 -42 q0 -22 2 -42 q7 -69 52.5 -105.5 q45.5 -36.5 121.5 -36.5 q91 0 135.5 43 q44.5 43 42.5 117 q0 6 0 32 q0 26 1 55 q0 33 1 75 l0 125 Z" /><glyph glyph-name="" unicode="V" d="M251 24 q-11 23 -25 54.5 q-14 31.5 -30.5 66.5 q-16.5 35 -32.5 70.5 q-16 35.5 -30.5 66 q-14.5 30.5 -26 54.5 q-11.5 24 -16.5 35 q-11 23 -20.5 45.5 q-9.5 22.5 -20.5 43.5 l-14 29 q-1 1 -1 2 q0 2 2 2 q8 1 19.5 1 q11.5 0 19.5 -1 q5 -3 8 -7 q7 -17 15.5 -36 q8.5 -19 15.5 -37 q5 -14 9.5 -25 q4.5 -11 9.5 -21 q4 -9 12 -27 q8 -18 18.5 -41 q10.5 -23 22.5 -49 q12 -26 24 -51 q27 -61 60 -131 q7 14 17.5 36.5 q10.5 22.5 23 49.5 q12.5 27 26 56 q13.5 29 26 56 q12.5 27 22.5 50 q10 23 17 38 q11 23 20 44.5 q9 21.5 17 41.5 l19 46 q1 5 9 7 q6 1 19.5 1 q13.5 0 18.5 -1 q3 0 1 -5 l-59 -117 q-14 -30 -37.5 -78.5 q-23.5 -48.5 -48 -100.5 q-24.5 -52 -46 -98 q-21.5 -46 -32.5 -70 q-5 -8 -9 -8 l-14 0 q-5 0 -7 4 q-2 2 -2 4 Z" /><glyph glyph-name="" unicode="W" d="M205 16 q-5 1 -8.5 6.5 q-3.5 5.5 -5.5 10.5 l-34 97 l-112 312 l-17 45 q-2 6 0 6 q6 1 18 1 q12 0 20 -1 q5 -2 8 -10 l-1 1 q3 -11 10.5 -33 q7.5 -22 23.5 -68 q16 -46 42.5 -121.5 q26.5 -75.5 68.5 -193.5 q11 26 25 62 q14 36 28.5 75 q14.5 39 29 78 q14.5 39 26.5 71 q12 32 19.5 53.5 q7.5 21.5 9.5 26.5 l17 51 q4 8 7 8 l38 0 q5 0 6 -4 l20 -55 l143 -363 q15 40 36.5 96.5 q21.5 56.5 43 115 q21.5 58.5 41 112.5 q19.5 54 31.5 90 q3 8 8 8 l36 0 q4 0 2 -4 l-141 -358 q-3 -8 -8 -22.5 q-5 -14.5 -11 -30 q-6 -15.5 -11 -29.5 q-5 -14 -8 -20 q-1 -3 -4 -7.5 q-3 -4.5 -9 -5.5 q-2 -1 -7.5 -1 q-5.5 0 -7.5 1 q-5 1 -8 4.5 q-3 3.5 -4 6.5 l-39 103 q-1 1 -10.5 24.5 q-9.5 23.5 -26 65.5 q-16.5 42 -39.5 100 q-23 58 -51 129 l-123 -318 l-38 -99 q-2 -4 -5 -9.5 q-3 -5.5 -6 -6.5 q-5 -1 -12.5 -1 q-7.5 0 -9.5 1 l-1 0 Z" /><glyph glyph-name="" unicode="X" d="M247 240 l-70 -100 q-4 -6 -15.5 -22.5 q-11.5 -16.5 -24 -35 q-12.5 -18.5 -24 -34.5 q-11.5 -16 -15.5 -21 q-6 -10 -20 -11 q-8 -1 -17.5 -1 q-9.5 0 -14.5 2 q-7 2 2 11 l94 120 q11 14 36 47.5 q25 33.5 51 70.5 l-78 116 l-75 105 q-1 1 -1 3.5 q0 2.5 3 2.5 q7 0 19.5 0 q12.5 0 18.5 -1 q2 -1 5 -3.5 q3 -2.5 5 -4.5 l69 -107 l55 -81 q21 30 37.5 53 q16.5 23 21.5 31 l28 41 q11 16 21.5 31.5 q10.5 15.5 18.5 30.5 q5 9 12 9 q5 1 15 1 q10 0 18 0 q2 0 2.5 -2.5 q0.5 -2.5 -0.5 -3.5 l-79 -108 l-77 -109 l85 -121 l46 -62 l45 -62 q5 -7 0 -8 q-11 -1 -20 -1 q-9 0 -20 0 q-6 0 -16 11 q-3 3 -14 20.5 q-11 17.5 -24 37.5 q-15 23 -32 52 l-71 103 Z" /><glyph glyph-name="" unicode="Y" d="M203 261 l-113 169 q-5 7 -10 12.5 q-5 5.5 -8 10.5 q-6 8 -10 13.5 q-4 5.5 -11 16.5 q-8 10 -1 10 q7 1 17.5 0.5 q10.5 -0.5 17.5 -1.5 q6 -2 14 -12 l18 -28 l13 -23 l48 -73 l74 -114 l121 186 l16 26 l18 26 q7 10 15 12 q5 2 14.5 2 q9.5 0 16.5 -1 q2 0 3.5 -2 q1.5 -2 -2.5 -7 q-13 -16 -19 -26 l-19 -27 q-3 -5 -11.5 -17 q-8.5 -12 -19.5 -28.5 q-11 -16.5 -24 -35.5 q-13 -19 -26 -38 q-31 -45 -68 -99 l-1 -37 q0 -18 -0.5 -36.5 q-0.5 -18.5 0.5 -37.5 q0 -11 0 -20.5 q0 -9.5 1 -19.5 q1 -10 1.5 -20 q0.5 -10 0.5 -20 q0 -3 -3 -6 q-6 -1 -15 -1 q-9 0 -13 1 q-5 2 -5 5 q2 11 2 23.5 q0 12.5 0 25.5 l0 84 q0 14 0.5 28 q0.5 14 0.5 29 l-33 50 Z" /><glyph glyph-name="" unicode="Z" d="M41 37 q20 26 51.5 62 q31.5 36 66.5 77 q33 38 68 78 q35 40 66.5 77.5 q31.5 37.5 57 70.5 q25.5 33 41.5 56 l-316 0 q-5 0 -7 9 q-2 6 -2 16 q0 5 3 5.5 q3 0.5 7 0.5 l101 -2 l270 0 q5 0 5.5 -6 q0.5 -6 -5.5 -14 q-42 -51 -84 -100 q-42 -49 -81 -95 q-48 -56 -96 -112.5 q-48 -56.5 -87 -107.5 l196 0 q9 0 32.5 0.5 q23.5 0.5 49.5 1 q26 0.5 49.5 1 q23.5 0.5 33.5 0.5 q2 -2 2 -7 q0 -3 -1 -11.5 q-1 -8.5 -2 -11.5 q-2 -6 -4 -6 l-407 0 q-11 0 -11 7 q0 7 3 11 Z" /><glyph glyph-name="" unicode="[" d="M108 364 q0 10 -0.5 26.5 q-0.5 16.5 -1 34 q-0.5 17.5 -1 34.5 q-0.5 17 -1.5 28 q0 3 2 6.5 q2 3.5 4 3.5 l125 0 q4 0 6 -2 q1 -1 2 -1 q1 -9 0 -17 q-2 -5 -4 -5.5 q-2 -0.5 -4 -0.5 l-90 0 l0 -626 l90 0 q5 0 7 -4 q1 -5 1.5 -9 q0.5 -4 -0.5 -7 q-2 -5 -4.5 -6.5 q-2.5 -1.5 -3.5 -1.5 l-39 1 l-61 0 q-4 0 -9 -0.5 q-5 -0.5 -13 -0.5 q-5 0 -6 4 q-1 4 -1 7 q1 11 1.5 41 q0.5 30 0.5 63.5 q0 33.5 0 63 q0 29.5 0 40.5 l0 328 Z" /><glyph glyph-name="" unicode="\" d="M332 12 q2 -5 -0.5 -8.5 q-2.5 -3.5 -5.5 -3.5 l-17 0 q-3 0 -7.5 3.5 q-4.5 3.5 -6.5 6.5 l-201 489 q0 4 0.5 6 q0.5 2 6.5 2 l17 0 q2 0 4.5 -0.5 q2.5 -0.5 5.5 -4.5 l204 -490 Z" /><glyph glyph-name="" unicode="]" d="M164 36 q0 -11 0 -40.5 q0 -29.5 0 -63 q0 -33.5 0.5 -63.5 q0.5 -30 1.5 -41 q0 -3 -1 -7 q-1 -4 -6 -4 q-8 0 -13 0.5 q-5 0.5 -9 0.5 l-61 0 l-39 -1 q-1 0 -3.5 1.5 q-2.5 1.5 -4.5 6.5 q-1 3 -0.5 7 q0.5 4 1.5 9 q2 4 7 4 l90 0 l0 626 l-90 0 q-2 0 -4.5 0.5 q-2.5 0.5 -3.5 5.5 q-1 8 0 17 l1 1 q2 2 7 2 l125 0 q2 0 4 -3.5 q2 -3.5 2 -6.5 q-1 -11 -1.5 -28 q-0.5 -17 -1 -34.5 q-0.5 -17.5 -1 -34 q-0.5 -16.5 -0.5 -26.5 l0 -328 Z" /><glyph glyph-name="" unicode="^" d="M234 519 q2 3 6.5 6 q4.5 3 6.5 3 l6 0 q2 0 6.5 -3 q4.5 -3 6.5 -6 l174 -299 q1 -2 1 -5 q0 -3 -3 -3 l-22 0 q-7 0 -13 9 l0 -1 l-153 270 l-156 -266 q-2 -5 -5.5 -9 q-3.5 -4 -6.5 -4 l-23 1 q-2 0 -3.5 3 q-1.5 3 0.5 7 l0 -1 l178 298 Z" /><glyph glyph-name="" unicode="_" d="M15 15 q-7 0 -7 10 l0 11 q0 10 7 10 l368 0 q8 0 8 -10 l0 -11 q0 -10 -8 -10 l-368 0 Z" /><glyph glyph-name="" unicode="a" d="M84 307 q1 7 9 15 q26 15 54 23 q28 8 54 8 q26 0 49 -7 q23 -7 40 -19.5 q17 -12.5 27 -31 q10 -18.5 10 -42.5 q0 -14 -0.5 -41 q-0.5 -27 -1.5 -50 q-1 -23 -1 -42 q0 -19 0 -30 q0 -5 0 -11 q0 -6 1 -11 q1 -8 6 -18 q5 -10 16 -16 q8 -4 15.5 -5 q7.5 -1 14.5 -1 q5 0 3 -4 q-2 -4 -7 -6 l1 0 q-15 -4 -37 -4 q-19 0 -29.5 18 q-10.5 18 -15.5 40 q-36 -32 -72.5 -49 q-36.5 -17 -67.5 -17 q-30 0 -50 8 q-20 8 -32 20.5 q-12 12.5 -17 27.5 q-5 15 -5 30 q0 28 17 47.5 q17 19.5 43 33 q26 13.5 57 22.5 q31 9 60 16 q11 3 23 6 q12 3 20 6 q15 6 22 14 q7 8 7 16 q0 16 -8 29.5 q-8 13.5 -21.5 23 q-13.5 9.5 -31 14.5 q-17.5 5 -35.5 5 q-34 0 -59.5 -12 q-25.5 -12 -47.5 -25 q-6 -4 -9 2 q-1 2 -1.5 7.5 q-0.5 5.5 0.5 9.5 ZM297 198 q-36 -7 -74 -15.5 q-38 -8.5 -69.5 -20.5 q-31.5 -12 -51.5 -29 q-20 -17 -20 -41 q0 -20 15.5 -37.5 q15.5 -17.5 54.5 -17.5 q17 0 37 6 q20 6 39.5 15 q19.5 9 36.5 20.5 q17 11.5 29 22.5 l3 97 Z" /><glyph glyph-name="" unicode="b" d="M374 190 q0 23 -8 46.5 q-8 23.5 -24 43 q-16 19.5 -41 32 q-25 12.5 -58 12.5 q-25 0 -50.5 -10.5 q-25.5 -10.5 -46.5 -29.5 q-21 -19 -34.5 -45.5 q-13.5 -26.5 -13.5 -57.5 q0 -75 38 -110.5 q38 -35.5 104 -35.5 q25 0 49.5 9.5 q24.5 9.5 43 29 q18.5 19.5 30 48.5 q11.5 29 11.5 68 ZM98 25 q0 -6 -1 -7.5 q-1 -1.5 -3 -2.5 q-4 -1 -12.5 -1.5 q-8.5 -0.5 -14.5 0.5 q-2 2 -3.5 3.5 q-1.5 1.5 -1.5 3.5 q0 4 0 15.5 q0 11.5 1 25.5 q1 15 1.5 32.5 q0.5 17.5 0.5 24.5 l0 263 q0 2 0 11.5 q0 9.5 -1 23.5 q0 4 -0.5 7.5 q-0.5 3.5 -0.5 7.5 q-1 15 -1 31 q0 16 0 19 q0 4 4 8 l30 0 q4 -4 4 -8 q0 -6 -0.5 -19 q-0.5 -13 -1 -28.5 q-0.5 -15.5 -0.5 -30 q0 -14.5 0 -22.5 l0 -128 q11 24 28.5 42.5 q17.5 18.5 37.5 31 q20 12.5 40 19 q20 6.5 36 6.5 q47 0 79 -17 q32 -17 52 -41.5 q20 -24.5 28.5 -53 q8.5 -28.5 8.5 -51.5 q0 -45 -13.5 -79 q-13.5 -34 -37 -57.5 q-23.5 -23.5 -54 -35.5 q-30.5 -12 -63.5 -12 q-47 0 -82 21.5 q-35 21.5 -60 54.5 l0 -57 Z" /><glyph glyph-name="" unicode="c" d="M47 179 q0 37 13 68.5 q13 31.5 37.5 54 q24.5 22.5 58.5 36 q34 13.5 76 15.5 q34 2 66.5 -3.5 q32.5 -5.5 55.5 -15.5 q6 -6 4 -15 q-1 -5 -5 -12.5 q-4 -7.5 -8 -5.5 q-23 11 -51.5 18.5 q-28.5 7.5 -60.5 6.5 q-36 0 -64.5 -11.5 q-28.5 -11.5 -48.5 -31 q-20 -19.5 -31 -46.5 q-11 -27 -11 -58 q0 -23 7.5 -48 q7.5 -25 25 -46 q17.5 -21 46 -34.5 q28.5 -13.5 71.5 -13.5 q81 0 131 35 q1 -5 2 -12.5 q1 -7.5 1 -14.5 q0 -7 -9 -11 q-35 -17 -73 -22.5 q-38 -5.5 -58 -5.5 q-31 0 -62.5 10.5 q-31.5 10.5 -56.5 32 q-25 21.5 -40.5 54 q-15.5 32.5 -15.5 76.5 Z" /><glyph glyph-name="" unicode="d" d="M78 190 q0 -39 11.5 -68 q11.5 -29 30.5 -48.5 q19 -19.5 43 -29 q24 -9.5 49 -9.5 q66 0 104.5 35.5 q38.5 35.5 38.5 110.5 q0 31 -13.5 57.5 q-13.5 26.5 -34.5 45.5 q-21 19 -47 29.5 q-26 10.5 -51 10.5 q-33 0 -58 -12.5 q-25 -12.5 -41 -32 q-16 -19.5 -24 -43 q-8 -23.5 -8 -46.5 ZM355 82 q-26 -33 -61.5 -54.5 q-35.5 -21.5 -81.5 -21.5 q-33 0 -63.5 12 q-30.5 12 -54 35.5 q-23.5 23.5 -37 57.5 q-13.5 34 -13.5 79 q0 23 9 51.5 q9 28.5 28.5 53 q19.5 24.5 51.5 41.5 q32 17 79 17 q16 0 36.5 -5.5 q20.5 -5.5 40.5 -17.5 q20 -12 37.5 -31 q17.5 -19 28.5 -46 l0 129 q0 7 0 20.5 q0 13.5 -0.5 28.5 q-0.5 15 -1 29 q-0.5 14 -0.5 22 q0 2 0.5 5 q0.5 3 2.5 3 l30 0 q4 -4 4 -8 q0 -3 -0.5 -18 q-0.5 -15 -1.5 -32 q-1 -16 -1 -32 q0 -16 0 -18 l0 -263 q0 -8 0.5 -24 q0.5 -16 1.5 -33 q1 -13 1 -25.5 q0 -12.5 0 -15.5 q0 -2 -6 -8 q-5 0 -12.5 0.5 q-7.5 0.5 -10.5 1.5 q-3 1 -4.5 2.5 q-1.5 1.5 -1.5 7.5 l0 57 Z" /><glyph glyph-name="" unicode="e" d="M71 179 q2 -39 16 -68 q14 -29 32 -45 l0 1 q21 -17 47.5 -24.5 q26.5 -7.5 55.5 -7.5 q26 0 57 6 q31 6 58 23 q5 2 8 0 q2 -1 3 -2 q1 -2 2 -7.5 q1 -5.5 0 -7.5 q-1 -9 -7 -12 q-25 -14 -57 -21.5 q-32 -7.5 -63 -7.5 q-39 0 -75.5 11 q-36.5 11 -62.5 37 q-21 20 -34.5 50.5 q-13.5 30.5 -13.5 84.5 q0 32 11.5 62 q11.5 30 33.5 52.5 q22 22.5 54.5 36 q32.5 13.5 75.5 13.5 q155 0 155 -163 q0 -11 -6 -11 l-290 0 ZM213 327 q-38 0 -63.5 -12.5 q-25.5 -12.5 -42 -31 q-16.5 -18.5 -24.5 -39.5 q-8 -21 -11 -38 l260 0 q-2 24 -9.5 46 q-7.5 22 -21.5 38.5 q-14 16.5 -35.5 26.5 q-21.5 10 -52.5 10 Z" /><glyph glyph-name="" unicode="f" d="M87 395 q3 26 9.5 52.5 q6.5 26.5 32.5 55.5 q17 17 43.5 32 q26.5 15 54.5 15 q2 0 2.5 -0.5 q0.5 -0.5 1.5 -5.5 q1 -4 0.5 -11 q-0.5 -7 -1.5 -11 q-1 0 -2.5 -1.5 q-1.5 -1.5 -2.5 -2.5 q-24 -2 -46.5 -12.5 q-22.5 -10.5 -36.5 -27.5 q-7 -10 -11.5 -22 q-4.5 -12 -7 -24 q-2.5 -12 -4 -22.5 q-1.5 -10.5 -1.5 -16.5 l0 -40 l84 0 q4 0 4 -4 l0 -3 q0 -3 -0.5 -7 q-0.5 -4 -0.5 -7 q0 -3 -3 -5 q-3 -2 -5 -1 l-31 0 q-9 0 -18 0.5 q-9 0.5 -16 0.5 l-14 0 q0 -28 0 -58.5 q0 -30.5 0.5 -56.5 q0.5 -26 0.5 -45.5 q0 -19.5 0 -26.5 l0 -97 q0 -5 0.5 -10 q0.5 -5 0.5 -12 q0 -4 -3 -8 l-26 0 q-5 2 -5 9 q0 18 0.5 31 q0.5 13 0.5 25.5 q0 12.5 0 27 q0 14.5 0 34.5 l0 187 l-55 0 q-5 0 -5 5 q0 4 1 10.5 q1 6.5 4 11.5 q6 0 15.5 -0.5 q9.5 -0.5 17.5 -0.5 l21 0 l1 0 l0 42 Z" /><glyph glyph-name="" unicode="g" d="M79 185 q0 -38 12 -66.5 q12 -28.5 31 -47 q19 -18.5 42.5 -28 q23.5 -9.5 47.5 -9.5 q28 0 50.5 12.5 q22.5 12.5 39 32 q16.5 19.5 25.5 44 q9 24.5 9 48.5 q0 25 -6.5 52.5 q-6.5 27.5 -20.5 50 q-14 22.5 -38 37 q-24 14.5 -58 14.5 q-37 0 -62.5 -15 q-25.5 -15 -41.5 -36.5 q-16 -21.5 -23 -46 q-7 -24.5 -7 -42.5 ZM174 -152 q33 0 62.5 12.5 q29.5 12.5 52 37.5 q22.5 25 36.5 61.5 q14 36.5 17 84.5 q0 9 0.5 22 q0.5 13 0.5 24 q-9 -15 -23.5 -30 q-14.5 -15 -32 -27 q-17.5 -12 -37 -19.5 q-19.5 -7.5 -38.5 -7.5 q-40 0 -70.5 14.5 q-30.5 14.5 -51 38.5 q-20.5 24 -31 55.5 q-10.5 31.5 -10.5 65.5 q0 32 11.5 63 q11.5 31 32.5 55 q21 24 51 39 q30 15 67 15 q26 0 47.5 -7.5 q21.5 -7.5 38 -18 q16.5 -10.5 28.5 -23.5 q12 -13 18 -23 l0 57 q-1 7 3 8 q10 2 23 0 q4 -1 4 -8 q0 -5 -0.5 -10.5 q-0.5 -5.5 -0.5 -11.5 l0 -22 q-1 -17 -1 -39 q0 -22 0 -54 l0 -34 q0 -22 0 -56 q0 -34 -1 -72 q-2 -40 -13.5 -79.5 q-11.5 -39.5 -35 -70.5 q-23.5 -31 -60 -50.5 q-36.5 -19.5 -87.5 -19.5 q-46 0 -79.5 15.5 q-33.5 15.5 -50.5 30.5 q-2 2 -3.5 6 q-1.5 4 -1.5 8 q1 12 3 17 q2 2 5.5 3.5 q3.5 1.5 6.5 -1.5 l0 1 l9 -7 q17 -14 41.5 -28.5 q24.5 -14.5 69.5 -14.5 Z" /><glyph glyph-name="" unicode="h" d="M111 267 q8 11 18.5 22.5 q10.5 11.5 15.5 15.5 q19 17 46.5 32.5 q27.5 15.5 70.5 15.5 q29 0 50 -10 q21 -10 35 -26.5 q14 -16.5 21 -38 q7 -21.5 9 -45.5 q2 -16 1.5 -31.5 q-0.5 -15.5 -0.5 -25.5 l0 -86 q0 -14 0.5 -27 q0.5 -13 0.5 -24 l0 -18 q0 -6 -8 -8 q-3 -1 -8.5 -1.5 q-5.5 -0.5 -10.5 0.5 q-6 0 -6 8 q0 8 0 28 q0 20 0 42 q0 22 0.5 41.5 q0.5 19.5 0.5 27.5 l0 52 q-2 25 -7 46 q-5 21 -16.5 36 q-11.5 15 -29.5 23.5 q-18 8.5 -45 8.5 q-17 0 -36 -8 q-19 -8 -37 -20.5 q-18 -12.5 -35 -29 q-17 -16.5 -30 -33.5 l0 -75 q0 -12 0 -30 q0 -18 0 -37.5 q0 -19.5 0.5 -38.5 q0.5 -19 0.5 -32 q0 -6 -6 -8 q-5 -1 -12.5 -1.5 q-7.5 -0.5 -11.5 0.5 q-5 0 -5 7 l0 33 q0 10 0.5 19 q0.5 9 0.5 16 q1 19 1 37 q0 18 0 35 l0 222 q0 10 0 24.5 q0 14.5 -1 27.5 q0 7 -0.5 13.5 q-0.5 6.5 -0.5 13.5 l0 22 q0 6 6 8 q5 1 13 1 q8 0 13 -1 q5 -2 5 -9 q0 -20 -0.5 -48 q-0.5 -28 -2.5 -49 l0 -117 Z" /><glyph glyph-name="" unicode="i" d="M99 338 q0 6 3 8 q5 1 13 1 q8 0 13 -1 l0 -25 q0 -8 -0.5 -16 q-0.5 -8 -0.5 -16 l0 -46 q0 -11 0.5 -26.5 q0.5 -15.5 0.5 -30.5 l0 -53 q0 -8 0.5 -19 q0.5 -11 0.5 -23 q1 -18 1 -39 q0 -21 0 -29 q0 -6 -4 -8 q-5 -1 -13 -1.5 q-8 -0.5 -13 -0.5 q-2 0 -2.5 17 q-0.5 17 -0.5 30 q0 11 0 23.5 q0 12.5 1 25.5 q0 5 0.5 13 q0.5 8 0.5 12 l0 204 ZM88 461 q0 11 7.5 20 q7.5 9 18.5 9 q11 0 19 -9 q8 -9 8 -20 q0 -10 -8 -18 q-8 -8 -19 -8 q-11 0 -18.5 8 q-7.5 8 -7.5 18 Z" /><glyph glyph-name="" unicode="j" d="M131 -12 q0 -14 -1 -32.5 q-1 -18.5 -5.5 -38 q-4.5 -19.5 -13.5 -38.5 q-9 -19 -25 -35 q-17 -16 -41.5 -27.5 q-24.5 -11.5 -39.5 -13.5 q-5 -1 -11 0 q-6 1 -10 6 q-2 2 -4.5 6.5 q-2.5 4.5 -4.5 14.5 q-1 4 1 6 l1 1 q36 4 64.5 18 q28.5 14 40.5 34 q8 16 12.5 40.5 q4.5 24.5 5.5 41.5 q0 24 0 62.5 q0 38.5 -0.5 77.5 q-0.5 39 -0.5 70.5 q0 31.5 0 41.5 l0 19 q0 7 -0.5 15 q-0.5 8 -0.5 16 q-1 14 -1 33 q0 19 0 32 q-2 4 1 6 q3 2 5 2 l25 0 q5 0 5 -7 q0 -8 -1 -24 q-1 -16 -1.5 -34 q-0.5 -18 -1 -34 q-0.5 -16 -0.5 -23 q0 -31 0 -53 q0 -22 0 -46 q0 -24 0.5 -55.5 q0.5 -31.5 1.5 -81.5 ZM90 461 q0 11 8 20 q8 9 19 9 q11 0 18.5 -9 q7.5 -9 7.5 -20 q0 -10 -7.5 -18 q-7.5 -8 -18.5 -8 q-12 0 -19.5 8 q-7.5 8 -7.5 18 Z" /><glyph glyph-name="" unicode="k" d="M110 179 q17 14 38.5 31 q21.5 17 40.5 33 q22 18 44 38 q17 15 31 27 q12 11 23 20 q11 9 14 12 q4 4 10 6 q5 2 15.5 2 q10.5 0 17.5 -1 q2 -1 3.5 -3.5 q1.5 -2.5 -1.5 -6.5 l-27 -22 q-5 -5 -12.5 -11 q-7.5 -6 -12.5 -10 l-19 -15 l0 1 q-8 -7 -24 -21 q-16 -14 -36 -30 l-40 -33 l13 8 l99 -101 l50 -47 l17 -16 l0 1 q5 -4 6 -6 q1 -2 6 -6 q5 -5 5.5 -10 q0.5 -5 -1.5 -6 q-9 -1 -20.5 -1.5 q-11.5 -0.5 -19.5 0.5 q-3 1 -6 2 q-3 1 -8 6 l-75 81 q-7 8 -17.5 20 q-10.5 12 -22 24.5 q-11.5 12.5 -22 23.5 q-10.5 11 -16.5 17 l-53 -44 q0 -7 0.5 -14.5 q0.5 -7.5 0.5 -15.5 q0 -24 0.5 -49.5 q0.5 -25.5 1.5 -39.5 l0 1 q2 -3 -0.5 -5.5 q-2.5 -2.5 -4.5 -3.5 q-5 -1 -12 -1.5 q-7 -0.5 -12 0.5 q-8 0 -5 8 l0 -1 q0 6 0.5 20 q0.5 14 1 33 q0.5 19 0.5 41.5 q0 22.5 0 46.5 l0 186 q0 12 -0.5 32 q-0.5 20 -0.5 40.5 q0 20.5 0 36.5 q0 16 0 20 q0 10 4 12 q5 1 13 1 q8 0 13 -1 q3 -2 3 -12 l0 -15 q0 -9 -0.5 -21 q-0.5 -12 -0.5 -20 q-1 -22 -1 -43 q0 -21 0 -29 l-1 -170 Z" /><glyph glyph-name="" unicode="l" d="M130 169 q0 -10 0 -32 q0 -22 1 -42 q0 -14 0.5 -27 q0.5 -13 0.5 -24 l0 -22 q0 -6 -4 -8 q-4 -1 -12.5 -1 q-8.5 0 -13.5 0 q-5 0 -5 8 q0 11 0 32 q0 21 1 44 q0 11 0.5 26.5 q0.5 15.5 0.5 23.5 l0 283 q0 8 -0.5 15 q-0.5 7 -0.5 14 l0 22 q0 4 4 8 l22 0 q2 -2 3.5 -4 q1.5 -2 1.5 -4 l0 -22 q0 -7 -0.5 -14 q-0.5 -7 -0.5 -15 l0 -49 q0 -3 0 -14 q0 -11 0 -26.5 q0 -15.5 0.5 -34 q0.5 -18.5 0.5 -37.5 q0 -45 1 -100 Z" /><glyph glyph-name="" unicode="m" d="M240 353 q38 0 68 -21.5 q30 -21.5 44 -56.5 q31 35 68 56.5 q37 21.5 76 21.5 q30 0 51 -10 q21 -10 34.5 -26.5 q13.5 -16.5 20 -38 q6.5 -21.5 8.5 -45.5 q2 -16 1.5 -31.5 q-0.5 -15.5 -0.5 -25.5 l0 -17 q0 -8 0 -28.5 q0 -20.5 1 -40.5 q0 -14 0.5 -27 q0.5 -13 0.5 -24 l0 -18 q0 -3 -3 -5 q-3 -2 -5 -3 q-3 -1 -10.5 -1.5 q-7.5 -0.5 -10.5 0.5 q-4 2 -4 8 q0 8 0 28 q0 20 0.5 42 q0.5 22 1 41.5 q0.5 19.5 0.5 27.5 l0 52 q-2 25 -7.5 46 q-5.5 21 -16.5 36 q-11 15 -29.5 23.5 q-18.5 8.5 -45.5 8.5 q-29 0 -60.5 -20 q-31.5 -20 -47.5 -46 q-9 -17 -14 -33 q-3 -9 -5 -18 q-1 -25 -1 -49.5 q0 -24.5 0 -35.5 l0 -103 q0 -8 -5 -8 l-21 0 q-4 0 -4 8 l0 66 l1 125 q0 50 -21 82 q-21 32 -68 32 q-26 0 -46.5 -9.5 q-20.5 -9.5 -37.5 -25.5 q-17 -14 -32 -36.5 q-15 -22.5 -17 -45.5 l0 -129 q0 -6 0.5 -13 q0.5 -7 0.5 -14 l0 -30 q0 -5 -6 -7 q-5 -1 -13.5 -1.5 q-8.5 -0.5 -11.5 -0.5 q-2 0 -3.5 2.5 q-1.5 2.5 -0.5 5.5 l0 6 q0 2 0.5 4 q0.5 2 0.5 4 q1 17 1.5 33.5 q0.5 16.5 0.5 23.5 l0 124 l-4 123 q-1 7 3 8 q4 1 13.5 1 q9.5 0 14.5 -1 q5 -2 5 -8 l0 -74 q28 41 63.5 64 q35.5 23 70.5 24 l1 0 Z" /><glyph glyph-name="" unicode="n" d="M347 211 q1 50 -21.5 82 q-22.5 32 -76.5 32 q-17 0 -35.5 -8 q-18.5 -8 -36.5 -20.5 q-18 -12.5 -35 -29 q-17 -16.5 -31 -33.5 l0 -17 l0 -125 q0 -5 0 -17 q0 -12 1 -23 q0 -6 0.5 -11.5 q0.5 -5.5 0.5 -10.5 l0 -7 q2 -4 -1 -6 q-3 -2 -5 -2 q-5 -1 -13 -1.5 q-8 -0.5 -12 -0.5 q-5 0 -5 8 q0 5 0.5 12.5 q0.5 7.5 1.5 14.5 l0 6 q1 12 1.5 22.5 q0.5 10.5 0.5 15.5 l0 124 l-4 123 q-2 8 5 8 q6 1 13.5 1 q7.5 0 12.5 -1 q5 -2 5 -8 l-1 -70 q9 11 18.5 22 q9.5 11 14.5 14 q19 17 46.5 32.5 q27.5 15.5 70.5 15.5 q30 0 51.5 -10 q21.5 -10 36 -26.5 q14.5 -16.5 21.5 -38.5 q7 -22 7 -45 l0 -155 q0 -6 0.5 -13 q0.5 -7 0.5 -14 l0 -30 q0 -6 -4 -7 q-5 -1 -13.5 -1 q-8.5 0 -13.5 0 q-5 0 -5 6 l0 10 q0 3 0.5 6 q0.5 3 0.5 5 q1 16 1.5 30.5 q0.5 14.5 0.5 20.5 l1 120 Z" /><glyph glyph-name="" unicode="o" d="M45 179 q0 32 6 53.5 q6 21.5 15 38.5 q22 36 66 58 q44 22 96 22 q36 0 63 -8.5 q27 -8.5 47 -21.5 q20 -13 33.5 -29.5 q13.5 -16.5 21.5 -31.5 q8 -16 13 -36.5 q5 -20.5 5 -44.5 q0 -28 -10 -62 q-10 -34 -35 -57 q-32 -30 -64.5 -43 q-32.5 -13 -73.5 -13 q-49 0 -87 18 q-38 18 -61 44 q-16 18 -25.5 45.5 q-9.5 27.5 -9.5 67.5 ZM81 179 q0 -29 7.5 -52.5 q7.5 -23.5 19.5 -42.5 q18 -26 49 -37.5 q31 -11.5 71 -11.5 q34 0 63.5 9 q29.5 9 50.5 35 q20 25 26 54 q6 29 6 46 q0 7 -2 19.5 q-2 12.5 -6 26 q-4 13.5 -9.5 26.5 q-5.5 13 -12.5 23 q-17 20 -44 35.5 q-27 15.5 -72 15.5 q-48 0 -76.5 -16.5 q-28.5 -16.5 -42.5 -34.5 q-19 -24 -23.5 -51.5 q-4.5 -27.5 -4.5 -43.5 Z" /><glyph glyph-name="" unicode="p" d="M102 275 q7 11 19 24.5 q12 13.5 29.5 25.5 q17.5 12 39.5 20.5 q22 8.5 48 8.5 q37 0 66 -13.5 q29 -13.5 49.5 -37.5 q20.5 -24 31 -57 q10.5 -33 10.5 -73 q0 -33 -9.5 -63 q-9.5 -30 -29 -53 q-19.5 -23 -49 -37 q-29.5 -14 -69.5 -14 q-37 0 -74.5 24 q-37.5 24 -61.5 62 l0 -100 q0 -9 0 -28.5 q0 -19.5 0 -42.5 q0 -23 0.5 -47.5 q0.5 -24.5 1.5 -42.5 q0 -7 -6 -9 q-6 -1 -15 -1.5 q-9 -0.5 -11 -0.5 q-4 0 -4 8 l2 83 q0 20 0.5 40 q0.5 20 1.5 41 l0 242 q-1 15 -1.5 34.5 q-0.5 19.5 -0.5 34.5 q0 5 -0.5 9.5 q-0.5 4.5 -0.5 9.5 l0 17 q0 5 4 7 q5 1 11.5 1.5 q6.5 0.5 9.5 -0.5 q9 -2 8 -8 l0 -64 ZM366 173 q0 26 -7 53.5 q-7 27.5 -22 50 q-15 22.5 -39.5 36.5 q-24.5 14 -59.5 14 q-34 0 -59 -14.5 q-25 -14.5 -41 -37 q-16 -22.5 -23.5 -50 q-7.5 -27.5 -7.5 -52.5 q0 -33 13.5 -58.5 q13.5 -25.5 33 -43 q19.5 -17.5 42.5 -26.5 q23 -9 42 -9 q24 0 47 8.5 q23 8.5 41 25.5 q18 17 29 42.5 q11 25.5 11 60.5 Z" /><glyph glyph-name="" unicode="q" d="M329 339 q-1 6 8 8 q3 1 9.5 0.5 q6.5 -0.5 11.5 -1.5 q4 -2 4 -7 l0 -17 q0 -5 -0.5 -9.5 q-0.5 -4.5 -0.5 -9.5 q0 -17 -0.5 -34.5 q-0.5 -17.5 -1.5 -34.5 l0 -242 q1 -19 1.5 -41 q0.5 -22 0.5 -40 l2 -83 q0 -8 -4 -8 q-2 0 -11 0.5 q-9 0.5 -15 1.5 q-6 2 -6 9 q1 18 1.5 42.5 q0.5 24.5 0.5 47.5 q0 23 0 42.5 q0 19.5 0 28.5 l0 100 q-24 -38 -61.5 -62 q-37.5 -24 -74.5 -24 q-40 0 -69.5 14 q-29.5 14 -49 37 q-19.5 23 -29 53 q-9.5 30 -9.5 63 q0 40 10.5 73 q10.5 33 31 57 q20.5 24 49.5 37.5 q29 13.5 66 13.5 q26 0 48 -8.5 q22 -8.5 39.5 -20.5 q17.5 -12 29.5 -25.5 q12 -13.5 19 -24.5 l0 64 ZM65 173 q0 -35 11 -60.5 q11 -25.5 29 -42.5 q18 -17 41 -25.5 q23 -8.5 47 -8.5 q19 0 42 9 q23 9 42.5 26.5 q19.5 17.5 33 43 q13.5 25.5 13.5 58.5 q0 25 -7.5 52.5 q-7.5 27.5 -23.5 50 q-16 22.5 -41 37 q-25 14.5 -59 14.5 q-35 0 -59.5 -14 q-24.5 -14 -39.5 -36.5 q-15 -22.5 -22 -50 q-7 -27.5 -7 -53.5 Z" /><glyph glyph-name="" unicode="r" d="M109 234 l0 -133 q0 -8 0.5 -16.5 q0.5 -8.5 0.5 -16.5 l0 -45 q0 -6 -7 -8 q-4 -1 -10.5 -1.5 q-6.5 -0.5 -9.5 -0.5 q-5 2 -5 9 l0 12 q0 7 0.5 15 q0.5 8 0.5 14 q1 15 1 30 q0 15 0 24 l0 128 q-1 4 -1 10.5 q0 6.5 0 12.5 q0 6 -0.5 12.5 q-0.5 6.5 -0.5 11.5 q0 7 -0.5 14 q-0.5 7 -0.5 14 l0 18 q0 6 6 8 q4 1 11.5 1 q7.5 0 10.5 -1 q6 0 6 -8 l-2 -66 q20 32 50 52.5 q30 20.5 56 25.5 q7 2 15 2.5 q8 0.5 13 0.5 q2 -4 2 -11 q0 -7 -0.5 -13.5 q-0.5 -6.5 -2.5 -9.5 l-7 -7 q-14 2 -33 -1 q-19 -3 -38 -14 q-13 -8 -27 -23.5 q-14 -15.5 -21 -25.5 l-7 -14 Z" /><glyph glyph-name="" unicode="s" d="M48 63 q4 7 12 3 q16 -10 44 -20.5 q28 -10.5 59 -10.5 q42 0 64 21 q22 21 22 47 q0 14 -10 25.5 q-10 11.5 -25 21 q-15 9.5 -33 17 q-18 7.5 -34 12.5 q-18 7 -35.5 15 q-17.5 8 -30.5 19.5 q-13 11.5 -21 26.5 q-8 15 -8 36 q0 32 32 54.5 q32 22.5 82 22.5 q19 0 39 -2.5 q20 -2.5 37 -8.5 q3 -2 5.5 -4 q2.5 -2 1.5 -8 q0 -7 -3 -14 q-2 -4 -2 -5 q-1 -5 -5 -4 q-4 1 -6 3 l0 -1 q-19 11 -33 14.5 q-14 3.5 -34 3.5 q-29 0 -46 -6 q-17 -6 -26 -14.5 q-9 -8.5 -12 -17 q-3 -8.5 -3 -13.5 q0 -14 10 -26 q10 -12 23.5 -21 q13.5 -9 28.5 -15.5 q15 -6.5 26 -10.5 l16 -6 q17 -6 34 -13.5 q17 -7.5 30.5 -18 q13.5 -10.5 22 -25.5 q8.5 -15 8.5 -37 q0 -45 -33 -71 q-33 -26 -84 -26 q-33 0 -61.5 7 q-28.5 7 -48.5 15 q-6 1 -6 12 q0 9 0.5 13.5 q0.5 4.5 2.5 9.5 Z" /><glyph glyph-name="" unicode="t" d="M84 314 l-51 0 q-5 0 -5 5 l0 11 q0 11 6 11 q3 0 9 -0.5 q6 -0.5 12 -0.5 l15 0 l15 0 q0 12 -0.5 28.5 q-0.5 16.5 -0.5 31.5 q-1 18 -1 36 q0 8 8 8 q4 1 10 1 q6 0 9 -1 q6 -2 6 -8 l-3 -96 l73 0 q3 0 6.5 0.5 q3.5 0.5 6.5 0.5 q5 0 5.5 -3 q0.5 -3 0.5 -4 q0 -5 -1 -12.5 q-1 -7.5 -7 -8.5 l-31 1 l-53 0 q0 -42 0.5 -83 q0.5 -41 0.5 -82 q2 -30 6 -53.5 q4 -23.5 19 -35.5 q12 -11 31.5 -15 q19.5 -4 53.5 -5 q-1 -6 -3 -13.5 q-2 -7.5 -4 -9.5 q-7 -10 -10 -11 q-7 0 -19 1.5 q-12 1.5 -26 5.5 q-14 4 -28 11.5 q-14 7.5 -25 19.5 q-9 11 -14.5 28.5 q-5.5 17.5 -8 37 q-2.5 19.5 -3.5 38.5 q-1 19 -1 33 l2 133 Z" /><glyph glyph-name="" unicode="u" d="M377 21 q1 -2 -5 -8 l-25 0 q-2 1 -4 3.5 q-2 2.5 -2 4.5 l0 68 q-9 -11 -18 -22 q-9 -11 -14 -14 q-20 -17 -47 -32 q-27 -15 -71 -15 q-30 0 -51.5 10 q-21.5 10 -35.5 26.5 q-14 16.5 -21 38.5 q-7 22 -7 45 q0 34 0 57.5 q0 23.5 0.5 39 q0.5 15.5 0.5 24.5 q0 9 0 14 l0 77 q0 8 5 8 q4 1 10.5 1 q6.5 0 10.5 -1 q5 -3 5 -8 q-1 -8 -1 -17 q0 -9 0 -17 l0 -32 l-1 -125 q0 -50 22 -81.5 q22 -31.5 77 -31.5 q17 0 35.5 7.5 q18.5 7.5 36.5 20 q18 12.5 35 28.5 q17 16 30 34 l0 159 q0 6 -0.5 12.5 q-0.5 6.5 -0.5 13.5 l0 30 q-1 4 6 8 l25 0 q4 0 4 -6 l0 -9 q0 -3 -0.5 -6.5 q-0.5 -3.5 -0.5 -6.5 q-1 -15 -1.5 -29.5 q-0.5 -14.5 -0.5 -20.5 l0 -124 l4 -124 Z" /><glyph glyph-name="" unicode="v" d="M195 13 q-7 2 -12 12 q-7 14 -13 27.5 q-6 13.5 -12 27.5 l-10 24 q-24 54 -53 118 q-29 64 -57 118 q-1 3 0 4 q0 1 1 2 q5 1 15 1 q10 0 16 -1 q6 -2 11 -7 q32 -82 63 -154.5 q31 -72.5 60 -132.5 q24 43 45 89 q21 46 38 86 q1 3 3 7.5 q2 4.5 4 7.5 l10 24 q9 21 16.5 39.5 q7.5 18.5 14.5 32.5 l0 -1 q1 4 4.5 6 q3.5 2 6.5 3 q14 2 25 0 q2 -1 2 -4 l0 -3 q-11 -23 -22 -46 q-11 -23 -22 -46 l-22 -46 q-22 -45 -42.5 -88 q-20.5 -43 -40.5 -88 q-5 -8 -11 -12 l-18 0 Z" /><glyph glyph-name="" unicode="w" d="M172 11 q-4 2 -9 10 l-11 28 l-6 14 l0 -1 l-7 17 l-16 39 l-21 51 l-21 50 q-14 30 -27 61 q-13 31 -24 60 l2 4 q2 4 4 4 q4 1 10.5 1 q6.5 0 10.5 -1 q2 0 6 -1.5 q4 -1.5 6 -6.5 q17 -52 41 -110.5 q24 -58.5 44 -107.5 q4 -8 9 -19.5 q5 -11.5 7 -18.5 l12 -32 q31 68 63 144.5 q32 76.5 55 140.5 l0 -1 q2 11 10 11 l19 0 q8 0 10 -9 l0 1 q11 -35 22.5 -68.5 q11.5 -33.5 24 -68 q12.5 -34.5 27 -71 q14.5 -36.5 31.5 -78.5 q27 59 49 108.5 q22 49.5 37 82.5 l8 19 l9 21 q4 9 9 21 q5 12 10 21 l6 11 l0 -1 q1 4 5 6.5 q4 2.5 7 4.5 q4 1 9.5 1.5 q5.5 0.5 8.5 -0.5 q2 -1 5 -3.5 q3 -2.5 1 -6.5 q-26 -54 -55.5 -114.5 q-29.5 -60.5 -52.5 -113.5 q0 -1 -0.5 -2 q-0.5 -1 -0.5 -2 l-15 -34 q-3 -3 -3 -6 l-23 -48 q-5 -7 -11 -7 l-10 0 q-7 0 -11 10 l-43 112 l-38 99 q-4 9 -7.5 19.5 q-3.5 10.5 -6.5 19.5 l-13 35 q-8 -17 -16 -37.5 q-8 -20.5 -18 -43.5 q-4 -11 -9.5 -23.5 q-5.5 -12.5 -9.5 -21.5 l-6 -16 l-34 -81 l-14 -35 l-5 -11 q-1 -1 -1 -2 l0 -1 q-1 -7 -5 -13 q-4 -5 -7.5 -7.5 q-3.5 -2.5 -4.5 -2.5 l-16 0 Z" /><glyph glyph-name="" unicode="x" d="M50 24 q11 14 24.5 28.5 q13.5 14.5 27.5 29.5 l-1 0 q21 25 42 50 q21 25 43 50 l-92 113 l-17 19 l-17 21 q-3 4 -3 7.5 q0 3.5 4 3.5 l24 0 q10 -3 16 -10 l25 -32 l80 -98 q21 25 42 49 q21 24 41 49 q6 8 12.5 16.5 q6.5 8.5 12.5 15.5 q6 7 16 10 l24 0 q4 0 4 -3.5 q0 -3.5 -3 -7.5 q-4 -5 -8.5 -10.5 q-4.5 -5.5 -8.5 -10.5 l-17 -19 q-23 -28 -46.5 -57 q-23.5 -29 -46.5 -58 l81 -98 l-1 0 q14 -15 27.5 -29.5 q13.5 -14.5 24.5 -28.5 l-1 0 q8 -9 1 -11 l-31 0 q-3 1 -7 3 q-4 2 -7 6 l-40 51 l-68 83 l-72 -83 l-40 -51 q-6 -7 -14 -9 l-31 0 q-2 1 -2.5 4 q-0.5 3 3.5 7 l-1 0 Z" /><glyph glyph-name="" unicode="y" d="M343 334 q4 8 7.5 10 q3.5 2 5.5 2 q5 1 12 1 q7 0 10 -1 q5 -1 5.5 -5.5 q0.5 -4.5 -1.5 -8.5 q-2 -5 -4 -10 q-2 -5 -7 -13 q-4 -7 -9 -18 q-5 -11 -9 -17 q-18 -35 -34.5 -68.5 q-16.5 -33.5 -37.5 -75.5 q-21 -42 -48.5 -98 q-27.5 -56 -66.5 -135 l-17 -35 l-18 -33 q-2 -2 -6 -5.5 q-4 -3.5 -6 -3.5 l-24 0 q-8 3 -1 12 l12 22 l15 26 l15 27 q7 12 21 37 q14 25 34 65 l-114 241 l-38 79 q-2 5 -2.5 10 q-0.5 5 3.5 7 l27 0 q2 -1 5.5 -4 q3.5 -3 5.5 -8 l21 -52 l108 -243 q42 85 110 235 l26 60 Z" /><glyph glyph-name="" unicode="z" d="M53 38 q32 34 73 82 q41 48 83 99 l78 92 l-212 0 q-4 0 -6 5 q-1 2 -1 7.5 q0 5.5 1 8.5 q2 7 6 7 l259 0 q3 0 4.5 -4 q1.5 -4 -3.5 -11 l-23 -27 l-214 -252 l104 0 q13 0 35.5 0.5 q22.5 0.5 45.5 0.5 q23 0 41.5 0 q18.5 0 24.5 0 q4 0 4 -9.5 q0 -9.5 -1 -11.5 l0 1 q-2 -9 -5 -9 l-290 0 q-8 0 -8.5 8 q-0.5 8 4.5 13 Z" /><glyph glyph-name="" unicode="{" d="M64 167 q0 7 6 9 q23 5 36 22 q15 22 15 54 l0 175 q0 47 13 60 q16 16 40 16 l34 0 q3 0 3 -6 l0 -14 q0 -4 -5 -6 q-11 0 -23 -2 q-12 -2 -18 -8 q-11 -11 -13 -25.5 q-2 -14.5 -2 -28.5 l0 -156 q0 -17 -3 -30.5 q-3 -13.5 -9 -21.5 q-8 -10 -22 -19 q-14 -9 -38 -17 q25 -8 38.5 -17 q13.5 -9 21.5 -20 q12 -20 12 -53 l0 -160 q0 -14 2 -29.5 q2 -15.5 13 -26.5 q6 -6 18 -8.5 q12 -2.5 23 -3.5 q5 -3 5 -6 l0 -16 q0 -7 -5 -7 l-32 0 q-12 0 -22 4.5 q-10 4.5 -18 11.5 q-13 16 -13 60 l0 185 q0 15 -3.5 29.5 q-3.5 14.5 -11.5 25.5 q-12 16 -37 23 q-5 2 -5 6 Z" /><glyph glyph-name="" unicode="|" d="M125 488 q0 5 3 5 l17 0 q4 0 4 -5 l0 -478 q0 -6 -4 -6 l-17 0 q-3 0 -3 6 l0 478 Z" /><glyph glyph-name="" unicode="}" d="M211 167 q0 -4 -5 -6 q-25 -7 -37 -23 q-8 -11 -11.5 -25.5 q-3.5 -14.5 -3.5 -29.5 l0 -185 q0 -44 -13 -60 q-8 -7 -18 -11.5 q-10 -4.5 -22 -4.5 l-32 0 q-5 0 -5 7 l0 16 q0 3 5 6 q11 1 23 3.5 q12 2.5 18 8.5 q11 11 13 26.5 q2 15.5 2 29.5 l0 160 q0 33 12 53 q8 11 21.5 20 q13.5 9 38.5 17 q-24 8 -38 17 q-14 9 -22 19 q-6 8 -9 21.5 q-3 13.5 -3 30.5 l0 156 q0 14 -2 28.5 q-2 14.5 -13 25.5 q-6 6 -18 8 q-12 2 -23 2 q-5 2 -5 6 l0 14 q0 6 3 6 l34 0 q24 0 40 -16 q13 -13 13 -60 l0 -175 q0 -32 15 -54 q13 -17 36 -22 q6 -2 6 -9 Z" /><glyph glyph-name="" unicode="~" d="M164 511 q-31 0 -44.5 -8.5 q-13.5 -8.5 -29.5 -21.5 q-2 -1 -4 -2 q-2 -1 -6 6 q-4 8 1 13 q15 18 37.5 31.5 q22.5 13.5 44.5 13.5 q19 0 37 -6 q18 -6 35 -14 l23 -10 l-1 0 q15 -7 35 -13.5 q20 -6.5 46 -6.5 q23 0 39.5 9.5 q16.5 9.5 29.5 23.5 q2 2 4 0 q2 -2 4 -5 q5 -8 -1 -16 q-14 -17 -34 -31 q-20 -14 -43 -14 q-23 0 -45 9 q-22 9 -43 18 q-19 9 -40.5 16.5 q-21.5 7.5 -44.5 7.5 Z" /><glyph glyph-name="" unicode="&#x3c9;" d="M797 205 q-16 -179 -184 -179 q-82 0 -117 66 q-31 -66 -113 -66 q-164 0 -180 179 q8 204 172 243 q12 0 12 -8 q0 -4 -12 -16 q-74 -70 -74 -203 q4 -164 90 -168 q74 4 78 74 q0 24 -12 67 q-16 54 -16 86 q0 58 55 58 q59 0 59 -58 q0 -32 -12 -86 q-12 -43 -12 -67 q4 -70 74 -74 q90 4 94 168 q0 133 -74 203 q-12 12 -12 16 q0 12 12 8 q164 -43 172 -243 Z" /><glyph glyph-name="" unicode="&#x2013;" d="M314 103 q-3 0 -3 6 l0 13 q0 6 3 6 l372 0 q3 0 3 -6 l0 -13 q0 -6 -3 -6 l-372 0 Z" /><glyph glyph-name="" unicode="&#x2014;" d="M105 103 q-3 0 -3 6 l0 13 q0 6 3 6 l789 0 q3 0 3 -6 l0 -13 q0 -6 -3 -6 l-789 0 Z" /><glyph glyph-name="" unicode="&#x201c;" d="M715 532 q0 13 4.5 28 q4.5 15 12.5 28.5 q8 13.5 18.5 25.5 q10.5 12 22.5 20 q1 1 2 -1.5 q1 -2.5 0 -4.5 q-17 -18 -24.5 -33 q-7.5 -15 -9.5 -24 l-1 -2 l0 -2 q-2 -22 19 -32 q7 -2 10 -7.5 q3 -5.5 1 -10.5 q-1 -5 -8 -8.5 q-7 -3.5 -15 -3.5 q-14 2 -22.5 7.5 q-8.5 5.5 -9.5 19.5 ZM624 532 q0 13 5 28 q5 15 14 28.5 q9 13.5 20.5 25.5 q11.5 12 23.5 20 q1 1 2 -1.5 q1 -2.5 0 -4.5 q-34 -37 -39 -57 l-1 -2 l0 -2 q-2 -22 19 -32 q7 -2 10 -7.5 q3 -5.5 1 -10.5 q-1 -5 -8 -8.5 q-7 -3.5 -15 -3.5 q-14 2 -22.5 7.5 q-8.5 5.5 -9.5 19.5 Z" /><glyph glyph-name="" unicode="&#x201d;" d="M275 575 q0 -14 -4.5 -28.5 q-4.5 -14.5 -12.5 -28 q-8 -13.5 -18.5 -25.5 q-10.5 -12 -22.5 -20 q-1 -1 -2 1.5 q-1 2.5 0 4.5 q17 18 24.5 33 q7.5 15 9.5 24 l0 2 q0 1 1 2 q2 22 -19 32 q-7 2 -10 7.5 q-3 5.5 -1 10.5 q1 5 8 8.5 q7 3.5 15 3.5 q14 -2 22.5 -7.5 q8.5 -5.5 9.5 -19.5 ZM362 575 q0 -14 -5 -28.5 q-5 -14.5 -14 -28 q-9 -13.5 -20.5 -25.5 q-11.5 -12 -23.5 -20 q-1 -1 -2 1.5 q-1 2.5 0 4.5 q34 37 39 57 l0 2 q0 1 1 2 q2 22 -19 32 q-7 2 -10 7.5 q-3 5.5 -1 10.5 q1 5 8 8.5 q7 3.5 15 3.5 q14 -2 22.5 -7.5 q8.5 -5.5 9.5 -19.5 Z" /><glyph glyph-name="" unicode="&#x2299;" d="M500 297 q-51 8 -59 58 q8 55 59 59 q55 -4 59 -59 q-4 -50 -59 -58 ZM500 781 q413 -40 453 -454 q-39 -405 -453 -445 q-416 41 -454 445 q39 414 454 454 ZM500 739 q-375 -36 -410 -412 q34 -366 410 -403 q374 37 409 403 q-36 375 -409 412 Z" /><glyph glyph-name="" unicode="&#x2570;" d="M1000 303 l0 -32 q-468 43 -511 510 l33 0 q41 -438 478 -478 Z" /><glyph glyph-name="" unicode="&#x25bd;" d="M797 691 l-594 0 l297 -598 l297 598 ZM500 0 l-363 734 l726 0 l-363 -734 Z" /><glyph glyph-name="" unicode="&#x3002;" d="M201 49 q0 14 -11.5 22 q-11.5 8 -27.5 8 q-16 0 -27 -8 q-11 -8 -11 -22 q0 -13 11 -22 q11 -9 27 -9 q16 0 27.5 9 q11.5 9 11.5 22 ZM162 -8 q-26 0 -44 15 q-18 15 -18 42 q0 25 18 41 q18 16 44 16 q26 0 44.5 -16.5 q18.5 -16.5 18.5 -41.5 q0 -26 -18.5 -41 q-18.5 -15 -44.5 -15 Z" /><glyph glyph-name="" unicode="&#x3012;" d="M490 362 l-292 0 q-2 0 -2 6 l0 14 q0 6 2 6 l602 0 q4 0 4 -6 l0 -14 q0 -6 -4 -6 l-290 0 l0 -311 q0 -7 -3 -7 l-15 0 q-2 0 -2 7 l0 311 ZM198 541 q-2 0 -2 5 l0 13 q0 7 2 7 l602 0 q4 0 4 -7 l0 -13 q0 -5 -4 -5 l-602 0 Z" /><glyph glyph-name="" unicode="&#x306e;" d="M598 -44 l-8 0 l4 8 q265 131 277 358 q-27 293 -332 312 q-16 0 -35 0 q70 -55 51 -113 q-12 -12 -28 -43 q-4 -12 -7 -20 q-223 -409 -325 -437 q-101 39 -129 230 q63 364 477 414 q375 -23 391 -351 q-4 -277 -336 -358 ZM504 587 l-20 43 q-339 -117 -386 -379 q39 -156 105 -164 q246 250 301 500 Z" /><glyph glyph-name="" unicode="&#x3078;" d="M20 322 q7 0 19 -8 q16 -8 24 -8 q46 0 121 66 q4 4 7 8 q39 39 79 74 q62 63 105 59 q63 0 156 -94 q12 -15 16 -19 q27 -28 62 -59 q12 -8 36 -27 q23 -16 31 -27 q94 -67 195 -122 q35 -15 74 -39 q16 -7 32 -31 q7 -35 -8 -47 q-20 -11 -59 8 q-31 16 -82 47 q-187 121 -301 250 q-4 4 -11 12 q-39 58 -71 82 q-54 47 -97 23 q-35 -16 -98 -82 q-8 -8 -12 -12 q-4 -4 -11 -15 q-36 -43 -43 -71 q-4 -3 -8 -11 q-4 -20 -16 -28 q-4 -4 -23 -4 q-28 0 -82 28 q0 0 -8 8 q-27 23 -27 39 Z" /><glyph glyph-name="" unicode="&#x30c8;" d="M398 388 l0 -117 q0 -55 8 -168 q4 -55 4 -82 q4 -27 4 -49 l0 -16 q0 -19 -4 -37 q-4 -57 -31 -65 q-12 4 -20 23 q-15 28 -23 79 q-4 12 0 22 q4 12 4 16 q12 54 12 148 l0 520 q0 35 -12 50 q-4 16 -31 39 q-12 8 -16 12 q12 8 31 8 q55 -4 98 -55 q23 -31 16 -54 q-20 -12 -28 -28 q-8 -35 -8 -78 q-4 -55 -4 -113 l0 -35 q63 -12 122 -28 q89 -31 136 -62 q47 -35 51 -74 q0 -36 -35 -36 q-16 0 -43 28 q-4 4 -4 4 q-23 27 -47 50 q-35 36 -70 51 q-51 31 -110 47 Z" /><glyph glyph-name="" unicode="&#x30eb;" d="M23 -55 l-7 0 q125 119 207 369 q66 219 -12 258 l8 15 q86 -23 117 -66 q0 -12 -12 -24 q-4 -3 -8 -7 q-50 -375 -293 -545 ZM547 486 l0 -395 q172 51 437 293 l0 -8 q-121 -199 -406 -375 q-15 -15 -27 -15 q-51 8 -78 90 q-4 7 19 39 q4 58 4 164 l0 254 q0 43 -43 78 q-12 11 -12 15 q79 12 137 -74 q0 -12 -12 -23 q-19 -20 -19 -43 Z" /><glyph glyph-name="" unicode="&#x30fc;" d="M198 288 l200 0 q249 -1 422 21 q6 0 14 1 q35 6 53 -1 q43 -21 26 -56 q-9 -15 -35 -15 q-11 0 -32 3 q-5 0 -7 1 q-64 9 -108 9 l-429 0 q-39 0 -91 -13 q-10 -2 -19 -5 q-26 -7 -39 -6 l-5 0 q-96 52 -86 117 q63 -55 136 -56 Z" /><glyph glyph-name="" unicode="&#x4e00;" d="M739 351 q14 -14 2 -29 q-10 -5 -20 -9 q-26 18 -60 18 q-102 -16 -221 -33 l0 -4 q-34 -8 -42 -8 l-4 -5 q-8 0 -30 -9 q-42 -4 -78 -11 q-12 7 -23 14 l-8 9 l-10 2 l0 22 q6 0 13 12.5 q7 12.5 17 0.5 q0 -13 5 -21 q10 -6 20 -10 q100 20 211 45 q79 10 116 16 q63 0 104 4 l8 -4 Z" /><glyph glyph-name="" unicode="&#x4e01;" d="M758 556 q22 0 42 -13 l2 -10 q-18 -24 -42 -19 l-9 17 q-75 -2 -144 -22 q-147 -49 -264 -87 q-65 -26 -128 -9 q-19 18 -11 40 l11 0 l15 -20 q64 -6 130 12 q96 33 195 65.5 q99 32.5 203 45.5 ZM572 478 q33 -60 28 -129 q-10 -55 -1 -110.5 q9 -55.5 9 -107.5 q-3 -49 -9 -62 q-17 -8 -25 -9 q-51 22 -105 27 q-13 11 -38 23 q22 2 106 0 q12 -6 26 -10 q4 4 9 8 q-11 129 -2 258 q-5 54 -21 110 l9 6 l14 -4 Z" /><glyph glyph-name="" unicode="&#x4e07;" d="M797 576 q16 -2 34 -2 q18 0 35 -13 q12 -25 -15 -38 l-10 0 q0 20 -3 29 q-70 0 -90 2 q-80 -23 -170 -43 q-8 -7 -53 -23 q-9 0 -16 0 l-2 -4 q-21 -8 -31 -8 l-4 -4 q-32 -12 -45 -12 l-3 -4 q-26 -9 -55 -16 l-1 -5 q-49 -15 -94.5 -28.5 q-45.5 -13.5 -94.5 -13.5 l-3 3 q-9 -3 -41 0 q-15 8 -10 24 q7 4 16 9 q47 -27 104 -7 q123 29 243 74 l4 4 q127 39 198 61 q53 6 107 15 ZM520 435 q16 -2 52 -13 q22 -18 47 -34 q20 -47 36 -73 q6 -27 15 -54 q-2 -28 -4 -55 q-16 -43 -31.5 -85.5 q-15.5 -42.5 -46.5 -75.5 q-16 -5 -30 -6 q1 17 -14 36 q-15 19 12 33 l7 -6 q2 -8 13 -20 l12 5 q17 35 39 76 q14 54 18 58 q0 26 2 44 q-10 41 -32 76 q-45 -26 -79 -49 q-3 -4 -24 -24 q-30 -29 -34 -31 l-38 -37 l-44 -30 l-10 -11 q-18 -14 -31 -20 l-6 -8 q-65 -51 -74 -53 l0 5 l31 24 l13 15 l26 19 l13 16 q48 31 86 77.5 q38 46.5 87 86.5 q6 18 26.5 30.5 q20.5 12.5 20.5 36.5 q-53 14 -78 23 l4 9 l16 15 Z" /><glyph glyph-name="" unicode="&#x4e0a;" d="M431 536 q22 -38 11 -81.5 q-11 -43.5 -2 -81.5 q18 7 32 -7 q82 28 98 36 q37 15 75 6 q23 -24 14 -57 l-5 -4 q-13 17 -27 37 l-25 2 l-3 -4 q-43 -4 -79 -27.5 q-36 -23.5 -77 -28.5 q-3 -5 -6 -11 q3 -45 14 -107 l13 -2 q14 -14 4 -31.5 q-10 -17.5 -3 -31.5 q176 6 337 14 q20 -3 42 -8 q34 -17 9 -37 q-9 -4 -20 -5 q-47 13 -94 22 q-89 -4 -98 0 l-2 -4 q-130 -5 -174 -6 q-97 -21 -191 -36 l-4 -3 q-103 0 -131 -4 q-17 14 4 31 q69 -15 138.5 0 q69.5 15 140.5 28 q5 4 9 8 q-11 63 -20 190 q6 100 6 176 q-17 5 -13 22 l14 8 l13 -3 Z" /><glyph glyph-name="" unicode="&#x4e0b;" d="M726 645 q15 -4 35 0 l5 -4 l4 4 q20 -14 8 -30 q-14 0 -22 -12.5 q-8 -12.5 -17 9.5 l-4 9 q-56 -6 -96 -11 l-6 -5 l-57 -9 l-4 -4 q-29 -6 -76 -14 l-8 -8 l19 -12 q13 -22 18 -35 q-13 -25 -3.5 -50.5 q9.5 -25.5 -9.5 -45.5 q0 -58 4 -74 q7 2 13 7 q18 -34 54 -38 l7 -7 q9 0 33 -13 l4 -4 q34 -24 90 -61 l14 -16 l17 -13 l0 -16 q-11 0 -18 -10 q-7 -10 -13 1 q-9 16 -16 29 q-27 13 -47.5 34.5 q-20.5 21.5 -46.5 31.5 l-11 10 q-26 9 -51 22 l-4 9 l-25 18 q-5 -18 -4.5 -37.5 q0.5 -19.5 -7.5 -31.5 q3 -64 8 -174 q-1 -34 -3 -65 q10 -23 5 -49 l-12 0 l-8 -8 q-6 -2 -14 0 q-15 27 -8 61 q-3 28 10 54 q-6 25 -15 70 q5 24 0 47 q5 22 11 35 q-4 4 -4 29 q4 7 8 18 q0 31 -6 63 q4 4 8 47 q-4 12 -2 44 q4 13 8 25 q2 33 -2 62 l-21 2 q-7 29 -5 34 q-29 2 -58 -2 q-53 -16 -96 -24 l-2 -6 q-56 -12 -83 -12 q-15 18 -8 42 l18 6 l4 -20 q4 -2 8 -4 q121 29 186 47 q149 27 292 51 l3 4 Z" /><glyph glyph-name="" unicode="&#x4e0d;" d="M580 586 q3 0 12 -6 q8 -41 -20 -71 q-63 -92 -141 -168 q2 -4 4 -8 q39 27 63 -11 q21 -65 22 -134 q-9 -69 -16 -139 q-16 -20 -32 -2 q0 18 0 39 q0 21 10 39 q0 67 0 134 q-8 21 -17 41 q-25 19 -48 -2 q-23 -18 -70 -51 l-21 -21 l-9 -3 l-42 -42 l-18 -11 l-22 -23 q-5 -2 -20 -15 l-27 -28 q-9 8 -13.5 0 q-4.5 -8 -11.5 -2 q-9 39 31 57 l76 53 l56 58 l34 28 q87 82 163 176 q35 38 40 85 q-114 -40 -205 -75 q-50 -24 -90 -10 q-3 16 2 20 q40 15 88 13 q93 32 167 60 l4 5 l51 14 ZM650 280 q47 -8 101 -17 q17 -6 64 -37 q4 -14 17 -24 q13 -10 13 -26 l-18 -4 l-3 -9 l-5 0 l-10 11 q-29 14 -64 34 l-2 7 l21 4 l2 6 q-25 20 -56 14 q-31 -6 -56 12 q-15 12 -4 29 Z" /><glyph glyph-name="" unicode="&#x4e0e;" d="M770 580 q2 0 18 -10 q7 -12 -1.5 -22.5 q-8.5 -10.5 -4.5 -20.5 l-12 -7 q-4 5 -12 27 q-19 0 -37 0 q-49 -10 -90 -16 l-2 -4 q-70 -23 -137 -41 q-23 -8 -41 -21.5 q-18 -13.5 -38 -6.5 q-9 -7 -15 -13 q-5 -43 -30 -74 l3 -2 q-11 -9 0 -20 q56 -32 128.5 -15 q72.5 17 123.5 -32 q24 -59 28 -129.5 q4 -70.5 -51 -112.5 q-24 -24 -53 -20 q-10 16 -10 21 q8 15 24 4 q13 7 29 20 q41 42 39 101 q-2 55 -30 102 q-58 41 -130.5 23.5 q-72.5 -17.5 -127.5 25.5 q-4 10 -6 21 q43 66 61 149 q-2 42 0 60 l10 3 q16 -14 18 -34 q-6 -29 -6 -46 q19 2 40 6 q107 33 177 58 q123 22 135 26 ZM500 210 q-10 -2 -18 -8 l-4 4 l-6 -7 q-52 -9 -157 -23 q-25 -11 -31 -11 l-3 -4 q-24 -22 -53 -24 q-22 8 -13 28 q40 27 93 35 q176 19 192 23 l0 -13 Z" /><glyph glyph-name="" unicode="&#x4e13;" d="M623 681 q4 -5 8 -9 q-8 -64 -14 -94 q0 -29 0 -55 l24 -23 q-4 -18 -20 -47 l-9 -6 q-20 -25 -38 -47 q-13 -36 -23 -69.5 q-10 -33.5 -10 -67.5 q6 -2 15 -2 q20 9 69 17 q4 6 8 12 q-25 16 -13.5 42 q11.5 26 5.5 50 l6 2 q6 -24 12 -37 q9 -49 12 -82 q-10 -6 -18 -12 q-45 -8 -85 -12 l-5 -4 q-8 -7 -14 -7 q-31 -52 -29 -114 q25 -31 66.5 -28.5 q41.5 2.5 79.5 -2.5 q40 -7 69 -38 q4 -18 22.5 -31.5 q18.5 -13.5 16.5 -31.5 q-13 -17 -29 -17 l-3 -3 q-79 -6 -181 -13 l-4 5 l-4 -5 q-65 -2 -166 0 l-5 7 q-21 0 -35 -2 l-16 -27 q-13 14 -21 31 q-29 0 -43 5 q-6 5 -10 11 q0 26 -2 35 q6 11 24 34 l12 4 q17 -20 51 -77 q35 -5 70 -10 q60 0 118 0 q91 0 174 32 q14 -2 31 -4 q16 6 0.5 14 q-15.5 8 -13.5 20 q-30 27 -40 34 q-47 11 -92 7 q-49 2 -84 29 l0 6 l-6 4 q-8 55 16 106 q-4 2 -8 5 q-61 -23 -77 -32 q-9 3 -15 5 q22 112 143 212 q2 11 18 76 l-30 0 l-2 -4 q-37 -8 -71 -20 q-34 -12 -68 -1 l0 16 q28 13 63 9 q110 31 119 35 q14 36 17 79 q3 43 10 86 l13 12 l11 -7 ZM599 486 q-13 -22 -13 -33 q2 7 13 13 q11 6 8 18 l-8 2 ZM623 424 l0 -18 l-2 18 l2 0 ZM523 343 q-45 -51 -101 -113 q-4 -11 0 -15 q43 15 87 36 q20 82 20 96 l-6 -4 ZM537 290 l0 -6 l2 4 l-2 2 ZM504 90 l0 -7 l3 4 l-3 3 ZM702 39 l0 -6 l2 3 l-2 3 ZM272 8 q-17 -12 -9 -30 q15 -13 31 -2 q-8 16 -22 32 ZM263 -24 l0 -6 l2 4 l-2 2 ZM612 -38 l0 -6 l3 4 l-3 2 Z" /><glyph glyph-name="" unicode="&#x4e14;" d="M588 600 q6 -1 22 -10 q11 -18 2 -36 l-7 -7 q-23 -31 -22 -73 q-3 -121 0 -170 q-7 -123 -11 -197 l-7 0 q-6 -7 -6 -15 q72 0 147 0 l2 6 q29 16 65 9 q36 -7 67 5 q22 -16 44 -30 l2 -21 l-8 -3 l-10 -11 q-24 4 -53 13 q-13 0 -54 -4 q-62 4 -124 7 q-10 -3 -20 -5 q-17 2 -34 3 q-79 -8 -134 -12 q-36 0 -49 4 q-53 -6 -122 -6 q-78 -20 -143 -33 q-21 17 -8 39 q81 3 163 27 q12 -2 25 -4 q149 7 234 14 q-20 32 -10 75 q4 37 8 74 q-2 11 -4 20 q2 9 6 19 q5 189 9 269 q-33 2 -62 -14.5 q-29 -16.5 -59 -16.5 q-2 4 -11 8.5 q-9 4.5 3 11.5 q18 22 48 22 q30 0 54 20 q2 10 8 18 q24 0 49 4 ZM341 480 q17 -24 8.5 -51 q-8.5 -27 -2.5 -51 l4 0 q2 10 9 18 q51 0 102 22 q32 6 54 -12 q15 -37 -12.5 -64 q-27.5 -27 -41.5 -52 q14 -6 32 -2 q18 4 35 -8 q16 -17 7 -33 l-7 -2 l-10 -17 l-23 -9 l-18 -19 l-20 -8 l-5 4 q9 16 29 26.5 q20 10.5 25 34.5 q-31 18 -61.5 -5.5 q-30.5 -23.5 -59.5 -18.5 q-15 10 -4 26 q18 13 74 62 q13 18 28 37 q12 15 4 32 q-61 -8 -115 -30 l-4 -9 q-14 -4 -26 -6 q4 -120 41 -231 q-2 -4 -4 -7 l-20 -7 q-13 8 -9 22 l-6 5 q0 14 0 30 q-21 78 -26 162 q2 83 5 124 q-5 2 -14 6 q-4 20 14 33 l17 -2 Z" /><glyph glyph-name="" unicode="&#x4e16;" d="M586 582 l0 -6 l4 -2 q9 -22 0.5 -44.5 q-8.5 -22.5 -2.5 -43.5 q20 2 49 6 l2 4 l13 0 l2 4 q18 -6 39.5 4 q21.5 10 43.5 3 q23 -21 -8 -40 q-25 -9 -43 -14 l-5 5 l-9 7 q0 9 -4 15 q-23 -6 -46 -10.5 q-23 -4.5 -40 -16.5 q-8 -45 -19 -90.5 q-11 -45.5 0 -88.5 q-14 -13 -26 -23 q-26 4 -41.5 -18.5 q-15.5 -22.5 -37.5 -22.5 q-13 25 -13 33 l-5 2 q-5 23 -11 35 q-9 42 -12 78 l-4 2 l-7 44 q-33 0 -67 -2 q-29 -9 -55 -18 q-4 -4 -6 -8 q-4 -59 -10 -119 q0 -38 0 -78 q18 -47 12 -92 q46 -11 65 -15 q254 20 363 30 l5 5 q38 -7 78 -1 q40 6 81 -8 q12 -15 4 -29 l-8 0 l-6 -8 q-45 0 -82 -21 q-41 -9 -74 -5 l4 4 q74 30 85 39 l-5 7 q-49 0 -89 -3 l-2 3 l-4 -3 q-52 -6 -112 -15 q-47 -2 -99 -4 l-4 -3 l-4 3 l-2 -3 q-59 -4 -101 -9 l-4 -4 q-71 2 -106 0 q-37 18 -20.5 57 q16.5 39 4.5 68 l-4 2 q-13 52 3.5 106.5 q16.5 54.5 0.5 109.5 l-2 -6 l-30 -6 l-5 4 l-2 -4 q-20 -7 -41.5 -12.5 q-21.5 -5.5 -39.5 3.5 q-13 11 -2 25 q10 12 26 0 l3 4 q52 8 93 20 q6 35 -2 74 q2 4 6 8 l17 0 q20 -18 11 -42.5 q-9 -24.5 2 -42.5 q60 7 119 18 q4 41 0 79 l-6 0 q-8 8 2 21 q15 8 26 -4 q13 -22 4 -44.5 q-9 -22.5 5 -41.5 q61 17 106 26 q10 5 21 11 l0 12 l-11 2 q-10 49 18 92 l21 -4 ZM681 482 l-2 -4 l13 -2 l3 6 l-7 2 l-7 -2 ZM549 460 l0 -7 l3 5 l-3 2 ZM543 456 l-2 -5 q-30 -8 -41 -8 l-4 -3 l-61 -18 q-4 -20 0 -51 q5 -54 27 -101 q3 8 10 14 q6 -3 14 -4 q34 20 51 28 q6 70 17 139 l-9 6 l-2 3 ZM437 308 l0 -6 l3 4 l-3 2 ZM300 58 l0 -7 l2 5 l-2 2 Z" /><glyph glyph-name="" unicode="&#x4e1d;" d="M610 605 q23 -35 3.5 -70 q-19.5 -35 -37.5 -59 l-9 -4 q0 -8 -18 -20 q-18 -12 -4 -17 q55 8 112 -4 q27 -20 6 -51 q-20 -41 -64 -106 q40 -6 82 0.5 q42 6.5 85 13.5 q16 -8 12 -25 q-30 -8 -51 -39.5 q-21 -31.5 -51 -31.5 l-4 -4 l-13 0 l0 11 l7 1 q44 47 44 53 l-47 -3 l-4 3 l-4 -3 q-45 -5 -110 -7 q-14 14 -2 31 l22 10 q21 20 43 42 q25 38 33 80 l-22 9 l-4 -4 l-27 6 l-2 -4 q-30 5 -54.5 -12 q-24.5 -17 -51.5 -15 q31 65 96 130 q16 40 18 84 l11 7 l5 -2 ZM368 567 q5 -26 -10 -48 q-56 -72 -78 -102 q24 -6 51 10 q27 16 57 10 q29 -17 5 -44 q-40 -44 -54 -96 q-41 -52 -41 -58 q39 -2 82.5 14.5 q43.5 16.5 84.5 -3.5 q19 -22 -7 -33 l-15 -2 l-10 15 q-29 0 -60 -4 q-81 -18 -158 -34 q-15 16 2.5 31.5 q17.5 15.5 25.5 27.5 q18 -6 32 10 q19 20 40 41 q22 43 56 104 q-3 2 -7 7 q-67 -29 -131 -40 l-3 -4 l-9 0 q36 71 101 138 q21 26 21 60 l10 7 l15 -7 ZM507 94 q52 4 105 -7 q38 5 141 5 q45 -10 87 -25 l1 -14 q-6 0 -20 -4 l-4 -9 q-45 -9 -91 -26 l-3 4 l-10 -2 l-3 8 l48 27 l3 9 q-8 1 -118 5 l-4 -4 q-43 0 -63 2 l-4 4 q-20 -4 -114 -6 q-23 -5 -45 -12 q-40 2 -75.5 -5.5 q-35.5 -7.5 -72.5 -7.5 l-4 -5 q-61 -17 -83 -20 q-21 24 8 42 q135 16 321 41 Z" /><glyph glyph-name="" unicode="&#x4e24;" d="M872 602 q2 0 22 -10 q13 -18 -1 -36 q-13 -11 -21 2 l-4 14 q-6 2 -12 4 q-159 -29 -286 -51 q-14 0 -27 0 q-7 -5 -16 -9 q-18 0 -35 0 l-2 -4 q-86 -16 -198 -34 q-37 0 -71.5 -7 q-34.5 -7 -66.5 3 q-27 -7 -54 -10 q-6 5 -6 18 q25 18 60 18 q65 -12 130 -1.5 q65 10.5 133 17.5 q120 23 455 86 ZM627 462 q4 0 20 -9 q0 -13 -8 -42 q65 4 151 16 q5 -3 8 -5 q17 -22 13 -54 q-9 -68 -13 -115 q-8 -25 -16 -47 q-8 -52 -21 -104 q-26 -57 -40 -84 l-24 -6 l-9 8 q-49 33 -67 41 l-4 8 l-15 13 l-6 10 q19 6 37.5 -7 q18.5 -13 38.5 -11 l4 -5 l25 -4 q25 43 42 94 q2 22 5 47 q16 68 26 102 q-10 18 -2 41.5 q8 23.5 -6 44.5 q-37 -1 -74 -3.5 q-37 -2.5 -67 -14.5 q-13 -55 -18 -90 q26 -8 43 -21 q5 -22 26 -41.5 q21 -19.5 8 -44.5 q-5 -1 -14 -3 q-15 39 -45 67 q-18 12 -37 4 q-29 -47 -52 -80 l-13 0 q-14 14 -21 27 q-16 5 -26.5 20.5 q-10.5 15.5 -28.5 11.5 l-12 -30 q-15 -8 -24 -8 q-3 6 -3 14 q19 61 32 111 q-5 28 9 60 q0 31 -6 56 q2 6 6 11 q11 9 23 0 q12 -20 6 -40 q-6 -20 -2 -39 q4 -1 8 -1 q55 24 118 40 q5 33 25 62 ZM250 388 q5 -6 9 -19 q-18 -56 -4 -114 q15 -74 51 -139 q25 -20 35 -22 q19 22 43 20 q2 -18 -6 -31 q-35 -25 -72 -5 q-28 38 -34 49 q-22 56 -42 123 q-11 65 -5 132 l10 6 l15 0 ZM592 369 q-20 -3 -34 -3 q-49 -23 -74 -29 q-20 -18 -22 -47 q-9 -27 16 -37 l24 -18 l7 -9 l22 -18 q59 67 63 160 l-2 1 Z" /><glyph glyph-name="" unicode="&#x4e25;" d="M679 715 q23 0 40 -14 l0 -13 q-20 -18 -42.5 -18 q-22.5 0 -41.5 -13 q-20 0 -35 6 q37 16 70 21 l9 8 q-91 -6 -140 -11 l-2 -2 l-10 -3 l0 -15 q9 -6 16 -11 q6 4 43 11 l0 -4 q-27 -5 -61 -10 q-18 -26 -25 -55 q-10 -31 4 -53 q52 4 59 8 q4 16 -4 29 q-1 20 15 34 q18 -10 13.5 -29.5 q-4.5 -19.5 2.5 -31.5 q18 -2 71 0 q56 7 74 10 q13 -1 25 -3 q16 -13 7 -22 q-9 -9 -16 -15 q-36 -21 -112 -66 q-43 -18 -65 -31 q-15 0 -27 0 q-11 -9 -22 -18 q-13 -14 -13 -20 q100 4 198 27 q25 0 50 0 l10 -17 q-20 -8 -45 -14 l-2 -4 q-33 -8 -57 -16 q-7 4 -12 8 l14 12 q-56 2 -107.5 -9 q-51.5 -11 -104.5 -11 q-32 -9 -63 -17 l-5 -17 l5 -2 q1 -32 9 -67 q-4 -32 -14 -90 q-27 -80 -71 -147 l-4 -2 q-16 -26 -63 -91 q-13 -12 -25 -25 l-2 9 l3 2 q46 67 86.5 141.5 q40.5 74.5 63.5 157.5 q0 29 -2.5 61.5 q-2.5 32.5 -20.5 59.5 q-12 -7 -43 -12 q-10 14 5 22 l30 10 l4 15 q19 -2 45 -4 q24 9 55 7 q31 -2 55 17 l-18 2 q-6 41 -6 66 l-4 2 l-2 58 q-7 3 -12 7 q-9 -4 -19 -9 q-30 -2 -82 -12 q-32 -14 -61 -22 q-12 -2 -25 2 l0 16 q94 25 194 38 q5 7 13 81 q16 35 22 53 l-53 0 l-4 -4 q-20 -5 -47 -5 l-2 -4 q-38 2 -74 -14 q-7 2 -16 4 q-8 10 5 19 q167 20 366 49 ZM704 545 l-5 -6 q-11 6 -22 -1 q-11 -7 -20 -1 l-2 -4 q-28 -2 -45 3 l-2 -5 l-8 -6 q2 -21 -5 -41 q-7 -20 5 -35 q43 27 126 80 l3 10 q-14 0 -23 4 l-2 2 ZM545 527 q-12 -7 -25 -5.5 q-13 1.5 -22 -7.5 q-2 -22 -4 -46.5 q-2 -24.5 15 -40.5 q43 38 54 98 l-16 0 l-2 2 ZM594 527 l0 -7 l2 5 l-2 2 ZM659 480 l0 -6 l2 4 l-2 2 Z" /><glyph glyph-name="" unicode="&#x4e2a;" d="M393 582 l5 -2 l0 -15 l-16 -6 l8 -14 q32 -20 84 -57 q33 -39 46 -53 q16 -15 32 -29 q22 -12 102 -63 q116 -41 226 -100 l0 -8 q-39 15 -100 40 q-96 31 -153 51 l-6 7 l-11 0 l-2 6 q-26 12 -47 21 l-18 22 l-24 18 q-27 27 -37 40 q-20 0 -29.5 25 q-9.5 25 -30.5 21 q18 -118 5 -235 q6 -75 10 -112 q10 -47 16 -74 q-6 -20 -13 -34 l-5 12 l-8 -8 l-9 -6 q-10 32 -16 71 q6 27 9 63 q-5 16 -7 33 q2 128 4 206 q-4 54 -14 102 l-12 5 l-9 -9 l-9 0 q4 14 -6 27 l-13 -8 q-26 -41 -47 -76 q-77 -102 -112 -146 q-35 -60 -54 -91 q-13 31 15 64 q112 157 217 306 l26 10 l3 -4 ZM321 488 l5 0 l-4 2 l-1 -2 Z" /><glyph glyph-name="" unicode="&#x4e2d;" d="M541 672 q0 -20 -2 -165 q63 12 127 38 q67 16 87 16 q31 -20 -2.5 -34.5 q-33.5 -14.5 -33.5 -30.5 l-7 -2 q-49 -54 -49 -59 q15 -2 31 -11 q10 -16 -6 -26 q-25 -8 -49 -2 q-74 -36 -98 -55 q-20 -178 24 -341 q-4 -16 -9 -53 l-7 7 q-14 -13 -24 -14 q-11 154 -9 313 q-5 55 -10 68 q-14 -6 -26 -8 l-9 -9 q-20 -14 -36 -6 l-4 -4 q-18 14 -9 37 q13 24 40.5 24 q27.5 0 46.5 25 l0 84 q-76 -24 -123 -35 l-4 4 q-2 -6 -31 -37 q-10 -12 -20 -2 q-10 12 4 22.5 q14 10.5 18 23.5 q94 29 158 52 q2 24 5 51 q-2 51 0 111 q2 7 6 18 l11 4 l10 -4 ZM250 533 q9 -39 7 -84 q13 -61 51 -106 q35 -21 61 -30 l0 -11 q-5 -2 -9 -4 q-17 4 -56 17 q-49 49 -67 118 q-22 53 10 100 l3 0 ZM692 533 l-2 -4 q-49 -17 -85 -25 l-3 -4 l-61 -22 q-4 -13 -4 -85 q24 -13 46 11.5 q22 24.5 46 35.5 l45 50 l36 35 l0 6 l-15 0 l-3 2 ZM659 458 l0 -7 l2 5 l-2 2 ZM607 415 l0 -7 l1 5 l-1 2 ZM337 404 l0 -6 l2 4 l-2 2 ZM268 400 l0 -6 l2 4 l-2 2 Z" /><glyph glyph-name="" unicode="&#x4e3a;" d="M710 690 q15 -16 3 -31 l-37 -30 q-71 -104 -118 -173 q-22 -54 -76 -186 q88 63 188 118 q27 -4 50 -18.5 q23 -14.5 52 -20.5 q18 -23 23 -52 q0 -58 -17.5 -111.5 q-17.5 -53.5 -22.5 -105.5 q23 -11 49 -19 q17 -10 15 -28 q-8 -6 -15 -13 q-22 23 -54 27 q-15 -25 -66 -111 l-14 -7 l-4 -4 q-23 -3 -37 18 q-30 81 -57 167 q4 4 8 10 l20 7 l5 -5 q12 5 34 0 q40 -18 74 -32 q6 0 12 0 q10 41 35 153 q6 43 -10 81 q-42 25 -84 34 q-41 -21 -96 -54 q-51 -39 -112 -89 q-68 -130 -76 -270 l-13 -4 l-1 -12 q-17 7 -47 25 l-74 77 q3 0 6 2 q22 -17 98 -59 q7 22 31 130 q24 43 35 90 q-51 -29 -95 -53 l-9 -10 q-25 -17 -51.5 -23 q-26.5 -6 -42.5 -25 q-23 -16 -4.5 -23 q18.5 -7 15.5 -20 q-13 13 -36 25 q-16 15 -2 31 q76 45 163 80 q39 24 80 50 q39 87 67 168 q35 70 47 98 q68 104 148 203 l13 -5 ZM382 488 q6 -41 24 -100 l18 5 l0 -25 q-9 -8 -16 -8 l-6 -7 l-9 5 q-25 32 -27 75 q-13 34 -2 65 l18 -10 ZM608 92 q2 -52 27 -102 q8 -14 17 -26 l7 -6 q25 28 47 64 q11 18 7 39 q-34 13 -78 31 l-27 0 Z" /><glyph glyph-name="" unicode="&#x4e3b;" d="M376 629 q71 -30 131 -82 q12 -16 -3 -27 q-40 32 -67 52 q-35 20 -71 27 q-5 6 -14 9.5 q-9 3.5 3 14.5 l21 6 ZM467 467 q25 5 42 -16 q0 -18 0 -36 q-49 -84 -123 -143 q-18 -19 -18 -39 q22 4 32 4 l4 4 q11 0 33 10 q3 12 -0.5 30.5 q-3.5 18.5 12.5 31.5 q9 -16 19 -4 q10 12 18 -1 l6 -10 q6 -24 26.5 -18 q20.5 6 33.5 -12 q11 -9 0 -13.5 q-11 -4.5 -11 -11.5 q-16 -2 -63 -13 q-18 -36 -14.5 -73 q3.5 -37 -1.5 -72 q3 -3 7 -5 q15 3 87 7 q22 -5 63 -7 q65 7 131 16 q30 -20 65 -29 q7 -7 16 -14 l-7 -13 l-7 0 l-6 -7 q-33 0 -63.5 -7.5 q-30.5 -7.5 -59.5 9.5 l0 5 q38 16 49 23 q-16 0 -154 -12 q-47 10 -97 2 l-2 -4 l-8 0 l-4 -4 q-32 2 -61 -10 l-5 -4 q-26 -9 -53 -11 q-27 -2 -49 -12 q-26 0 -51 0 l-3 -4 q-9 0 -71 -18 q-3 2 -7 6 l-2 19 q26 22 67 28 q98 0 192 33 q4 55 11 145 q-5 2 -7 6 q-27 -11 -69 -19 l-3 -4 q-12 -4 -32 -6 q-5 6 -7 12 q15 44 46 80 l18 16 q36 41 76 84 q20 27 16 54 l-25 0 l-4 -3 q-41 -13 -79.5 -22 q-38.5 -9 -72.5 -27 q-5 2 -9 6 q-10 21 10 33 q86 10 169 40 ZM482 278 q-4 -6 -4 -19 l8 -2 l8 8 l-10 10 l-2 3 ZM368 29 l0 -7 l1 5 l-1 2 Z" /><glyph glyph-name="" unicode="&#x4e45;" d="M380 650 q6 -11 6 -21 q-8 -46 -15 -57 q-2 8 -5 11 q-42 -44 -63.5 -97 q-21.5 -53 -51.5 -100 l-4 -2 l-10 -20 l-9 -3 l-9 -22 l-15 -13 q-4 -18 -4 -28 q12 6 39 28 l11 11 q36 29 119 94 q33 25 74 29 q33 -47 -3 -96 q-60 -67 -99 -114 l-10 -7 l-12 -15 l-6 0 q-11 -9 -15 -22 q62 -49 129 -106 q100 -67 134 -92 q147 -26 301 -20 l0 -4 q-133 -17 -263 -6 q-47 2 -87 28 l-12 12 q-83 60 -203 152 q-9 0 -16 0 l-3 -9 l-6 13 l-13 2 l-4 -13 l-8 0 l-8 -18 l-9 -4 l-11 -25 l-13 -2 l0 -16 l-7 -2 q-16 -35 -36 -78 l-14 -2 q-12 17 0 35 l12 10 q17 26 20 39 q58 72 84 110 l16 9 q74 65 134 147 q25 32 25 74 q-5 3 -7 5 q-29 -12 -43 -16 q-80 -58 -120 -86 q-11 -17 -29 -35 l-16 -8 l-47 -50 l-17 -11 q-7 12 -6 22 q23 45 41 80 l6 4 q31 49 53 82 q43 87 109 214 l9 9 l7 0 Z" /><glyph glyph-name="" unicode="&#x4e48;" d="M373 476 q7 0 15 -7 q6 -20 -4 -38 q-55 -82 -96 -153 q18 -10 9 -28 q-9 -5 -32 -5 q-12 14 -6 36 q51 72 86 156 q15 16 28 39 ZM559 453 q17 -13 6 -29 q-32 -69 -82 -125 q-50 -56 -87 -118 q6 0 98 21 q49 6 102.5 5 q53.5 -1 104.5 18 q24 -2 38 -23 l6 -19 l-19 -4 l0 -5 q-24 -7 -87 -29 q-29 -6 -53 -4 l-3 4 l69 33 l5 5 q-61 -2 -99 3 q-51 -8 -84 -10 l-2 -4 q-29 -7 -82 -23 q-26 -2 -39 0 q0 10 0 21 q100 127 147 190 q27 51 41 83 q6 6 13 13 l7 -3 Z" /><glyph glyph-name="" unicode="&#x4e49;" d="M284 643 q2 0 14 -4 l19 -20 l7 -2 q31 -37 60 -76 q4 -12 0 -29 q-15 -10 -26 2 q-13 22 -43 68 l-11 4 l-7 8 l-11 2 q-31 23 -2 47 ZM494 482 q0 -6 2 -13 q-36 -75 -81 -161 q-15 -16 -76 -100 q22 -43 59 -73 l45 -33 l4 -8 l9 -2 l28 -31 q35 -55 99 -61 q40 0 80 0 q119 18 205 33 q14 0 30 0 l-5 -9 q-13 7 -21 -6.5 q-8 -13.5 -19 -1.5 l-6 -5 q-57 -12 -188 -35 q-47 -2 -57 -4 q-55 8 -77 8 q-67 69 -69 76 q-38 29 -66 48 l-69 77 l-11 -3 l-12 -17 q-20 -18 -24 -20 q-6 -12 -64 -72 q-29 -30 -59 -11 q-4 3 -13 12.5 q-9 9.5 7 14.5 q9 -3 29 -11 q14 9 30 20 q74 78 102 112 q-67 78 -116 139 l-18 16 l-2 5 q-7 2 -15 7 q-6 -4 -12 -7 q-6 -15 -16 -33 l-13 0 q5 12 -4.5 24 q-9.5 12 2.5 25 q25 31 62 12 q96 -106 148 -166 l15 11 q29 39 57 78 q53 79 80 169 l8 6 l12 -10 Z" /><glyph glyph-name="" unicode="&#x4e4b;" d="M298 574 q4 0 21 -13 q10 -32 32 -59.5 q22 -27.5 22 -61.5 l-7 0 q-21 40 -51 72 l-17 4 q-6 9 -12 45 q6 6 12 13 ZM533 458 q6 -7 6 -15 l-3 -3 q-11 -27 -34.5 -44.5 q-23.5 -17.5 -36.5 -40.5 q-92 -83 -107 -96 l-23 -26 l-16 -12 l-4 -11 q67 -27 130 -43 q35 -16 84 -45 q81 -32 137 -53 q89 7 178 -8 q1 -3 -6 -12 q-107 -4 -197 -9 q-33 16 -69 34 q-33 9 -63 20 q-25 16 -49 35 q-70 20 -143 41 q-82 6 -154 -16 q-4 1 -8 5 l-1 29 q24 29 58.5 22.5 q34.5 -6.5 67.5 6.5 q53 48 160 147 q38 42 38 47 q-16 -5 -127 -60 q-29 -18 -88 -57 q-10 -2 -30 -8 q-14 12 0 29 q69 36 143.5 69.5 q74.5 33.5 143.5 77.5 l13 -4 Z" /><glyph glyph-name="" unicode="&#x4e5f;" d="M688 670 q14 -4 29 -15 q31 -43 8 -91 q-23 -48 -51 -78 q-31 -33 -72 -37 q-37 -4 -66 11 l-9 7 l-15 0 q15 -20 13 -45 q-27 -18 -58 -16 q-36 7 -71.5 11.5 q-35.5 4.5 -62.5 31.5 q-12 -12 2 -19.5 q14 -7.5 16 -16.5 l25 -20 q2 -7 44 -50 q47 -43 113 -102 l34 -41 q64 -61 74 -68 l58 -56 l32 -25 l17 -16 l71 -51 l8 -12 l6 -2 q8 -8 14 -25 l-3 4 q-23 -2 -34.5 16.5 q-11.5 18.5 -29.5 20.5 l-4 4 l-10 2 l-16 16 l-66 45 l-14 14 q-68 58 -134 121 q-46 47 -87 93 q-29 7 -46 28.5 q-17 21.5 -35 39.5 q-25 24 -47 53 q-31 41 -56.5 -5 q-25.5 -46 -49.5 -46 l-5 -8 q-20 -10 -36 -17 l-2 5 l-11 6 q-7 14 4 24 q21 27 53 41.5 q32 14.5 57 37.5 q-16 18 -54 58 q-2 11 -2 22 q14 19 32 3 l4 -4 q39 -17 74 -43 q8 4 98 63 q6 6 13 15 q-29 36 -29 83 l11 4 q15 -22 45 -76 q27 13 107 62 q55 28 114 43 ZM663 641 l-4 -4 q-52 -10 -94 -41 q-42 -31 -85 -49 q14 -24 40 -57 q32 -18 72.5 -19.5 q40.5 -1.5 64.5 33.5 q19 25 42.5 63 q23.5 38 -2.5 72 l-31 0 l-3 2 ZM537 599 l0 -7 l2 4 l-2 3 ZM496 563 l0 -5 l2 3 l-2 2 ZM451 529 q-31 -10 -54.5 -32.5 q-23.5 -22.5 -47.5 -34.5 l0 -9 q15 -10 31 -20 q55 -15 110 -4 q4 4 10 11 q-16 32 -40 85 l-9 4 ZM225 500 l0 -6 l1 4 l-1 2 ZM371 494 l0 -6 l2 4 l-2 2 ZM292 482 q-2 -4 8 -17 l6 4 l-12 11 l-2 2 ZM552 462 l0 -6 l2 4 l-2 2 ZM435 304 l0 -6 l2 4 l-2 2 ZM488 250 l0 -7 l2 4 l-2 3 ZM549 183 l7 0 l-4 3 l-3 -3 ZM778 4 l0 -5 l2 3 l-2 2 ZM815 -28 l0 -7 l2 5 l-2 2 Z" /><glyph glyph-name="" unicode="&#x4e60;" d="M654 602 q3 -2 12 -2 q42 -37 42 -91 q-16 -241 -29 -485 q-18 -4 -29 -12 l-15 17 l-20 14 q-21 13 -5 24 q17 2 33 -9 q2 2 7 5 q4 44 5 115 q6 34 11 63 q-3 40 -7 78 l-18 -19 l-10 -3 l-6 -7 q-13 -4 -19.5 -17.5 q-6.5 -13.5 -19.5 -7.5 l-3 -4 q-58 -33 -183 -104 q-71 -57 -78 -57 l-3 -6 q-15 -9 -22 4 q-7 21 9 34 q87 51 178.5 95.5 q91.5 44.5 176.5 98.5 q5 32 15 85 q-2 7 -4 16 q4 57 7 92 q-7 14 -13 37 q-11 7 -16 7 l-7 9 l-35 4 l-1 -4 q-49 -9 -82 -14 q-49 -17 -92 -44 q-9 0 -15 0 l0 25 q42 20 93 37 q88 16 143 26 ZM353 402 q55 -4 107 -26 q28 -15 22 -41 q-22 12 -64 33 q-40 -8 -73 10 l-4 22 l10 4 l2 -2 Z" /><glyph glyph-name="" unicode="&#x4e86;" d="M556 619 q14 0 51 -7 q24 -20 20 -49.5 q-4 -29.5 -17 -50.5 l-3 -1 q0 -7 -31 -46 l-29 -25 q16 -42 39 -80 l-4 -2 q1 -5 6 -7 q4 -43 8 -108 q-14 -123 -22 -212 l4 -2 l-4 -25 q-13 -2 -22 0 l-3 -8 q-10 3 -18 4 q-11 8 -19 16 q-28 11 -63 27 l-20 22 q-21 7 -41 17 l-2 3 l-8 2 l0 7 q26 -4 142 -38 q7 2 13 5 q6 37 12 55 q4 72 7 110 l4 2 q2 22 3 35 q-5 41 -12 97 q-8 11 -27 40 q-28 -10 -44 13 q0 9 8 20 q20 0 39.5 16 q19.5 16 37.5 31 q17 22 35 47 q6 25 3 51 q-19 16 -43 14 l-4 4 q-62 -16 -164 -47 q-10 0 -19 0 l-1 7 l16 7 l2 7 q34 26 80 30.5 q46 4.5 90 18.5 Z" /><glyph glyph-name="" unicode="&#x4e8b;" d="M561 713 q22 -23 15 -54 q92 15 184 31 q49 5 64 0 q20 -18 -3 -29 q-15 -9 -21.5 5.5 q-6.5 14.5 -19.5 7.5 l-2 -4 l-8 4 l-2 -4 q-29 -2 -53 -4 q-107 -21 -137 -27 q0 -20 -8.5 -42.5 q-8.5 -22.5 8.5 -38.5 q18 5 43 5 q24 -18 4 -39.5 q-20 -21.5 -25 -37.5 q25 -2 33 -6 l4 -16 q-6 -6 -12 -11 q-25 3 -47 -2 q-4 -6 -8 -47 q2 -4 4 -6 q55 15 198 42 q37 7 72 -7 q1 -13 -4 -27 q-64 -57 -99 -85 l-2 -8 q-37 -38 -82 -58 l-3 4 l-9 -6 q-4 -14 -19.5 -25 q-15.5 -11 -2.5 -24 l32 -23 q24 -27 24 -38 l-7 -2 l-2 -6 l-13 0 l-2 -4 q-47 -9 -75 -19 q-2 -85 14 -167 q-4 -5 -8 -12 l-4 7 l-6 0 l0 -11 l-15 -2 l-3 4 q-96 -4 -197 -12 q-8 1 -16 3 l-2 -3 q-37 -4 -184 -17 l-4 5 q113 18 319 49 q40 9 80 18 q-5 86 -11 130 q-27 -10 -79 -39 q-8 0 -15 0 q-4 15 0 27 l80 62 q27 5 15.5 21.5 q-11.5 16.5 -3.5 32.5 q-30 -4 -59 -16.5 q-29 -12.5 -60 -5.5 q-32 26 -4 55 q64 -4 125 22 q-2 68 -2 106 q-16 -5 -57 -20 q-10 0 -20 0 q-158 -63 -225 -88 q-22 -11 -39 0 l0 20 q135 41 341 109 q2 37 -2 43 q-41 -16 -88 -35 q-22 10 -45 26 q-28 29 -33 70 q-7 33 3 62 q17 -4 26 0 q4 -4 9 -9 q-18 -20 -13 -45 q13 -38 26 -62 l16 -9 q9 29 0 61 q5 8 9 17 l96 40 q0 61 4 70 q-6 6 -12 14 l-1 -4 l-17 -4 l-5 4 q-5 -4 -10 -8 q-40 -9 -80 -14 q-11 -5 -22 -13 q-114 -33 -159 -47 q-20 0 -39 0 l-2 12 q28 4 55 23 q31 4 284 70 q4 11 2 30 q-2 19 11 31 l7 0 ZM458 625 l0 -6 l2 4 l-2 2 ZM582 537 l0 -30 l10 7 l10 23 l-20 0 ZM545 525 q-49 -14 -81 -49 q-15 -20 0 -36 q36 11 79 32 q15 22 11 51 l-9 2 ZM605 519 l0 -7 l2 4 l-2 3 ZM802 420 q-22 0 -42 0 q-65 -14 -106 -20 l-7 -6 l-6 4 l-6 -5 q-12 3 -17.5 -6 q-5.5 -9 -12.5 3 l-5 -6 l-22 -11 q-19 -52 -2 -103 q32 18 63 -2 q24 13 53 34 l45 45 l74 66 l0 5 l-9 2 ZM578 382 l0 -6 l2 4 l-2 2 ZM533 237 l-2 -4 q-31 -8 -64 -23 l0 -4 q25 4 72 19 l4 12 l-10 0 ZM580 223 q-10 -11 2 -15 l6 13 l-8 2 ZM605 199 q-33 -25 -22 -58 l56 13 q0 1 2 5 q-12 13 -34 37 l-2 3 ZM490 114 l0 -6 l2 4 l-2 2 Z" /><glyph glyph-name="" unicode="&#x4e8c;" d="M341 490 q74 -25 126 -43 q17 -14 39.5 -19.5 q22.5 -5.5 38.5 -23.5 q7 -14 -4 -20 q-45 31 -98 45 q-30 8 -92 24 l-6 -13 l-10 -3 q-6 21 -6 47 l12 6 ZM647 228 q14 -2 37 -7 q6 -15 -9.5 -23 q-15.5 -8 -17.5 -17 l-12 -2 q-6 7 -10 20 q-151 -16 -292 -64 q-21 -8 -33 8 l0 20 q92 25 190 43 q74 11 147 22 Z" /><glyph glyph-name="" unicode="&#x4e8e;" d="M594 600 q5 0 16 -6 q25 -18 8.5 -39.5 q-16.5 -21.5 -22.5 -35.5 l-6 -3 q-27 -34 -47 -56 q-7 0 -16 -4 l-11 -16 l-16 -9 l-6 -11 l-8 -2 l-14 -18 l-12 0 q-4 -7 -13 -18 l-7 0 l-9 -9 q-11 -15 -27 -13 q-2 -7 -26 -34 q89 21 194 52 q-14 12 -5 28 q15 12 27 -4 l5 -12 q34 3 53 0 q16 -14 -2 -29 l-15 -6 l-12 13 l-16 -8 q3 -43 5 -117 q-4 -96 -5 -200 q-35 -23 -76 -23 q-75 -6 -145 7 l0 6 q43 0 86.5 12.5 q43.5 12.5 90.5 7.5 q4 3 9 7 q4 22 8 77 q-4 71 2 144 q0 38 -10 74 q-58 -16 -132 -34 l-3 -4 q-24 -4 -45 -16.5 q-21 -12.5 -43 -3.5 q-18 7 -11 22.5 q7 15.5 22 25.5 l124 84 l14 14 l22 19 q16 26 46 50 q30 24 30 60 q-13 0 -22 2 q-86 -27 -147 -47 q-14 0 -27 0 q-18 6 -12 25 q8 4 16 9 q11 -3 20 -5 q92 24 170 44 Z" /><glyph glyph-name="" unicode="&#x4e91;" d="M404 576 q43 -37 92 -82 q29 -34 51 -72 q12 -38 11 -73 l-9 6 q-2 13 -4 25 q-22 49 -26 60 l-10 7 l-11 17 l-38 32 l-4 8 q-9 3 -52 39 q0 6 -8 16.5 q-8 10.5 8 16.5 ZM654 313 q97 -5 175 -7 q6 -6 12 -9 q12 -11 -1 -22 l-9 0 l-14 -14 q-8 -4 -20 0 l-4 14 q-42 9 -103 15 l-4 -4 q-7 4 -74 4 l-4 -4 q-54 -8 -112 -12 l-4 -4 q-52 -17 -106 -19 l-4 -4 q-45 -8 -85 -10 l-3 -4 q-31 -8 -66 -12 l-2 -4 q-30 -15 -59 0 q-4 6 -12 11 q-8 5 4 13 q22 2 53 -2 q78 16 105 24 q116 17 206 35 q65 6 131 15 ZM512 250 q24 -29 -3 -62 q-37 -61 -87 -110 q2 -9 5 -15 q6 -2 13 -2 q93 49 199 74 q35 0 67 -13 q20 -28 42 -53 q0 -6 0 -9 q-7 5 -12 -2 q-5 -7 -11 0 l-4 -9 q-13 7 -40 9 l-2 -5 q-42 -4 -67 0 l5 5 q14 7 30 9 q16 11 34 23 l-2 4 q-32 18 -67 13 q-5 -5 -30 -11 l-4 -4 l-17 0 l-3 -7 q-42 -13 -70 -22 l-2 -3 q-26 -11 -55 -15 l-4 -5 q-7 5 -27 20 q-16 18 6 34 l25 20 q18 25 63 96 q-10 20 10 40 l8 0 Z" /><glyph glyph-name="" unicode="&#x4e94;" d="M543 563 q31 7 53 -11 q19 -23 11 -54 q-40 -78 -84 -143 q57 5 65 9 q33 0 67 0 l6 -6 l15 -3 q21 -18 5 -36 l-22 -19 q-18 -22 -28 -32 q-37 -23 -67.5 -54 q-30.5 -31 -69.5 -40 l-10 -11 q-51 -28 -86 -51 l0 -5 q113 3 301 15 q32 -8 75 -10 q12 -8 8 -25 l-10 -2 l-4 -7 q-17 -4 -42 -4 l-3 11 q-53 17 -111 11 q-163 -14 -306 -24 l-4 -5 q-21 -4 -41 -12 q-20 -8 -36 6 q-13 15 3 24 q29 0 55.5 17 q26.5 17 57.5 10 q17 7 35 15 q106 49 200 124 l43 43 l6 3 l32 36 q-38 10 -79 6 q-6 -4 -13 -6 q-11 2 -29 0 q-24 -9 -44 -16 l-8 -9 l-6 -2 q-35 -47 -80 -118 q-12 -10 -22 -2 q-3 6 -5 13 q49 66 82 116 l-13 0 l-3 4 q-37 -4 -88 -11 l-6 -6 q-17 -12 -26 8 l0 27 q5 4 14 8 q75 -19 153 6 q35 47 70 94 q26 39 22 82 q-13 14 -29 10 q-65 -12 -127 -14 l-2 -4 q-24 4 -49.5 -2 q-25.5 -6 -44.5 10 q-7 16 11 29 q26 -7 92 -11 q49 7 116 18 Z" /><glyph glyph-name="" unicode="&#x4e9b;" d="M447 659 q6 -9 15 -20 q3 -51 2 -96 l3 -2 q0 -37 5 -65 q4 -2 8 -4 q29 20 78 53 q12 8 22 -5 l-6 -11 q-41 -23 -86 -51 q-21 -13 -35 2 q-6 -52 -8 -76 q4 -16 17 -33 q12 -2 24 -4 q70 11 200 31 q86 18 172 39 q14 -4 24 -11 q4 -24 -16 -35 q-21 -11 -37 -33.5 q-16 -22.5 -39 -24.5 l-12 -16 q-17 -3 -25 -5 l2 5 q23 18 89 79 q-3 4 6.5 9 q9.5 5 0.5 11 l-27 -6 l-2 4 l-5 -6 q-80 -19 -116 -22 l-2 -5 q-18 0 -31 0 q-49 -12 -107 -22 q-12 0 -24 2 l-1 -4 q-25 0 -49.5 -10 q-24.5 -10 -43.5 8 q-19 18 -16 45 q-7 49 3 97 q10 48 15 97 q-5 26 -10 67 q2 9 5 16 l7 2 ZM228 583 q11 -16 15 -34 q-13 -30 -6.5 -59.5 q6.5 -29.5 6.5 -58.5 l7 -4 l11 22 l17 -4 q3 -8 8 -16 q-25 -29 -35 -63 q-16 -44 -10 -85 q47 16 88 48 q4 -3 10 -5 l6 -11 l-10 -9 l-2 -10 q-12 -13 -27 -6 q-45 -20 -149 -67 q-6 0 -25 -4 q-5 9 -10 20 q-8 38 -2 76 l-4 2 q3 40 4 83 q7 8 9 20 l16 -7 q-13 -45 -6 -90 l-4 -2 q10 -64 16 -76 l48 16 q-3 33 0 62 q26 40 24 92 q-4 27 -11 98 q7 65 11 72 l5 0 ZM237 549 l0 -6 l2 4 l-2 2 ZM496 469 l0 -5 l2 3 l-2 2 ZM802 326 l0 -5 l2 3 l-2 2 ZM331 321 l6 0 l-4 1 l-2 -1 ZM155 228 l0 -5 l2 3 l-2 2 ZM440 194 q11 -2 34 -13 q18 -34 -8 -61.5 q-26 -27.5 -42 -50.5 q-22 -18 -46 -40 l0 -7 q15 -2 30 -4 q78 13 111 17 q46 5 91 -11 l0 -24 q-5 -4 -11 -8 q-23 8 -42.5 1 q-19.5 -7 -37.5 -7 l-3 -4 q-5 0 -44 -18 q-32 -4 -45 -6 l4 7 q9 2 78 35 l0 8 q-23 -4 -44.5 -5 q-21.5 -1 -40.5 -9 l-2 5 q-49 -11 -89 -15 l-2 -4 l-18 0 l-3 -4 l-12 0 q-10 16 8 26 q13 6 84 61 q32 33 61 69 q13 19 5 35 l-21 5 l-2 -5 l-31 0 l-2 -4 q-40 -16 -81 -32 q-6 1 -11 4 q-4 12 0 26 q27 4 63 11 l2 4 l67 18 ZM437 190 l0 -7 l3 5 l-3 2 ZM420 72 l0 -7 l2 4 l-2 3 ZM554 0 l0 -6 l2 5 l-2 1 ZM398 -1 l0 -7 l2 4 l-2 3 ZM486 -14 l0 -6 l2 4 l-2 2 Z" /><glyph glyph-name="" unicode="&#x4ea6;" d="M490 629 q-6 -39 20.5 -70.5 q26.5 -31.5 14.5 -68.5 l-6 4 q-7 37 -34 65.5 q-27 28.5 -23 69.5 l10 6 l18 -6 ZM822 507 q5 -3 40 -5 q20 -12 14 -35 l-7 -2 l0 -7 l-13 -11 q-16 6 -8 14 q8 8 8 19 q-15 0 -23 6 q-67 -10 -134 -17 q-52 -16 -123 -29 q-13 -7 -24 -13 q-9 2 -16 4 l-3 -4 q-29 -12 -53 -21 q-84 -18 -143 -28 l-6 -7 q-27 -3 -66 -11 q-84 0 -161 -17 q-8 4 -14 4 l0 19 q127 12 271 30 q115 26 228 61 q113 35 233 50 ZM561 418 q25 -24 27 -58 q-2 -182 12 -361 l-30 -11 q-25 18 -29 48 q13 -5 26 -7 q0 22 -8 100 q-1 175 0 222 q-5 9 -10 18 q-6 0 -30 -9 q-8 -13 -17 -23 q-14 -65 -40 -194 q-11 -27 -22 -51 q-11 2 -16.5 -8 q-5.5 -10 -12.5 1 q-21 47 -7 98 q11 38 11 78.5 q0 40.5 25 77.5 l5 2 l2 6 q11 13 27 5.5 q16 -7.5 22 16.5 l24 29 q13 8 29 20 l12 0 ZM476 329 q-14 2 -20 -10 q-13 -51 -25 -119 q0 -21 0 -39 l6 0 q21 41 32 56 q0 6 7 24 q-4 33 0 88 ZM199 179 q1 0 13 -3 l0 -9 l-10 -8 q-30 -32 -32 -76 q0 -34 26 -56 q34 -21 76 -21 l6 -12 q-28 -12 -61 0 q-17 8 -34 17 q-18 20 -32 49 q-10 56 25 105 q14 9 23 14 ZM726 165 q29 0 60 -8 q47 -30 82 -50 q4 -17 23.5 -25 q19.5 -8 12.5 -26 l-8 -3 l-2 5 q-12 -11 -25 -19 q-40 22 -91 17 q-6 7 -6 16 q43 13 50 18 l-3 8 q-33 27 -71 39 q-44 -2 -82 -15 q-12 7 -3 11 q9 4 9 12 q20 20 54 20 ZM715 143 l0 -6 l2 4 l-2 2 Z" /><glyph glyph-name="" unicode="&#x4eab;" d="M420 688 q2 0 20 -4 q18 -25 31 -49.5 q13 -24.5 38 -42.5 q45 7 179 27 q31 2 60 -12 q-3 -11 8.5 -17.5 q11.5 -6.5 -1.5 -11.5 q-12 -4 -30 -6 q-17 -11 -33 -18 q-4 2 -8 5 l-3 13 l20 14 q-4 2 -9 6 q-20 -2 -65 -4 q-44 -12 -71 -18 l-4 -7 q-15 0 -25.5 -13.5 q-10.5 -13.5 -17.5 -0.5 l0 9 l-11 5 l-2 -4 q-45 -10 -56 -14 l-3 4 l-2 -4 q-37 -16 -75 -20.5 q-38 -4.5 -70 -20.5 q-45 -14 -82 -6 q-8 14 7 27 q40 4 83 11 q96 11 184 47 q-29 36 -64 76 l-1 -4 l-9 -3 q-15 11 0 32 l12 4 ZM559 574 l0 -7 l2 5 l-2 2 ZM617 525 q16 0 28 -14 q-30 -49 -73 -87 q-7 -24 -14 -40 q-25 6 -44.5 -8.5 q-19.5 -14.5 -39.5 -2.5 q-2 -5 -12 -15 l-17 0 q-39 60 -69 128 q-10 14 6 25 l18 -7 q24 -57 51 -122 q7 -2 18 -11 q-4 17 11 31 q24 27 61 31 q37 4 53 47 l13 16 q-7 0 -13 2 q-87 -40 -110 -51 q-6 -10 -19 -23 l-9 0 q-13 7 -1 16 q12 9 14 20 q27 30 70 35 q43 5 78 30 ZM512 326 q11 -2 25 -11 q10 -27 -4 -47 q-35 -49 -82 -111 q-6 -20 14 -35 q15 -12 31 -24 q114 10 315 34 q16 9 33 13 q18 -10 14 -26 l-7 -3 l-10 -12 q-20 3 -41 4 q-92 -10 -146 -18 q-29 0 -58 0 l-2 -5 l-27 0 l-4 -5 l-24 -13 q22 -14 60 -43 q8 -16 16 -30 q-5 -16 -19 -34 q-22 -11 -63 -29 q-13 -2 -22 -4 q-11 0 -21 0 q-14 4 -26 11 l8 7 q24 9 55 11 q31 2 53 26 q10 17 -4 29 q-37 24 -88 61 q-28 -9 -55 -9 l-2 -3 q-73 -17 -161 -33 q-35 -27 -74 -27 q-2 -10 -8 -16 l-12 4 l-2 8 q-17 8 -29 18 q-8 15 4 26 q51 -1 104 7 q107 18 207 43 l-20 26 l-5 3 q-17 12 -11 35 q23 34 85 116 q11 14 0 30 l-13 0 q-4 6 -4 17 l-4 0 l-4 -9 l-8 -4 q0 -6 6 -12 l-6 -4 l-11 -10 q-16 -3 -27 -26.5 q-11 -23.5 -27 -6.5 q-13 16 6.5 25.5 q19.5 9.5 22.5 26.5 q44 22 72 29 ZM469 292 l0 -6 l3 4 l-3 2 ZM467 110 l0 -6 l2 4 l-2 2 ZM556 29 l5 0 l-3 2 l-2 -2 ZM253 29 l0 -7 l2 5 l-2 2 Z" /><glyph glyph-name="" unicode="&#x4eac;" d="M371 663 q2 0 35 -13 q25 -21 37.5 -50.5 q12.5 -29.5 36.5 -52.5 q10 -2 20 -2 q52 14 105 31 q130 26 145 31 q47 3 94 -7 q5 -18 -6 -28 q-14 -5 -27 -5 l10 9 l0 16 q-17 0 -28 7 l-3 -5 q-53 -8 -109 -16 l-5 -6 q-13 0 -22 0 q-29 -11 -127 -39 q-11 0 -18 0 l-2 -4 q-40 -13 -67 -18 q-47 -21 -172 -71 q-9 0 -15 0 l-6 -7 q-8 -6 -19 -6 l-3 -5 q-35 -22 -71 -18 q-17 18 9 31 l9 2 l2 -6 q30 -4 63 14 q106 49 219 86 q4 5 8 8 q-31 55 -76 98 l-17 2 q-11 13 0 24 ZM408 440 q10 -71 12 -143 q13 -46 20 -52 q0 30 21 55.5 q21 25.5 41 54.5 q25 16 54.5 38 q29.5 22 66.5 22 q12 -15 10 -35 q-14 -27 -63 -100 l-7 -2 q-18 -39 -49 -66 q0 -13 -7 -58 q4 -50 0 -94 q9 -40 24 -78 q-2 -4 -4 -8 q-8 -4 -15 -9 q-56 5 -167 11 q-10 2 -19 6 q78 0 154 22 q0 31 4 96 q-6 39 -12 51 l-23 3 q-43 76 -55 165 q-6 61 6 121 l8 0 ZM608 390 q-36 3 -59.5 -24 q-23.5 -27 -48.5 -44 q-28 -32 -35 -72 q-1 -29 0 -58 l7 0 l16 41 q16 -7 26 8 q19 37 52.5 69.5 q33.5 32.5 41.5 79.5 ZM135 108 q12 0 28 -4 l-8 -4 q-4 -8 -6 -17 q18 -54 34 -107 q36 -2 43 -6 q-11 -10 -18 -10 l-4 -6 q-32 6 -47 13 q-6 15 -12 29 q-8 43 -13 65 l-3 2 q-7 22 6 45 ZM674 67 q69 -24 143 -51 l5 -5 l42 -19 q12 -10 10 -25 l-6 -3 l-6 -6 q-35 9 -69 18 q-15 8 -27 16 q10 4 2 14 l-49 18 l-6 7 q-27 16 -56 5 q-7 9 -10 20 q7 2 27 11 Z" /><glyph glyph-name="" unicode="&#x4eba;" d="M368 605 q3 0 20 -9 q16 -16 0 -24 q-43 4 -64 -35 q-38 -59 -101 -157 q-17 -37 -33 -63 q-33 -67 -49 -139 l6 -2 q23 24 43 50 q33 55 55 115 q6 6 12 12 q15 -6 31 -10 l12 -12 l43 -31 l53 -53 l47 -35 l24 -26 l64 -55 l25 -29 q36 -26 83 -39 q127 -16 255 -32 q2 -15 -1 -19 q-71 4 -230 19 q-30 5 -104 22 q-26 27 -63 66 l-24 18 l-39 41 q-27 21 -72 59 l-35 37 q-24 16 -61 36 q-4 -2 -8 -4 q-40 -49 -69 -100.5 q-29 -51.5 -61 -101.5 q-17 -8 -25 -8 q6 92 47 182 q25 51 51 104 q80 127 121 190 q18 22 47 33 Z" /><glyph glyph-name="" unicode="&#x4ebf;" d="M212 610 q18 -16 16 -40 q-5 -50 -23.5 -92.5 q-18.5 -42.5 -26.5 -87.5 q0 -10 0 -21 q10 9 50 39 q11 -8 22 -14 q3 -16 9 -33 q-8 -75 -16 -133 q0 -65 -6 -120 q6 -14 10 -30 q-22 -45 -26 -62 l-2 6 q-11 7 -17 -6.5 q-6 -13.5 -12 -1.5 q-2 13 -2 25 q8 28 20 106 q11 118 18 221 l-11 -5 l-9 -8 l-6 -2 q-17 -18 -41 -51 q-12 -16 -28 -14 q-6 31 8 65 q24 67 60 169 q7 41 3 87 q2 1 6 5 l4 -2 ZM758 509 q30 -136 66 -272 q21 -43 27 -88 q13 -20 25 -39 q0 -8 0 -16 l-7 0 l-3 -7 q-6 -2 -13 -4 q-18 11 -49 21 l-4 4 q-10 -4 -20 0 l-4 -4 q-37 0 -61 -6 l-2 4 q-21 -4 -39 -8 q-104 -4 -172 -7 l-2 -4 q-55 -3 -107 9 q-7 6 -13 15 q-4 30 -9 52 l5 2 q24 49 41 82 q67 100 116 168 q23 32 12 65 q-18 4 -51 0 q-18 -18 -41 -12 l-20 -21 l-9 0 q-22 -23 -26 -50 l-16 -3 l-13 21 l9 4 l4 20 q18 16 35 23 l1 6 q51 20 102 40 q27 -2 47 -20 q11 -31 -2 -60 q-36 -53 -54 -83 l-11 -6 q-12 -25 -28 -54 q-23 -26 -41 -51 q-16 -31 -31 -63 q-10 -28 6 -48 q16 -7 61 -11 q111 14 223 14 q33 9 55 13 q35 0 72 0 q2 8 4 19 q-24 34 -19 79 l-4 2 q-8 24 -14 53 q-10 80 -16 139 l-4 2 q-6 61 -13 83 l7 -3 ZM170 396 l0 -6 l2 4 l-2 2 ZM802 230 l4 -4 l5 4 l-9 0 ZM453 87 l0 -5 l3 3 l-3 2 Z" /><glyph glyph-name="" unicode="&#x4ec0;" d="M619 679 q4 -7 14 -24 q2 -32 14 -167 q-10 -57 -8 -106 q82 33 170 31 l8 -19 q-13 -18 -31 -16 l-4 6 q-31 6 -61 -2 q-66 -16 -80 -22 q2 -123 6 -186 q-6 -64 -6 -186 l14 -2 q0 -10 4 -19 q-5 -11 -12 -24 q-14 -3 -28 -7 q-4 7 -9 15 q2 176 5 380 q-5 8 -7 16 q-6 0 -9 2 q-74 -20 -111 -30 q-30 -6 -61 -11 q-25 0 -43 7 q-15 14 0 30 l51 10 q10 -8 2 -18 q43 -6 83.5 13 q40.5 19 86.5 23 q3 42 16 94 q-11 47 -4 96 q-14 78 -19 113 l10 5 l9 -2 ZM268 494 q29 -30 11 -65.5 q-18 -35.5 -24 -67.5 q13 -3 25 7 q12 10 26 -2 q9 -11 11 -25 q-4 -24 -7 -49 q3 -127 5 -210 q-7 0 -23 -10 q-4 4 -8 8 q2 65 8 165 q-4 59 -4 94 l-8 2 q-45 -39 -76 -86 l-21 0 q27 84 72 172 q13 13 -2.5 34 q-15.5 21 10.5 33 l5 0 ZM743 390 l0 -6 l2 4 l-2 2 Z" /><glyph glyph-name="" unicode="&#x4ec5;" d="M233 567 q4 -6 8 -9 q4 -33 -6 -60 l-9 4 q-20 -33 -43 -80 q16 7 22.5 -7.5 q6.5 -14.5 20.5 -14.5 q-1 -76 -5 -153 q-22 -64 -25 -128 l14 8 q11 -17 2 -40 q-6 -13 -12 -26 l-24 -14 q-22 31 -13 73 q15 58 31 117 q6 76 8 151 q-14 6 -21 -7 q-7 -13 -16 -13 q-16 -31 -41.5 -51 q-25.5 -20 -31.5 -54 q-10 -4 -25 -6 q-9 24 10 46.5 q19 22.5 33 43.5 l4 2 q5 11 25 39 q73 157 86 182 l8 -3 ZM588 559 q24 4 41 -14 q12 -45 -17.5 -79.5 q-29.5 -34.5 -44.5 -69.5 l-9 -6 q-2 -8 -31 -47 l-13 -6 l-2 -11 l-10 -7 q-37 -19 -21.5 -40.5 q15.5 -21.5 30.5 -35.5 l30 -24 q37 -41 69 -76 q27 -21 60 -45 q71 -18 147 0 q69 -4 124 -15 l2 -11 q-98 0 -262 0 q-54 -3 -85 47 l-49 60 l-40 33 l-49 49 q-54 -57 -145 -159 l-7 5 q0 12 0 25 q9 25 15 38 q3 -7 14 -16 l10 7 q0 33 66.5 70 q66.5 37 10.5 73 l-42 25 l-9 -8 q0 12 -11 22 q-11 10 6 25 l22 0 l16 -19 q60 -45 65 -45 q85 89 141 198 q11 21 -3 37 q-31 6 -56.5 -8.5 q-25.5 -14.5 -50.5 -21.5 l-6 -7 l-43 -24 l-6 -6 q-45 -19 -74 -55 l-2 -6 l-20 -18 l-23 -46 l-7 -2 q-25 19 -3.5 37 q21.5 18 31.5 36 q51 44 111.5 81.5 q60.5 37.5 129.5 59.5 Z" /><glyph glyph-name="" unicode="&#x4eca;" d="M373 650 q3 0 11 -5 q-4 -12 2.5 -24.5 q6.5 -12.5 -8.5 -15.5 q71 -68 161 -111 q61 -30 227 -106 q47 -28 96 -55 q-29 -7 -48 13 q-19 20 -44 20 l-4 3 q-21 13 -31 13 l-6 6 q-14 2 -27 6 l-3 4 q-107 47 -195 88 q-61 39 -155 92 l-10 -13 l-10 -2 l-8 9 q-27 -33 -53 -63 q-38 -60 -103 -156 l-14 0 q-12 13 -2 27 l25 16 q18 37 71 116 q72 93 86 111 q18 8 42 27 ZM335 406 q8 0 29 -13 q9 -15 20 -27 q14 -49 6 -94 q-6 3 -10 9 q-4 45 -27 87 l-18 14 q-18 14 0 24 ZM490 247 q12 -6 31.5 0 q19.5 6 32.5 -6 q-17 -67 -54 -141 q-36 -55 -80 -133 q-14 -2 -26 0 q0 17 2 29 q33 33 44 78 l22 16 q18 35 36 71 q18 31 16 64 q-77 -10 -190 -29 q-32 -18 -63 -33 l-10 -9 l-26 -5 q-15 12 -4 29 q63 28 134 45 q74 12 135 24 Z" /><glyph glyph-name="" unicode="&#x4ece;" d="M599 602 q-5 -22 -9 -59 q-4 -6 -8 -10 l-17 -8 q-71 -88 -109 -192 q-60 -108 -88 -221 l36 33 q-4 -37 -31.5 -63 q-27.5 -26 -39.5 -58 q-16 -8 -33 -8 q-2 11 -2 20 q28 68 63 150 q0 6 0 14 q-35 6 -114 33 q-32 4 -53 -18 q-16 -25 -27 -45 q-10 -11 -20 -21 q-18 -20 -43 -14 q0 16 0 32 q61 157 111 293 q8 12 18 24 q17 12 32 -2 q3 -6 7 -13 q-7 -18 -11 -42 l-8 0 l-10 10 q-15 -24 -28 -49 q-23 -66 -68 -184 q2 -4 4 -8 l49 49 q12 6 26 14 q44 -8 84 -29 q35 -18 70 -2 q14 35 31 72 q126 252 154 302 l13 6 l21 -6 ZM490 345 q8 -10 19 -19 q3 -16 16 -48 q42 -74 85 -149 q37 -42 62 -76 q49 -35 107.5 -14 q58.5 21 113.5 14 l1 -4 q-26 -10 -75 -25 q-74 -12 -93 -18 q-29 0 -58 0 q-25 47 -63 86 q-58 98 -121 189 q-4 16 -12 27 q-10 23 10 37 l8 0 Z" /><glyph glyph-name="" unicode="&#x4ed6;" d="M206 676 q11 0 19 -6 q8 -37 -6 -71 q-11 -19 -19 -38 q-30 -38 -63 -81 l6 -4 l6 6 q12 8 28.5 14 q16.5 6 28.5 -14 q17 -39 17 -80 q-2 -33 -4 -92 q-9 -55 -13 -85 q-6 -55 6 -103 l9 9 l7 0 q0 -31 -18 -53 l-16 -2 l-2 -7 l-9 -2 q-4 5 -7 9 q0 55 -2 94 q9 124 20 224 q8 41 -18 70 q-13 -6 -57 -40 q-19 -26 -36 -42 l-7 -2 q-2 22 4 53 q45 61 90 128 q29 54 36 115 ZM645 633 q25 2 43 -16 q14 -27 1 -56.5 q-13 -29.5 -26 -48.5 q-67 -69 -159 -90 q5 -24 -12 -40 q-61 -33 -116 6 q-3 -4 -3 -6 q67 -74 156 -170 q73 -67 159 -116 q43 -27 70 -36 q116 -72 149 -96 l20 -24 l-4 0 l-6 9 q-8 0 -29 9 l-6 6 l-42 22 l-9 8 q-34 17 -150 80 q-50 30 -158 107 q-88 93 -190 201 q-12 2 -25.5 19 q-13.5 17 -26.5 3 q-3 4 -6 11 q6 25 13 45 q14 2 34 0 q17 7 115 63 q-2 22 -17.5 41 q-15.5 19 -8.5 46 q11 7 20 -8 l33 -61 q48 29 116 67 q32 13 65 25 ZM635 608 q-43 -18 -104 -43 l-6 -6 q-14 -5 -24.5 -17.5 q-10.5 -12.5 -22.5 -5.5 q-25 -20 -5.5 -40 q19.5 -20 19.5 -38 q17 -27 47 -5 q61 27 111 78 q9 14 19 35.5 q10 21.5 -3 41.5 l-31 0 ZM443 509 l-12 -5 l-2 -6 l-14 -6 l-7 -6 l-10 0 l-2 -6 q-43 -24 -67 -40 l20 -22 q39 -25 88 -30 q21 -4 39 10 q2 6 6 13 q-17 49 -37 96 l-2 2 Z" /><glyph glyph-name="" unicode="&#x4ee3;" d="M512 676 q2 0 19 -4 q14 -22 27 -41 q-2 -4 -4 -6 l-9 0 l-6 10 l-8 -4 q-8 -51 10 -96 q18 -45 37 -88 q12 -14 25.5 4 q13.5 18 27.5 18 q0 19 2 27 l17 -10 l5 -19 q-10 -7 -18 -14 l-6 -6 q-24 -12 -45 -29 q21 -69 37 -116 q31 -63 67 -135 l9 -6 l-4 -2 l4 -2 q5 -6 18 -20 q26 -70 76 -123 q4 4 13 86 q15 65 21 74 q-3 -39 -5 -82 q11 -74 9 -147 q-16 -4 -29 -5 q-73 118 -171 283 q-21 45 -41 90 q-10 47 -29 87 q-16 -7 -22 -7 l-2 -5 q-41 -35 -49 -39 l-19 -23 q-9 -13 -20 0 q-6 19 9 35 q51 33 83 52 l2 4 l15 7 q-15 43 -42 107 q-5 30 -12 63 q-8 45 8 82 ZM719 668 q7 -16 32 -51 l13 -10 q0 -24 22.5 -34 q22.5 -10 19.5 -28 l-9 4 l-17 16 l-14 7 l-18 18 l-22 15 q-1 14 -19.5 29.5 q-18.5 15.5 -5.5 33.5 l7 6 l11 -6 ZM225 507 q8 0 20 -11 q0 -22 2 -32 q-19 -80 -32 -143 l24 14 l33 33 l12 -4 q13 -6 7.5 -19.5 q-5.5 -13.5 0.5 -22.5 l5 -1 q0 -66 -19 -125 q-19 -59 -15 -120 l12 0 q17 -23 -5 -41 q-15 -15 -33 -11 q-9 50 4 103 q24 123 29 130 q0 60 -5 67 l-8 -7 l-7 -4 l-58 -60 l-27 -6 q29 94 54 193 q-7 36 6 67 ZM697 135 l0 -6 l2 3 l-2 3 Z" /><glyph glyph-name="" unicode="&#x4ee5;" d="M558 520 q20 -8 36 -20 q-2 -67 -17.5 -131.5 q-15.5 -64.5 -2.5 -129.5 q-9 -31 -15 -61 q4 -6 11 -13 q12 2 24 7 q121 -5 244 2 q3 -4 9 -9 l9 -14 l-16 0 l-7 -12 q-6 -4 -20 -4 l-2 -4 q-76 -21 -148 -37 q82 41 92 49 q-5 2 -10 4 q-116 -6 -184 -10 q-9 2 -20 4 q-16 18 -8 47 q6 20 12 42 q2 128 16 254 l-5 -4 l-19 -40 l-1 5 q-5 -5 0 -10 l-9 -2 q-2 4 31 87 ZM531 424 l-8 -13 l4 13 l4 0 ZM514 396 q-12 -32 -38 -106 q-14 -39 -45 -62 l-29 -13 q-9 36 -14 63 q-10 39 -28 71 l-15 -14 l-6 4 q10 12 -1.5 24.5 q-11.5 12.5 9.5 24.5 q17 10 29 -6 q28 -60 37 -125 l7 -4 q13 12 25 27 q17 22 27 51 q10 29 35 51 q0 8 2 16 l5 -2 ZM176 335 q24 -43 18 -94 q8 -26 25 -60 q9 -2 20 5 l11 18 l38 33 q9 -18 -10 -37 q-17 -19 -33 -37 q-10 -2 -18 -11 q-8 -9 -15 3 q-29 31 -40 70 q-2 32 -9 69 l-16 8 q-4 11 0 31 l18 6 l11 -4 Z" /><glyph glyph-name="" unicode="&#x4eec;" d="M516 631 q7 -14 13 -29 q-10 -95 10 -189 q-10 -15 -20 0 q-12 67 -21 139 q-12 47 6 83 l12 -4 ZM286 631 q6 0 14 -6 q2 -8 6 -15 q-25 -30 -34 -67 q-9 -43 -21 -94 q4 -6 10 -12 q9 -26 19 -64 q-2 -24 -5 -47 q0 -71 13 -138 q0 -51 0 -101 q-4 -9 -8 -18 q-21 -11 -35 7 q-4 24 0 69 q8 16 10 31 q-4 14 -5 30 q0 84 3 163 q-6 13 -10 27 l-8 0 l-36 -53 q-11 2 -17 -6 q-6 -8 -12 4 q0 8 0 17 q16 26 40 60 q13 33 27 66 q6 68 28 133 l21 14 ZM768 583 q25 -1 53 -5 q3 -6 10 -13 q-16 -107 -14 -218 q5 -50 10 -108 q-5 -16 -6 -31 q1 -9 6 -20 q-3 -105 -5 -196 l-5 -2 l-6 -8 l-11 0 q-14 24 -20 30 l-57 48 l-15 14 l-89 48 l0 5 q42 -13 62 -17 l3 -3 q24 -17 54 -25 q30 -8 52 -31 q5 2 8 5 q-1 4 -3 9 q3 57 7 109 q-9 45 -7 94 q2 12 5 26 q-2 16 -5 35 q0 165 2 225 q-13 7 -23 2 l-4 5 q-19 -3 -44 -7 l-3 4 l-2 -4 q-49 -7 -71 -9 l-5 -4 q-26 -22 -33 -22 l-10 -21 l-10 -6 q-10 6 2 17 l11 7 l16 33 q29 27 69.5 25 q40.5 -2 77.5 9 ZM400 498 q6 -8 17 -33 q1 -30 5 -57 q-11 -48 -5 -98 q5 -13 7 -32 q-4 -10 -6 -19 q13 -81 6 -163 l-7 -2 l-2 -11 q-13 -7 -19 4 q-6 27 -8 60 q2 18 6 36 q2 89 -4 178 q6 35 6 61 q-27 31 -14 68 l14 10 l4 -2 Z" /><glyph glyph-name="" unicode="&#x4ef6;" d="M681 710 q5 -8 9 -13 q0 -45 -14 -82 q-10 -66 3 -123 q13 0 31.5 8.5 q18.5 8.5 30.5 -8.5 q12 -27 -15 -45 q-9 -7 -25 -7 q0 7 8 15.5 q8 8.5 -1 18.5 q-24 -7 -32 -12 q-4 -80 0 -174 q57 10 96 20 q-11 18 -22 45 q10 -4 34 -20 l14 -18 l33 -23 q7 -18 -7 -27 q-7 -2 -13 -4 q-35 9 -68 13 q-35 -9 -67 -15 l-2 -6 l-4 -2 q0 -12 2 -114 q4 -18 9 -110 q-2 -16 -2 -84 q18 -18 11 -39 l-38 16 q-7 13 -11 27 q0 43 9 125 q-7 107 -11 181 q-83 -18 -165 -32 q-10 2 -18 5 q0 7 -5.5 14 q-5.5 7 7.5 13 q18 0 26 4 l6 -6 q6 -1 12 -1 q68 15 137 34 q2 69 8 163 l-8 6 l-2 -4 q-74 -31 -79 -31 l-2 -3 q-29 0 -58 -23.5 q-29 -23.5 -53 1.5 q-14 20 -8 47 q14 27 37 85 l10 2 q10 -15 6 -35 q-26 -39 -26 -75 q32 -2 67 14 q52 22 108 45 q4 6 8 12 q-8 104 8 209 l24 16 l2 -3 ZM268 512 q4 -12 16 -45 q-3 -3 -4 -7 l-10 4 q-11 -21 -17 -40 l19 -16 q18 -35 18 -73 q-29 -100 -18 -194 l18 18 q4 -28 -6 -52.5 q-10 -24.5 -16 -48.5 l-27 -15 q-4 6 -4 26 q4 72 13 182 q5 30 13 64 q7 36 -13 67 l-31 -22 q-19 -29 -33 -63 q-12 -16 -25 -5 q0 27 11 55 q11 17 24 33 l4 2 q12 20 25 42 q16 48 34 92 l9 -4 Z" /><glyph glyph-name="" unicode="&#x4ef7;" d="M519 721 q1 -8 6 -15 q-29 -40 -90 -130 q0 -6 0 -13 q55 -30 101 -75 q25 -14 52 -28 q98 -25 192 -70 l4 -4 q84 -37 123 -51 l2 -16 q-78 28 -180 69 q-84 29 -108 32 l-4 4 l-5 -4 q-36 9 -56 15 q-58 67 -138 96 q-32 -51 -40 -109 q-7 0 -17 -5 l-3 3 l-9 2 q-20 23 -2 52 q68 106 162 247 l10 0 ZM221 563 q12 -20 7 -43 q-29 -73 -47 -112 q11 0 27 -4 q20 -35 13 -80 q-22 -105 -15 -214 l-10 0 l-13 -12 l-11 9 q2 34 11 136 q5 22 11 45 q2 72 -2 83 q-13 7 -20 -6.5 q-7 -13.5 -13 -13.5 q-27 -25 -39 -57 q-13 -13 -26 -4 q-2 32 16 61 l21 18 q24 48 50 96 q21 78 29 100 l11 -2 ZM558 345 q5 0 20 -10 q2 -9 12 -18 q-4 -27 -10 -36 q-4 -69 -6 -179 q-16 -132 -27 -208 q-22 60 -14 133 q4 47 10 87 q4 86 -6 167 l-18 -16 q-19 -37 -50 -110 q-24 -35 -49 -70 l-24 -13 q-3 4 -6 40 q4 29 0 138 q4 24 8 48 l15 2 q2 -3 5 -8 q-12 -31 -5 -64 q2 -81 5 -89 l25 22 q31 27 38 70 q7 43 44 73 l20 11 q2 9 13 30 Z" /><glyph glyph-name="" unicode="&#x4efd;" d="M507 621 q13 -19 2 -38 q-17 -24 -31 -47 q-29 -72 -38 -96 q27 9 105 34 q33 10 55 -12 q10 -29 -8 -51 q-43 -53 -69 -107 q47 13 96 33.5 q49 20.5 102 -4.5 q39 -31 27 -78 q-42 -92 -96 -220 q-23 -21 -45 -41 q-15 6 -27 -4 q-21 18 -9 44 q12 26 23 46 l21 0 l8 -27 q45 86 90 177 q28 50 -11 83 q-41 9 -81 2 q-72 -21 -131 -62 q-10 -2 -25 -3 q37 87 107 174 q10 16 -7 27 q-69 -16 -130 -53 q-22 -5 -39 -4 q0 8 0 17 q33 77 84 206 l12 8 l15 -4 ZM731 615 q22 -15 53 -35 q13 -15 51 -68 q12 -28 5 -48 l-7 3 q-14 40 -47 69 q-36 23 -63 46 q-13 20 8 33 ZM261 582 q2 -6 7 -12 q-17 -72 -27 -135 q22 2 40 -13 q19 -120 -3 -241 q16 -11 12 -32 q-16 -17 -31 -30 l-22 3 q-2 7 -4 13 q14 112 30 238 q-4 11 -6 21 l-7 2 q-13 -16 -69 -83 q-11 8 -22 -3 q-4 5 -5 16 q45 62 67 138 q4 55 16 110 l14 12 l10 -4 Z" /><glyph glyph-name="" unicode="&#x4f18;" d="M729 702 q8 -7 16 -16 q-10 -53 19 -97 q29 -44 29 -93 l-3 0 q-22 41 -61 131 q-23 39 -3 75 l3 0 ZM547 596 q7 -26 20 -80 q29 -18 66 -18 q46 -34 0 -61 q-74 -44 -143 -88 q-14 -61 -23 -96 q0 -57 -16 -110 q-4 -39 0 -43 q5 16 33 104 q2 22 6 46 q14 20 19 25 l14 0 q6 -12 14 -22 q-4 -30 0 -51 q-6 -32 -12 -57 q6 -31 6 -82 q-2 -36 23 -61 q11 -6 24 -10 q49 -2 94 -2 l4 -6 l3 6 l9 -4 l4 4 l59 0 l4 -4 q62 -8 105 -10 q0 24 -6.5 49.5 q-6.5 25.5 -9.5 52.5 q-27 69 -40 87 q-18 56 -18 68 q47 -96 96 -194 q20 -49 18 -98 l-7 4 l-9 -14 l-10 -2 l-2 7 q-6 0 -43 5 l-7 6 l-5 -6 l-4 4 q-9 2 -16 6 l-4 -8 l-60 8 l-4 5 q-21 0 -39 -5.5 q-18 -5.5 -35 3.5 l-1 -5 q-37 11 -72 5 l-4 4 l-11 -4 l-4 4 l-11 2 l-5 4 l-14 8 q-19 28 -29 48 q-6 67 -12 111 q0 6 6 52 q-4 5 -6 9 q-4 -6 -8 -13 q-2 -18 2 -40 q-6 -19 -14 -92 q-8 -18 -14 -36 l-5 -3 l-2 -8 l-22 -14 q-14 18 -12 43 q5 67 34 239 q9 32 -2 61 l-4 -7 q-25 -12 -57 -32 l-12 -15 l-7 0 q-5 -14 -20 -30 q-12 0 -24 -9.5 q-12 -9.5 -19 5.5 q-12 20 7 37 q9 2 22 12 l6 7 q30 13 92 44 q14 10 29 20 q12 57 16 124 q4 67 55 114 l14 -3 ZM547 561 q-11 11 -20 -5 q-27 -49 -33 -105 q-10 -40 -2 -75 q55 32 64 32 l3 7 l62 43 l0 9 q-27 19 -63 52 l-11 42 ZM235 552 q2 0 10 -7 q5 -38 -6 -73 l-11 12 q-3 -4 -20 -31 q-22 -69 -57 -179 q3 -2 4 -4 q12 10 24 16 l13 12 q10 6 22 18.5 q12 12.5 29 4.5 q10 -35 12 -76 q-22 -126 -12 -253 l22 14 q3 -7 7 -16 q-19 -26 -39 -61 l-21 -7 l-2 -5 l-8 -2 q-2 14 -3 30 q27 61 15 132.5 q-12 71.5 12 139.5 q4 38 -5 73 l-9 -9 l-6 0 q-18 -20 -79 -89 l-19 -9 q-10 21 2 43 q33 98 69 214 q21 58 56 112 ZM206 302 l0 -5 l2 3 l-2 2 ZM163 250 l0 -7 l2 4 l-2 3 ZM502 230 q-12 -13 -6 -31 q8 1 5 11.5 q-3 10.5 3 17.5 l-2 2 Z" /><glyph glyph-name="" unicode="&#x4f1a;" d="M368 666 l3 -5 l35 -28 q52 -61 113 -124 l18 -17 l35 -34 q141 -121 304 -207 l4 -8 q-8 0 -98 43 q-74 45 -114 69 q-41 29 -139 109 l-55 55 l-18 17 q-23 22 -45 47 q-11 7 -27 14.5 q-16 7.5 -24 -7.5 q-15 -16 -27 -32 q-14 -29 -33 -60 l-10 -8 q-12 -18 -29 -45 q-49 -55 -87 -102 q-7 -19 -11 -22 l20 -21 q-18 -20 -42 -16 q-21 8 -12.5 24 q8.5 16 14.5 31 q38 51 135 172 q16 26 32 52 q9 49 35 91 l15 12 l8 0 ZM361 382 l19 -22 q28 -17 60 -39 l9 -11 l7 -2 q16 -14 11 -34 l-7 -6 l-15 20 q-23 18 -47 29 l-8 7 l-10 0 l-2 5 q-12 8 -35 12 q-12 14 -8 37 l12 6 l14 -2 ZM427 208 q22 -2 47 -8 q38 -30 8 -68 q-29 -18 -49 -46 q-20 -28 -51 -37 l-9 -9 q-20 -7 -52 -29 l0 -9 q65 -3 130 11 q65 14 132 9 q54 -8 98 -30 l0 -8 q-56 -33 -120 -30 l0 6 q49 20 58 26 q-41 14 -82 10 q-117 -8 -227 -26 q-40 -8 -73 8 l0 16 q37 33 89 49.5 q52 16.5 89 56.5 q5 16 32 32.5 q27 16.5 9 41.5 q-56 12 -103 -17.5 q-47 -29.5 -96 -29.5 q-18 8 -10 28 q113 31 180 53 Z" /><glyph glyph-name="" unicode="&#x4f3c;" d="M247 615 q3 0 14 -7 q11 -22 2.5 -43.5 q-8.5 -21.5 -6.5 -39.5 q-20 -58 -31 -78 q15 -30 37 -57 q0 -24 2 -171 l-4 -2 q4 -18 4 -109 l9 0 q67 129 90 278 q16 18 36 2 q13 -22 13 -33 l4 -2 q1 -51 7 -114 q3 -11 7 -18 q9 -15 25 -4 q26 53 38 69 q0 8 15 38 q16 44 20 93 l8 3 q15 -36 43 -99 l6 3 q16 49 41 107 q-19 -70 -37 -139 l-14 -12 q-11 18 -24 46 l4 3 l-7 4 l-13 45 l-7 0 q-17 -43 -23 -88 q-6 -45 -32 -80 q-12 -8 -24.5 -21 q-12.5 -13 -25.5 -1 q-18 16 -18 42 q-4 70 -22 138 l-8 -4 q-23 -72 -66 -209 q0 -10 0 -18 q-22 -54 -55 -125 l-16 -12 q-6 12 -6 29 q4 43 10 87 q0 145 0 170 l4 2 l-4 2 q0 78 4 83 q-10 9 -19 20 l-13 -5 q-19 -28 -37 -71 l-19 -9 q-20 21 -4.5 45.5 q15.5 24.5 28.5 42.5 l11 8 q21 52 53 154 q-2 41 0 57 ZM674 537 q5 -23 14 -51 q-2 -8 0 -30 q-29 -80 -14 -156 q5 -3 7 -6 q64 3 79 0 l4 4 l6 -4 l4 4 q45 6 86 -14 l2 -19 l-9 0 l-4 -4 l-4 -2 l-4 -8 q-22 -6 -46 -10 l-5 4 q-82 -30 -124 -43 q-27 -12 -35 -19 q-23 -5 -31 -5 l-4 -6 q-13 6 -22 -6 q-9 -12 -20 -7 l-5 -5 l-13 0 q60 36 109 63 q54 20 108 42 l0 9 q-51 -3 -85 0 l-2 4 l-9 3 q-18 27 -14 64 l4 2 l-4 2 q9 61 23 122 q0 68 4 72 l4 0 ZM245 516 l0 -5 l2 3 l-2 2 ZM257 366 l0 -6 l2 4 l-2 2 ZM259 135 l0 -6 l2 3 l-2 3 ZM275 67 l0 -6 l3 4 l-3 2 Z" /><glyph glyph-name="" unicode="&#x4f46;" d="M251 623 q19 -27 8 -58 q-26 -73 -51 -147 q13 -3 24 5 q11 8 25 1 q4 -6 8 -11 q-4 -5 -8 -23 q15 -29 2 -57 q6 -23 7.5 -45.5 q1.5 -22.5 5.5 -42.5 q-15 -129 -27 -239 q-4 2 -22 -12 q-6 6 -11 12 q7 25 13 50 q5 109 18 234 q-8 49 -17 98 l-11 -8 q-19 -20 -36.5 -42.5 q-17.5 -22.5 -15.5 -47.5 q-14 -9 -22 -9 q-14 25 0 56 q61 103 96 221 q13 14 -1.5 33 q-14.5 19 9.5 32 l6 0 ZM431 549 q6 -6 12 -12 q-8 -97 26 -184 q35 -55 45 -98 l-16 0 q-4 10 -29 47 q-24 58 -29 76 q-22 110 -29 165 q2 4 6 9 l14 -3 ZM661 498 q45 9 80 -22 q12 -25 15.5 -55.5 q3.5 -30.5 -15.5 -49.5 q-37 -28 -79.5 -59 q-42.5 -31 -89.5 -18 q-23 23 -47 53 q-13 17 4 29 q73 18 130 35 q20 -13 10 -27.5 q-10 -14.5 -14 -25.5 l-12 3 l-2 15 q-20 6 -35.5 -13.5 q-15.5 -19.5 -33.5 -17.5 q-2 -23 18 -30 q37 -7 66.5 21 q29.5 28 62.5 42 q20 12 17 42.5 q-3 30.5 -21 46.5 q-36 15 -76 11 q-18 -6 -47 -11 q-22 -14 -55 -38 l-4 -12 l-14 -9 q-19 7 -6.5 21 q12.5 14 6.5 27 q30 11 64 26.5 q34 15.5 72 13.5 l4 4 l2 -2 ZM719 157 q51 -8 71 -12 q32 9 57 9 q11 -9 22 -15 q3 -8 -3 -17 q-25 -10 -42 -14 q-9 11 -19 6.5 q-10 -4.5 -19 -6.5 q-25 21 -57 27 q-63 -3 -104 0 q-86 -15 -167 -43 q-11 4 -21 8 q0 12 3 20 q67 25 137 25 q70 0 142 12 Z" /><glyph glyph-name="" unicode="&#x4f4e;" d="M460 650 q40 -7 73 -33 q28 -29 57 -56 q9 -16 9.5 -37.5 q0.5 -21.5 -9.5 -33.5 l-10 0 q-13 30 -19 62 l-7 4 q-17 36 -45 65 q-25 10 -51 14 q-23 -12 -41 -20 q-13 -25 -25 -50.5 q-12 -25.5 -8 -52.5 q-2 -81 -4 -377 q-4 -74 38 -129 q19 0 31 6 q13 41 25 73 l8 -3 q8 -29 2 -58 q-8 -12 -15 -24 q-32 -35 -67 -10 q-16 22 -31 49 q-10 63 -16 112 q5 82 11 365 q0 72 52 121 l42 13 ZM284 525 q6 -9 14 -14 q-35 -89 -59 -142 q0 -5 0 -11 q24 -7 41 -25 q1 -9 6 -14 q-5 -17 -16 -96 q2 -49 -7 -94 q18 -15 12 -37 q-10 -25 -18 -49 q-6 0 -24 -8 q-5 4 -7 26 q15 86 24 115 q-5 3 -5 83 q6 19 12 56 q-12 11 -27 4.5 q-15 -6.5 -26 -9.5 q-32 -45 -49 -69 l-10 0 q0 14 -5 33.5 q-5 19.5 14 33.5 l48 37 q19 37 39 72 q18 52 34 108 l9 0 ZM635 449 q41 -4 86 -9 q29 -16 20.5 -47.5 q-8.5 -31.5 -31.5 -43.5 q-6 -2 -44 -32 q29 -87 49 -139 q22 -37 45 -74 q12 6 12 21 l8 6 q58 97 84 144 q2 -5 -11 -42 q-24 -59 -47 -114 q-13 -63 -20 -90 l-6 6 q-2 -6 -6 -15 l-13 0 q-3 4 -8 9 q-3 14 -16 53 q-16 30 -40 72 q-18 46 -50 136 q-6 7 -12 12 q-63 -30 -115 -77 l-18 -29 l-12 -2 q-4 18 0 45 q24 18 141 85 q-19 56 -24 93 q3 10 10 23 l16 11 l2 -2 ZM674 431 q-22 0 -37 -13 q-6 -45 20 -79 q19 8 56 37 q0 8 12 15 q12 7 1 20 q-22 18 -50 18 l-2 2 ZM541 255 l0 -5 l2 3 l-2 2 ZM549 127 q9 -11 18 -19 q27 -43 38 -90 l-11 0 q-22 35 -22 42 l-5 1 q-6 15 -23 30.5 q-17 15.5 -5 35.5 l10 0 Z" /><glyph glyph-name="" unicode="&#x4f4f;" d="M539 657 q13 -20 35 -58 q16 -9 51 -40 q18 -20 -2 -34 l-11 0 q0 14 -5 22 q-31 20 -49 35 l0 6 l-9 2 q-26 25 -26 64 l10 5 l6 -2 ZM633 465 q8 0 26 -5 q11 -20 2 -40 q-9 -20 -9 -38 q-13 -22 -25 -45 q-78 -100 -108 -141 q1 -2 4 -4 q29 -4 58 5 q29 9 58 22 q-8 20 8 36 l19 0 l15 -20 q14 -7 27 2.5 q13 9.5 25 -7.5 l0 -9 q-23 -21 -52 -21 q-7 -22 -18 -59 q-13 -78 -20 -105 q2 -5 4 -12 q41 3 84 4 q43 1 86 -6 q2 -11 -2 -23 q-11 -13 -22 -9 q-56 9 -112 9 q-34 -13 -79 -21 l-2 -4 q-18 2 -32 -8 q-14 -10 -29 1 l-2 -3 q-35 -4 -41 0 q-14 18 2 35 q51 15 107 15 q20 37 28 84 q6 47 2 92 q-35 -11 -81 -23 q-42 -2 -52 -4 q-8 9 -12 25 q47 86 117 159 q32 43 26 90 q-34 -10 -77 -20 l-2 -4 q-17 0 -31 -17.5 q-14 -17.5 -27 -2.5 q-6 20 15 29 q72 23 122 43 ZM253 447 q25 -20 15 -51 q-21 -83 -25 -108 q20 22 47 4 q10 -22 20 -51 q-16 -102 -30 -192 q4 -13 8 -25 q-7 -10 -13 -20 q-12 -14 -25 -12 q-3 16 -5 32 q10 52 20 103 q3 54 10 120 q-5 6 -10 14 q-18 0 -25 -12 q-7 -12 -19 -19 l-11 -18 q-16 -13 -27 -16 q-2 19 0 30 q42 71 58 152 q0 62 4 69 l8 0 Z" /><glyph glyph-name="" unicode="&#x4f55;" d="M898 652 q29 -15 15 -42 l-17 -3 l-5 14 l-15 12 l-7 8 l-13 -4 l-5 -4 q-13 6 -26.5 -1 q-13.5 -7 -26.5 -1 l-3 -4 l-9 -2 l-4 4 l-4 -4 q-10 -2 -49 -8 q-50 -18 -162 -50 l-4 -4 q-20 -4 -34 -7 l-2 -4 l-29 -7 l-2 -6 l-6 4 l-4 -4 q-46 -14 -98 -28 q-24 1 -47.5 -6 q-23.5 -7 -42.5 7 l0 21 l15 8 l6 -5 q87 -11 173 25 l4 4 q100 31 192 56 l4 4 q59 10 155 27 l51 0 ZM253 617 q-32 -65 -63 -139 l-4 -2 q-7 -16 -7 -36 q17 9 38 27 q22 7 42 -7 q11 -23 15 -45 q-13 -68 -21 -130 q-8 -62 -8 -128 l6 -2 q4 -16 10 -23 q-6 -30 -14 -69 l-6 6 l-2 -4 l-20 -12 q-17 30 -9 69 q11 121 16 180 q11 56 21 113 q-2 5 -4 14 q-24 14 -43 -11 l-8 -10 l-6 -2 l-16 -26 l-7 -2 q-9 -20 -26.5 -34.5 q-17.5 -14.5 -20.5 -35.5 q-12 -2 -29 -10 q-13 6 -6.5 20.5 q6.5 14.5 13.5 26.5 l8 6 q47 96 117 241 q6 8 14 18 l17 7 l3 0 ZM719 559 q6 -7 14 -14 q-7 -87 -8 -185 q4 -60 12 -307 q-6 -26 -11 -65 q-3 -4 -7 -8 q-13 2 -20 -6.5 q-7 -8.5 -15 6.5 q-27 47 -67 81 q-7 2 -35 21 l0 10 l4 -2 l4 4 q20 -7 53 -20 l7 -7 l7 -2 l15 -14 l14 -8 q4 92 13 187 q-2 9 -7 25 q3 113 0 231 q-24 0 -42.5 -18.5 q-18.5 -18.5 -34.5 -27.5 q-35 -46 -41 -103 l-4 -2 q-11 -41 -31 -107 q-19 -40 -43 -77 q-14 -16 -31 -12 q-14 28 2 60 l-3 1 q5 25 12.5 54.5 q7.5 29.5 1.5 60.5 l-6 2 q-12 -25 -21 -52 q-8 -46 -8 -89 q-6 -11 -12 -19 q-13 -10 -29 -6 q-29 53 -24 117 q2 38 4 77 q6 8 4 24.5 q-2 16.5 16 24.5 q6 2 22 -6 q0 -6 3 -10 q-10 -25 -16 -49 q-3 -41 -3 -79 l7 -3 q9 33 20 70 q10 16 23 32 q20 22 40 -2 q13 -26 13 -55 q-7 -24 -9 -57 l7 -2 q22 41 36 67 q7 24 29 100 q9 24 34 65 q21 17 55 39 l32 52 l11 3 l13 0 Z" /><glyph glyph-name="" unicode="&#x4f5c;" d="M440 672 q16 -35 -6.5 -68.5 q-22.5 -33.5 -6.5 -64.5 q65 -3 132 22 q125 46 231 80 q14 2 27 -8 q5 -12 -6 -20 q-11 -8 -11 -19 q-24 -22 -50 -35 l-13 -14 l-24 -8 q-11 8 5.5 13.5 q16.5 5.5 16.5 14.5 l39 31 l8 12 q-10 0 -21 0 q-69 -22 -132 -41 l-2 -4 q-104 -34 -158 -51 q-29 -10 -54 4 q-19 20 -17 45 q13 54 24 102 q5 5 9 11 l9 -2 ZM250 545 q18 -31 6.5 -64.5 q-11.5 -33.5 -11.5 -62.5 q18 9 39 -1 q22 -17 20 -44 q-4 -34 -4 -56 q-3 -9 -10 -36 q-6 -28 7 -48 q22 24 30 57.5 q8 33.5 26 64.5 q2 -2 5 -4 q-21 -61 -37 -128 q-11 -40 -37 -66 l-14 0 q-9 42 -11 64 q9 71 21 147 q-5 8 -6 18 q-24 10 -43 -9 q-19 -19 -31 -28 l-8 -14 q-9 -4 -25 -9 q-10 23 7 42 q30 25 47 61 q12 59 22 118 l7 -2 ZM543 498 q22 -22 22 -53 q0 -92 0 -184 q9 -104 15 -194 q2 -4 6 -7 l16 16 l5 2 q5 -33 -11 -60.5 q-16 -27.5 -18 -55.5 q-11 -4 -16.5 -11.5 q-5.5 -7.5 -14.5 -1.5 q-4 41 5 86 q-3 87 -13 175 q0 188 2 230 q-5 11 -10 24 l-8 0 q-7 5 -10.5 19.5 q-3.5 14.5 7.5 20.5 l23 -6 ZM758 373 q20 -24 -3 -47 q-16 0 -26 -11 q-10 -11 -23 -13 l-36 -37 l4 -4 q59 0 121 0 q27 4 46 -16 q3 -8 -1 -20 q-25 -23 -31 -23 l-5 -6 q-11 -2 -26 -15 q-68 -22 -90 -26 l0 6 q62 25 118 64 l0 8 q-63 0 -100 -3 q-45 5 -73 13 l0 29 q62 49 66 50 l38 44 l14 7 l7 0 Z" /><glyph glyph-name="" unicode="&#x4f60;" d="M449 629 q4 -8 9 -17 q-9 -26 -34 -93 q-9 -25 -2 -45 q94 49 201 80 q65 18 127 -7 q20 -24 2.5 -49.5 q-17.5 -25.5 -26.5 -44.5 l-22 -20 l-12 -15 l-4 -1 l-16 -17 q-18 -6 -31.5 -18.5 q-13.5 -12.5 -30.5 -5.5 l-10 -12 q-6 0 -14 -6 q-16 -88 -4 -177 q10 -50 14 -85 q6 -13 21 -69 q-2 -7 -5 -11 l-10 4 l-6 -12 l-14 0 l-21 31 l-28 26 q-4 13 0 17 q26 -8 32 -8 q-6 61 -13 98 q0 54 -7 173 q0 39 22 70 l15 -4 q8 -9 12 -27 q63 4 105 59 q5 19 19.5 36 q14.5 17 14.5 41 q-27 19 -61 16 q-43 3 -80.5 -15.5 q-37.5 -18.5 -75.5 -24.5 l-2 -4 q-28 -14 -90 -52 q-16 -11 -30 -3 q-6 63 19 128 q18 43 30 64 l6 0 ZM243 523 q16 -14 7 -31 l-13 -2 q-11 -10 -18 -21 q-25 -65 -40 -103 q2 -5 4 -8 q7 6 16 12 q9 6 22 -4 q14 -19 14 -42 q-12 -143 -10 -285 q-8 0 -26 -15 q-7 5 -11 9 q-14 45 -9 94 q13 45 17 56 q-2 21 -4 43 q7 35 12 91 q-4 4 -5 7 q-25 -16 -34 -43 q-11 -6 -22 -7 q-6 45 11 92 q20 90 79 159 l10 -2 ZM380 241 q10 -16 -7 -24 l-5 4 q-7 -6 -13 -13 q3 -6 5 -12 q-27 -39 -36 -82 q-11 -51 9 -96 l12 -6 l0 -12 q-8 -12 -13.5 -4 q-5.5 8 -10.5 12 q-33 50 -17 112 q6 59 49 103 l23 18 l4 0 ZM713 206 q12 -4 100 -67 l8 -14 q17 -11 41 -33 q2 -10 -2 -18 l-20 -5 l0 -6 q-5 -2 -38 15 q-26 0 -51 0 l-8 7 q-6 0 -18 9 l-2 4 q3 2 8 6 q30 3 49 6 q10 10 -6 19 q-33 16 -70 38 q-5 23 9 39 Z" /><glyph glyph-name="" unicode="&#x4f6c;" d="M715 690 q4 -43 -2 -90 q6 -24 24 -67 q-6 -8 -11 -17 l-9 -2 l-9 -7 q-29 -15 -91 -43 q-37 -53 -61 -98 l-9 -6 l-6 -19 l-4 -2 q-92 -140 -151 -229 q-89 -118 -145 -183 q-2 4 -2 9 q65 86 190 258 q82 116 136 243 q-61 -26 -122 -47 q-25 25 -12.5 55.5 q12.5 30.5 6.5 61.5 l-20 5 q-15 8 -9 25 q21 -1 39 15 q18 71 64 132 l12 -5 l16 -44 q26 -23 44 -33 l11 -10 l-6 -4 l-12 -12 l-22 0 l-2 -4 q-48 -11 -80 -41 q-10 -27 -16 -57 q-7 -34 6 -59 q30 9 121 49 q27 43 89 155 q7 38 30 71 l13 0 ZM512 635 q-8 -12 -16 -23 q-16 -24 -12 -45 l61 21 q7 12 -12 21.5 q-19 9.5 -14 23.5 l-7 2 ZM686 588 q-29 -41 -57 -90 q0 -6 0 -12 l52 26 q34 11 18.5 31 q-15.5 20 -11.5 43 l-2 2 ZM221 511 q14 -19 20 -42 q2 -47 -22 -85 q6 -8 14 -15 q-3 -26 -5 -144 q-9 -31 -13 -64 q4 -32 8 -65 q-19 -14 -35 2 q-12 65 12 127 q0 101 -4 106 l-20 -12 l-21 -21 l-20 -1 q-8 18 4 34 l15 8 q38 32 58 83 q-6 45 -2 89 l11 0 ZM726 360 q19 -23 -1 -45 q-75 -82 -142 -168 l-16 -2 l-20 27 q-49 -40 -27 -92 q16 -4 56 -6 q85 8 198 18 q45 -9 92 -14 q8 -13 8 -22 l-16 -5 l-2 -8 q-74 -19 -127 -35 l-3 6 q9 6 64 42 q-10 4 -22 9 q-100 -7 -203 -16 q-38 -6 -71 9 q-6 11 -10 52 q6 55 41 102 q-6 25 8 47 l8 0 q17 -18 23 -40.5 q6 -22.5 18 -40.5 l6 3 q45 64 91 127 q7 31 31 53 l16 -1 Z" /><glyph glyph-name="" unicode="&#x4f7f;" d="M556 676 q24 -19 18 -51 q6 -2 12 -2 q80 18 172 38 q35 9 69 -2 q6 -18 -10 -26 q-19 -26 -41 -12 l4 12 l6 2 l0 8 q-41 -6 -94 -10 q-22 -8 -69 -18 q-6 2 -13 4 q-14 -9 -32 -17 q-4 -16 -6 -30 q2 -56 6 -60 q8 0 17.5 7.5 q9.5 7.5 21.5 0.5 q8 -11 10 -30 q-10 -28 -17 -59 q-20 -31 -30 -63 q-28 -25 -41 -58 q-10 -30 -12 -49 q-15 -33 -29 -71 l21 -18 l24 -31 q45 -34 86 -79.5 q41 -45.5 97 -62.5 l5 -5 q43 -30 95 -32 q52 -2 103 -2 l0 -17 q-25 -2 -131 -3 q-75 25 -96 30 l-5 8 q-34 2 -54 28.5 q-20 26.5 -44 38.5 l-32 33 l-40 34 l-25 33 l-22 14 q-18 -28 -43 -59 l-17 0 l15 29 l5 2 q0 10 11 19 q11 9 9 26 l-9 3 l-4 11 l-10 2 l-6 10 l-7 2 l-34 35 q-14 6 -25.5 18.5 q-11.5 12.5 -27.5 10.5 l0 22 q23 14 43 -6 l13 -12 l65 -55 l4 -9 l14 -8 q22 45 36 98 q4 21 4 62 q25 42 23 93 l-16 -10 q-9 -19 -31 -77 q0 -19 0 -37 l-18 -16 q-12 13 -12 20 l-4 2 q-15 26 -31 59 q-7 19 -9 35 l-7 6 q-5 18 -11 43 q-10 20 4 36 l16 -3 q2 -39 7 -53 q13 -36 35 -80 l5 0 q2 8 7 18 q30 44 62 84 l7 4 q4 10 9 20 q0 59 0 90 q-27 -4 -52 -6 l-8 -8 q-36 -8 -57 -13 l-2 -4 l-13 0 l-2 -4 l-10 0 l-2 -3 q-55 -17 -100 -29 l-4 -4 l-37 0 q-14 20 7 36 q14 13 22 -7.5 q8 -20.5 28 -2.5 l2 5 q138 36 225 63 q0 44 -4 53 q2 2 7 6 l4 0 ZM192 663 q8 -18 8 -36 q-6 -8 -12 -15 q-5 -26 -16 -56 q-25 -49 -33 -66 l4 -4 l-8 -6 l-6 -27 l8 0 q26 25 35 59 q18 13 43 4 q13 -14 8 -34 q-4 -4 -6 -8 q-2 -41 -2 -81 q-7 -32 -13 -87 q-2 -76 0 -125 q-3 -20 -8 -40 q2 -22 0 -47 q18 -14 16 -36 q-8 -19 -14 -36 l-10 0 l-16 -16 q-7 10 -7 18 q4 68 9 72 q2 71 0 83 l4 2 q-11 7 2 15 l-4 3 q4 36 7 64 l-3 2 q3 76 18 221 q-4 4 -8 8 q-47 -76 -80 -133 q-8 -1 -18 -10 q-18 29 -3 67 q17 46 62 156 q10 38 21 80 q6 5 11 12 l11 -3 ZM599 612 l-3 -4 l0 7 l3 -3 ZM469 582 l0 -6 l3 4 l-3 2 ZM176 512 l0 -5 l2 4 l-2 1 ZM570 482 q2 -15 -6 -28.5 q-8 -13.5 6 -22.5 l16 6 l14 14 l-4 2 q11 16 6 41 l-19 0 l-13 -12 ZM547 492 l0 -6 l2 4 l-2 2 ZM159 467 l0 -5 l2 3 l-2 2 ZM537 453 l4 5 l-4 4 l0 -9 ZM504 415 l5 3 l-5 2 l0 -5 ZM433 122 l0 -6 l2 4 l-2 2 ZM621 69 l-2 -4 l0 7 l2 -3 ZM610 43 l0 -7 l2 4 l-2 3 ZM165 36 l0 -5 l2 4 l-2 1 ZM668 31 l-2 -4 l0 6 l2 -2 ZM929 -55 l-2 -4 l0 6 l2 -2 Z" /><glyph glyph-name="" unicode="&#x4f9b;" d="M654 608 q14 -6 41 -20 q20 -30 -9 -52 q-41 -38 -47 -38 q-32 -67 -43 -140 q-4 -7 -8 -11 l-8 4 q10 57 16 111 q-49 -29 -118 -74 q-22 -19 5.5 -39 q27.5 -20 8.5 -36 l-23 -9 l-4 4 l-1 -4 l-13 6 q-24 35 -40 54 q-15 18 6 30 q7 0 16 6 q-18 65 -31 119 q-8 37 -2 69 l13 -5 l4 -16 l5 -2 q7 -45 27 -134 q7 -11 13 -20 q74 26 138 77 q5 4 10 10 q9 27 17 56 q8 29 27 54 ZM666 574 q-11 -22 -12 -43 l5 5 q2 5 14.5 14 q12.5 9 0.5 22 l-8 2 ZM223 531 q14 -12 12 -31 q-14 -31 -47 -98 q22 6 38 -8 q2 -47 4 -75 q-7 -49 -11 -97 q-4 -48 4 -93 l7 -2 q5 -7 9 -13 q-18 -51 -29 -74 l-2 7 l-6 2 l-10 -14 l-9 5 q-2 9 -4 20 q2 7 7 16 q0 139 14 277 q-4 7 -6 15 q-13 5 -22 -6 q-9 -11 -15 -13 l-32 -41 l-11 0 l-10 -10 l-8 4 q0 8 0 17 q45 59 85 121 q27 79 34 91 l8 0 ZM447 366 q-12 -6 -6 -14.5 q6 -8.5 12 -10.5 l9 0 q-6 14 -13 23 l-2 2 ZM886 351 q18 -10 8 -25 q-18 -7 -30 -11 l-6 -7 l-34 -16 q-20 5 -10 11.5 q10 6.5 5 18.5 q-66 -9 -147 -20 l-4 -4 q-204 -24 -286 -33 l-4 -4 q-14 0 -27 -6 l-4 4 l-4 -4 q-24 -5 -43.5 -17 q-19.5 -12 -42.5 -5 q-12 14 6 26 q50 11 164 33 q180 18 259 29 l2 3 l18 0 l2 5 l18 0 l5 4 q69 8 149 18 l6 0 ZM888 339 l0 -6 l3 4 l-3 2 ZM398 183 l10 -9 q-30 -27 -28 -66 q0 -30 2 -59 q18 -14 24 -33 q-20 -8 -35 6 q-22 38 -16.5 82.5 q5.5 44.5 29.5 81.5 l14 -3 ZM701 172 q30 2 50 -25 q9 -43 37 -71 q7 -18 -6 -27 q-16 -10 -29 4 q-14 45 -24 74 q-8 8 -16 16 l-43 0 l0 12 l31 17 Z" /><glyph glyph-name="" unicode="&#x4f9d;" d="M509 650 l0 -19 l28 -21 q22 -18 26 -45 q0 -16 0 -32 q-16 -19 -18 -39 q16 6 49 22 q11 21 21 36 q20 -21 42 -4 q22 17 44 22 l9 10 q16 -8 35 2 q19 10 37 -2 l4 -13 l-8 0 l-4 -6 q-48 -20 -143 -57 q-29 -35 -55 -69 q-35 -64 -76 -141 q16 -16 14 -39 q-7 -45 -45 -195 q-9 -29 7 -48 l12 12 l8 7 q74 67 125 155 q-13 14 -22 31 l-11 8 q-18 20 -25 52.5 q-7 32.5 23 55.5 q59 40 129 71 q24 14 53 9 q22 -19 4.5 -38.5 q-17.5 -19.5 -22.5 -35.5 l-9 -6 q-40 -61 -86 -123 q0 -10 0 -18 q125 -105 211 -178 q-2 -15 11.5 -20.5 q13.5 -5.5 10.5 -19.5 q-14 -2 -24 -14 q-11 5 -20 12 l-3 6 q-39 33 -86 53 l-5 12 q14 0 30 4 l-4 6 q-61 55 -75 67 l-2 7 q-33 20 -64 43 l-12 -15 l-4 -1 q-19 -27 -60 -98 q-16 -20 -30 -38 q-15 -12 -29 -24 q-26 -20 -49 -10 q-8 22 -11 47 q11 56 27 106 q15 75 17 106 q-35 -44 -51 -97.5 q-16 -53.5 -62 -84.5 q-16 -3 -24 0 q-2 8 -2 19 q68 92 118.5 195 q50.5 103 106.5 205 q-106 -29 -192 -90 q-17 -2 -31 -4 q-2 8 -2 22 q39 32 89 45.5 q50 13.5 97 38.5 q-17 8 -4 24 l4 3 q23 30 0 64 q-22 19 -57 40 l0 27 l10 7 l25 -7 ZM228 490 q11 -14 7 -34 q-27 -72 -45 -117 q14 -2 31 -6 q14 -47 22 -100 q-6 -12 -10 -25 q-3 -45 -8 -123 q-4 -3 -6 -7 q2 -20 4 -42 q-8 -18 -15 -34 l-14 0 l-6 -10 l-9 0 q-3 8 -7 16 q7 37 20 79 q4 56 16 134 q4 7 9 16 q-9 20 -9 38 l-4 3 q0 14 -4 22 l-6 -3 q-33 -38 -59 -72 q-13 -17 -25 -8 q29 98 82 194 q10 40 12 77 l8 6 l16 -4 ZM427 429 l0 -7 l2 5 l-2 2 ZM729 388 l-4 -4 q-98 -51 -113 -58 q-20 -18 -22 -42 q15 -39 45 -69 l6 0 q45 63 110 154 q0 7 0 15 l-20 2 l-2 2 ZM221 228 l0 -5 l2 3 l-2 2 Z" /><glyph glyph-name="" unicode="&#x4fbf;" d="M717 663 q6 -11 -3.5 -15.5 q-9.5 -4.5 -11.5 -10.5 q-57 -35 -83 -57 q-17 -6 -65 -33 q-17 -20 -50 -55 q-20 -36 -44 -65 q56 33 139 73 q48 31 91 -2 q18 -58 -11 -110 q-20 -30 -40 -62 q0 -36 -20 -65 q-20 -22 -39 -42 l-10 -9 q-16 -20 -33 -40 q-14 -39 -39 -68 q6 -4 13 -8 q52 -12 106.5 -13 q54.5 -1 107.5 -18 q43 -27 86 -51 q20 -1 45 -10 q20 -14 28 -16 q20 -12 9 -32 q-13 -5 -24 -9 q-58 43 -132 43 q-16 11 -2 23 l8 1 q-28 28 -67 35 q-137 16 -212 20 q-31 -20 -63.5 -39.5 q-32.5 -19.5 -69.5 -13.5 q-47 2 -74 44 l-34 42 l-8 0 q-7 -18 -9 -71 q-6 -13 -16.5 -7.5 q-10.5 5.5 -15.5 5.5 q-4 8 -7 16 q14 79 37 204 q11 50 -14 88 l-11 -4 q-36 -41 -54 -92 q-17 -11 -27 -13 q-2 9 -4 19 q14 52 49 94 q18 51 59 204 l19 0 q5 -7 9 -24 q-26 -70 -47 -126 q0 -11 0 -20 l23 -5 q27 -15 27 -44 q6 -89 -14 -175 q40 0 89 6 q72 -30 150 -55 q11 12 26 25 q14 29 28 56 q78 93 78 99 q-36 -21 -76 -53.5 q-40 -32.5 -81 -7.5 q-25 28 -9 65 q9 40 38 69 l157 -12 q20 25 40 62 q20 37 9 77 q-31 22 -62.5 1 q-31.5 -21 -58.5 -28 l-8 -8 q-51 -25 -89.5 -64.5 q-38.5 -39.5 -78.5 -72.5 l-22 -34 l-25 0 q-16 18 -0.5 34 q15.5 16 25.5 35 l41 30 q28 33 39 78 l31 18 q7 15 12 31 l42 41 l22 29 l29 20 q-4 0 -7 2 q-19 -9 -140 -55 q-47 -23 -108 -53 q16 -10 7 -20 q-15 -2 -23 1 q-14 -9 -26 -14 q-21 0 -33 7 q-10 16 4 30 q228 90 462 182 l16 -7 ZM619 617 l-43 -18 l0 -7 q16 4 45 23 l-2 2 ZM511 322 q-31 9 -51 -9 q-25 -39 -9 -80 q41 -7 74 23 q33 30 63 54 l0 9 q-43 2 -77 3 ZM304 122 q-7 3 -53 -10 q-8 -12 4.5 -19.5 q12.5 -7.5 14.5 -14.5 q65 -70 148 -11 l9 9 l-5 4 q-29 5 -58 22 q-29 17 -60 20 Z" /><glyph glyph-name="" unicode="&#x4fc3;" d="M583 623 q25 -18 17 -49 q-30 -72 -64 -141 q-11 -78 -22 -163 l6 -2 l56 69 l51 45 l6 12 q17 12 28 17 l7 -15 l-14 -10 q-46 -35 -71 -81 q-25 -46 -54 -86 l-22 -9 q-31 37 -20 83 q11 46 11 89 l-10 -11 l-26 -5 q-2 5 -4 12 q34 44 56 100 l22 6 q13 23 40 83 q0 13 0 27 q-27 2 -45.5 -13.5 q-18.5 -15.5 -34.5 -26.5 q-16 -21 -31 -42 q-20 -43 -12 -83 q-10 -7 -22 -7 q-27 42 -51.5 93.5 q-24.5 51.5 6.5 103.5 l10 0 q10 -37 8 -80 q7 -25 20 -53 l9 0 q20 30 51 84 q8 8 16 16 q49 29 74 39 l9 -2 ZM210 536 q11 -13 13 -25 q-24 -76 -53 -156 q18 -4 40 -18 q0 -39 -4 -78 q15 -92 9 -183 q-5 -7 -7 -13 l-8 0 l-6 -5 q-8 -2 -16 3 q-2 61 5 127 q-4 49 -4 129 q-12 5 -18 -7.5 q-6 -12.5 -14 -12.5 q-40 -44 -65 -93 l-24 -5 q-2 7 9 52 q47 46 76 109 q31 80 53 169 q4 4 8 8 l6 -1 ZM347 331 q17 2 27 -10.5 q10 -12.5 26 -16.5 l29 -34 q61 -76 147 -123 l63 -64 q45 -34 100 -44 q102 -10 202 -33 l2 -16 q-26 4 -237 28 q-30 9 -61 18 l-8 11 l-6 2 l-53 58 q-71 52 -113 85 l-71 73 l-33 23 q-37 -41 -38 -96 q-1 -55 -26 -98 q-16 -11 -27 -2 q0 59 22.5 114 q22.5 55 33.5 115 l21 10 Z" /><glyph glyph-name="" unicode="&#x4fdd;" d="M641 621 q18 0 31 -14 q-9 -68 -60 -117 q21 -28 5 -59 q-21 -33 -41 -63 q4 -47 -29 -84 q-2 -180 -4 -239 q6 -12 9 -29 q-7 -10 -13 -17 l-28 -3 q-19 10 -13 35 q6 5 13 36 q1 105 0 178 q-27 -30 -64 -28 q-7 24 13 46 q52 54 89 119 l9 0 q16 22 34 58 q-2 3 -4 5 q-34 -23 -68 -41 l-28 -28 q-12 0 -21 -6 q-9 -6 -15 6 q-5 14 6 28 q-56 68 -78 152 q-4 52 0 61 l16 0 q17 -39 18 -84 q6 -43 35 -71 l7 0 q2 12 -4 30 q16 24 34 49 q35 20 70.5 47 q35.5 27 80.5 33 ZM637 596 q-55 -22 -88 -35 l-6 -7 l-16 -9 l-13 -16 l-7 -4 q-15 -23 -27 -45 q-6 -35 6 -62 q28 22 59 38 q54 44 92 105 q15 19 2 33 l-2 2 ZM226 498 q2 0 17 -6 q2 -6 7 -12 q-11 -11 -29 -40 q-25 -54 -40 -93 q23 13 45 0 q7 -12 15 -23 q6 -34 16 -74 q-6 -38 -14 -72.5 q-8 -34.5 -6 -67.5 l13 0 q20 -25 2.5 -48 q-17.5 -23 -17.5 -46 l-7 0 l-5 -5 l-15 0 q-4 5 -6 11 q4 68 6 117 q13 55 22 114 q-9 41 -20 66 q-10 5 -19.5 -2 q-9.5 -7 -14.5 -7 q-29 -29 -45 -63 l-19 -8 q-14 16 -4 42 q64 107 118 217 ZM326 183 q19 -2 34 -7 q4 -9 0 -21 q-13 -1 -25 -6 q-31 -29 -13.5 -61 q17.5 -32 17.5 -61 l-18 -7 q-15 36 -27.5 79.5 q-12.5 43.5 21.5 78.5 l11 5 ZM735 174 q39 -7 66.5 -38.5 q27.5 -31.5 70.5 -33.5 q6 -10 28 -37 q2 -9 -4 -30 q-10 -6 -24 -6 l-12 11 l-20 7 l-2 -4 l-41 4 q-9 9 -15 16 q24 6 47 17 l-7 5 q-34 25 -61 50 q-30 8 -60 8 l0 12 q7 2 34 19 Z" /><glyph glyph-name="" unicode="&#x4fe1;" d="M456 679 q28 -72 89 -121 q7 -17 2 -27 l-6 -2 l-29 34 l-5 2 q-21 21 -42 43 q-22 31 -34 64 l18 7 l7 0 ZM274 612 q6 -10 14 -20 q-29 -80 -73 -149 q0 -6 0 -12 l13 -9 q5 -18 7 -112 q-10 -114 -14 -118 q4 -123 -2 -241 l-15 -4 l-4 -7 q-8 -2 -17 3 q-4 17 -5 35 q5 58 12 120 q-4 18 -4 101 q6 81 13 159 q-5 2 -7 6 l-14 -13 l-19 -25 q-14 -9 -27 -2 q-16 15 -1 34 q50 87 104 179 q0 45 22 84 l17 -9 ZM537 545 l6 0 l-4 2 l-2 -2 ZM786 525 q20 0 76 -6 q22 -12 18 -33 l-14 -4 l-6 10 q-16 8 -27 10 l-6 7 q-8 -5 -14 -7 q-9 2 -15 5 q-40 -7 -92 -15 q-4 2 -5 4 l-2 -4 l-7 4 l-2 -4 l-11 0 l-3 -4 q-24 -10 -45 -2 l-6 -6 q-20 -4 -42 -11 q-13 0 -25 3 l-2 -5 q-45 -11 -90.5 -21.5 q-45.5 -10.5 -87.5 -12.5 q-9 -4 -17 -9 q-55 -4 -71 -6 q-6 2 -10 6 q-21 -4 -41 0 q-6 11 8 19 q12 4 25 8 q28 -18 67 -11 q110 20 221.5 44.5 q111.5 24.5 225.5 40.5 ZM761 516 l0 -5 l3 3 l-3 2 ZM849 504 l0 -6 l2 4 l-2 2 ZM208 482 l0 -6 l2 4 l-2 2 ZM621 418 q24 0 49 -5 q22 -19 0 -40 q-25 -18 -49 -36 q-39 -20 -60 -31 l-2 -4 l-16 -8 l0 -6 q90 14 127 20 q6 -2 11 -4 q14 -12 0 -23 q-9 -3 -20 -7 q-9 16 -22 6 l-4 4 l-4 -4 q-55 -10 -155 -27 l-2 25 q80 44 169 104 l0 11 q-43 -3 -73 -5 q-74 -27 -125 -45 l-2 -4 l-12 0 q-13 6 -4.5 18 q8.5 12 13.5 19 q56 14 114 32 q32 5 67 10 ZM676 292 l0 -6 l3 4 l-3 2 ZM462 181 q5 -11 7 -27 q43 -82 76 -146 l9 -2 l5 10 q40 0 77.5 20 q37.5 20 67.5 47 l11 25 q-27 12 -56 0 q-34 -8 -60 -28 q-7 -8 -23 -31 l-9 0 q0 16 7 45 q8 8 18 16 q47 17 87 27 q40 8 66 -15 q5 -28 -16 -48 l-43 -35 l0 -6 l22 -2 q7 -13 -4 -19 q-32 -6 -54 -6 l-5 -4 l-10 0 l-6 -6 l-14 0 l-5 -4 q-18 -6 -29 -19 q-11 -13 -27 -11 l-5 3 l-6 -3 q-57 99 -103 185 q-5 23 9 39 l13 -5 ZM453 139 l0 -7 l3 5 l-3 2 Z" /><glyph glyph-name="" unicode="&#x4fe9;" d="M253 617 l10 -29 q-12 -5 -18 -5 q-17 -44 -28 -79 q-21 -42 -41 -86 q28 -32 39 -71 q-13 -155 2 -308 l8 -3 q8 13 22 27 q4 -3 6 -12 l-25 -20 l-9 -23 q-17 -12 -29 -4 q-11 161 4 327 q0 27 -20 45 q-20 2 -29 -15 l-33 -46 l-20 0 q-2 28 18 54 q17 17 33 35 q67 143 102 215 l8 -2 ZM841 576 q23 -2 55 -11 q13 -18 4 -37 q-9 -19 -22 -28 q-10 0 -25 -8 l-12 -14 l-20 -6 l-8 -8 l-13 0 l13 12 l11 6 l14 12 q18 10 42 33 q4 14 0 22 l-18 7 l-4 -4 l-7 6 l-34 1 l-6 -5 q-9 11 -16 1 q-7 -10 -13 3 l-6 -6 l-23 0 l-3 4 l-2 -4 q-17 -5 -51 -5 q-29 -16 -58 -14 l-4 -4 q-10 -2 -23 -9 l-5 7 l-5 -4 q-26 -9 -44 -11 l-6 -5 q-74 -23 -172 -51 l-2 -7 q-31 -9 -74 -18 l-7 -9 l-17 -5 l-5 10 l-1 -5 l-6 5 q-7 -7 -7 -12 l-22 -2 q-16 16 -6 36 q8 16 20 4 l0 -18 q47 2 96 21 q139 46 196 69 q90 24 96 27 q61 11 76 15 q61 5 124 9 ZM583 390 l9 0 q2 -4 7 -8 q-25 -33 -17 -65 q37 16 90 38 l16 38 l7 0 l7 -25 q17 -4 34 -0.5 q17 3.5 34 -7.5 q18 -19 16 -45 q7 -65 -4 -127 q4 -5 13 -14 q-7 -7 -11 -11 l-8 -4 q-12 -30 -8 -61 q4 -31 -8 -55 q-12 2 -20.5 -4 q-8.5 -6 -14.5 6 q-4 24 -23 40 q-14 25 -5 47 l7 3 q19 -39 29 -55 l6 0 q2 7 11 90 q-9 6 -17 11 q-38 15 -76 31 q-18 -13 -18 -37 q0 -24 -8 -38 l-10 -2 l-19 19 q-19 -3 -31.5 11 q-12.5 14 -31.5 11 l-6 -13 l-8 -6 q-14 17 -9 43 q25 98 64 194 l3 -4 ZM386 368 q22 5 36 -13 l-18 -8 q4 -90 25 -175 q8 -60 47 -103 l16 5 l2 26 l13 -4 q-5 -35 -11 -47 q-16 -4 -32 0 q-31 23 -41 57.5 q-10 34.5 -17 71.5 q-18 96 -28 173 q4 9 8 17 ZM729 341 q-4 2 -34 -4 q-25 -35 -32 -76 q-6 -16 9 -24 q20 -7 38.5 -25 q18.5 -18 42.5 -12 q11 47 7 100 q1 24 -19 39 l-12 2 ZM645 326 q-46 -7 -78 -40 q-4 -21 -20 -45 q-16 -24 9 -37 q14 -8 27 -12 l7 -6 q17 -12 31 -16 q8 11 0 32 q16 48 36 119 l-10 3 l-2 2 Z" /><glyph glyph-name="" unicode="&#x4fee;" d="M565 780 q15 -20 -4 -41 q-36 -35 -52 -76 q5 -4 14 -8 q79 17 129 24 q7 -3 16 -7 q18 -31 -9 -57 q-30 -35 -81 -92 l-22 -14 l0 -9 q43 -4 141 -16 q116 -4 218 -10 q12 -21 -4 -34 q-47 -23 -64 -27 l-7 14 l16 8 l6 5 l7 5 l5 8 q-39 5 -100 7 l-4 4 q-115 3 -233 12 q-21 -20 -46.5 -26.5 q-25.5 -6.5 -50.5 -12.5 q-25 3 -54 -2 q-35 5 -67 12 l-11 22 q-20 0 -38 3 q-13 -7 -19 -7 q-8 -18 -14 -25 q-14 20 -4 44 q8 6 17 12 q72 0 91 -4 q20 4 178 10 q22 17 46 35 q35 37 82 96 q7 14 -4 24 q-24 -3 -36 -3 l-5 -4 l-19 0 l-5 -7 l-4 4 q-38 -20 -78 -10 q-18 10 -12 33 q39 53 70 112 l11 -2 ZM163 608 q4 0 20 -9 q13 -25 0 -45 l-11 0 q-33 -27 -31 -64 l20 8 q17 -14 -2 -26 l15 -7 q25 -25 20 -67 q-6 -32 -15 -124 q4 -57 -1 -113 l5 0 q13 22 32.5 43 q19.5 21 23.5 51 l4 0 q-18 -92 -65 -172 q-6 0 -21 -11 q-3 2 -8 6 q2 59 8 143 q0 18 -2 100 q6 37 10 99 q-6 4 -11 11 q-38 -25 -67 -43 l-4 -4 q-5 6 -9 12 q18 41 63 151 q0 9 0 16 q12 27 26 45 ZM137 488 l-12 -30 q4 -2 24 7 l-10 21 l-2 2 ZM623 424 q14 -11 1.5 -26.5 q-12.5 -15.5 -17.5 -21.5 l-27 -21 q-33 -36 -33 -40 q29 4 53 -11 q35 -23 17 -55 q-18 -32 -37 -49 l-43 -39 q39 -32 98.5 -10.5 q59.5 21.5 99.5 -15.5 q-2 -45 -12 -88 q-13 -25 -17 -41 q-59 -87 -132 -159 q-16 -14 -37 -10 q86 80 149 181 q22 43 13 92 q-13 6 -23 12 q-115 7 -135 10 q-25 -5 -49 -7 q-4 2 -8 6 l-2 14 q22 16 104 90 q0 10 13 20 q13 10 -3 23 l-22 8 l-7 6 q-26 -8 -48 -11 l-7 -6 l-30 0 l0 19 l77 67 q33 23 46 61 l10 7 l8 -5 ZM317 411 q7 -9 14 -21 q-2 -47 -7 -73 q2 -4 7 -9 l8 13 l10 8 q2 8 17 31 q-11 -38 -33 -113 q-9 -12 -14 -22 q-15 -4 -27 -8 q2 33 14 149 l-8 3 q-12 -14 -17 -28 q-11 6 -1 16.5 q10 10.5 4 22.5 q6 13 13 24 l9 7 l11 0 ZM110 406 l0 -6 l2 4 l-2 2 ZM274 326 l0 -5 l-2 5 l2 0 ZM161 255 l0 -5 l2 3 l-2 2 ZM163 250 l0 -7 l2 4 l-2 3 ZM163 223 l0 -6 l2 4 l-2 2 ZM502 155 l0 -6 l2 5 l-2 1 ZM599 -118 l0 -6 l1 4 l-1 2 ZM565 -138 l0 -6 l2 4 l-2 2 Z" /><glyph glyph-name="" unicode="&#x4ff1;" d="M697 686 q4 -7 7 -12 q-5 -22 -14 -59 q-2 -25 -4 -50 q-10 -42 -14 -46 q-4 -39 -11 -82 q2 -10 0 -90 q-4 -23 -7 -41 q0 -106 3 -114 q58 -11 119.5 4.5 q61.5 15.5 119.5 -6.5 q0 -11 9.5 -17 q9.5 -6 1.5 -14 q-21 -24 -48.5 -27 q-27.5 -3 -52.5 -13 l0 3 q25 13 70 33 q15 15 -7 24 q-76 -1 -136 -3 q-52 -11 -72 -11 q-4 -6 -4 -40 q-5 -3 -14 -9 q38 -47 70 -92 q35 -60 47 -81 l-10 0 l-5 -7 l-12 -7 l-7 11 l-34 27 l9 7 q1 22 -15 48 q-34 52 -78 94 q0 6 0 15 l19 0 l0 32 q-44 -2 -94 -6 l-2 -3 q-31 -7 -49 -7 l-4 -4 q-85 -11 -137 -21 q-55 -10 -91 -42 q-5 2 -9 5 l9 19 q25 10 52 25 q47 10 96 22 q158 23 219 30 q6 2 12 7 q2 63 4 82 q-2 14 0 75 l-6 0 q-4 -21 -19.5 -33 q-15.5 -12 -21.5 -28 l13 -9 q18 -14 8 -32 q-8 -15 -19 -6 q-2 10 -6 18 q-28 -22 -59 -16 l0 18 q18 11 42 31 q2 14 21 24 q19 10 16 31 q-20 0 -39 0 q-27 -22 -47 -33 q-9 14 4 29 l41 30 q17 21 33 42 q27 34 35 75 q-4 2 -8 4 q-76 -28 -123 -47 q-6 2 -12 6 q-6 13 -6 23 q14 10 36 -3 q62 31 131 38 q7 22 14 45 q9 71 13 105 l-6 -3 q-21 -21 -29 -37 l-12 0 q4 12 8 30 q35 27 53 39 l9 0 ZM225 602 q25 -26 8 -59 q-52 -92 -79 -153 q1 -2 5 -2 q41 36 60 49 q11 -17 28 -57 q-4 -72 -12 -121 q-2 -112 -7 -223 q2 -3 5 -7 q4 0 10.5 10 q6.5 10 13.5 1 q-16 -38 -32 -76 q-8 -2 -26 -15 q-3 11 -5 21 q8 24 12 61 q0 34 0 71 q2 25 9 43 q0 38 0 80 q4 38 8 77 q-2 27 7 62 q-7 32 -15 49 l-16 -11 q-58 -44 -87 -105 l-16 -5 q-11 10 2 23 q14 28 67 141 q25 42 43 71 q9 22 18 56 l-3 3 l-8 16 l4 3 l6 -3 ZM449 561 q4 -7 11 -14 q-25 -71 -13 -147 q2 -87 33 -165 q0 -20 0 -41 q-8 -6 -20 -11 q-17 109 -31 225 q-9 78 18 153 l2 0 ZM596 388 l-16 -12 l0 -8 l37 -4 l16 -17 q2 8 6 93 l-4 0 l-39 -52 ZM445 80 q-12 -31 -27 -68 q0 -24 -5 -54 q-5 -4 -9 -9 q-20 23 -6 55 q10 41 39 76 l8 0 Z" /><glyph glyph-name="" unicode="&#x5012;" d="M860 701 q22 -20 16 -49 q-7 -87 -12 -183 q-4 -279 -6 -402 q6 -28 8 -81 q10 -37 16 -59 q-4 -5 -6 -8 l-10 6 l-4 -6 q-4 -2 -9 -4 q-13 10 -29 23 q-74 29 -152 50 q-9 4 -15 11 q86 -5 170 -27 q2 2 6 4 q-4 59 -4 140 q-5 13 -7 27 q2 2 7 6 q-2 10 0 23 l4 2 q-2 49 -4 98 q4 49 11 94 q-5 3 -5 96 q5 22 9 47 q0 85 3 108 l-6 4 l-8 -16 l-4 -3 q-8 10 4 19 q-12 16 -6 40 l4 2 q9 18 20 38 l9 0 ZM228 599 q17 -5 27 -13 q0 -19 2 -34 q-34 -72 -51 -146 q9 5 31 0 q26 -30 24 -75 q-8 -53 -11 -66 q1 -14 5 -28 q-4 -65 -16 -127 q0 -36 2 -79 l-13 -2 l-5 -9 l-8 0 q-16 20 -9 52 q11 65 15 73 q5 45 3.5 92 q-1.5 47 12.5 94 q-9 24 -12 45 q-25 -7 -36 -26 q-11 -19 -30 -28 l-12 -24 l-18 -6 q-13 23 6 51 q46 53 69 124 q13 42 26 85 q-13 22 -2 47 ZM484 552 q10 0 25 -11 q-2 -8 -5 -14 q-55 -65 -106 -127 q-20 -18 -2 -31 q21 -1 41 -1 q21 -7 37 -19 q28 -16 14 -42.5 q-14 -26.5 -30 -34.5 l-27 -19 q-9 -8 -9 -16 l27 -12 q23 -31 2 -66 q-38 -47 -58 -98 q74 46 161 76 q11 12 -1 30.5 q-12 18.5 -1 36.5 l9 -8 q-2 -18 13.5 -38.5 q15.5 -20.5 -0.5 -35.5 q-41 -20 -51 -20 l-3 -4 q-55 -13 -93.5 -51.5 q-38.5 -38.5 -87.5 -44.5 q-2 9 -2 18 q45 70 98 156 q0 12 2 26 q-33 8 -66 8 q-16 -10 -33 -21 q-17 -11 -32 -1 q-20 16 -4 38 q35 31 84 17 q20 16 54 37 q3 12 16 23.5 q13 11.5 2 29.5 q-21 20 -47.5 10 q-26.5 -10 -42.5 15 q-4 15 0 32 q22 27 90 121 l-13 3 l-2 -3 q-26 -9 -61 -23 q-14 0 -27 0 l0 23 q27 18 62.5 20 q35.5 2 66.5 21 ZM697 420 q5 -12 11 -24 q-11 -63 -9 -122 l18 16 q-2 -29 -13 -82 q-14 -4 -25 -6 q-7 39 -9 88 q4 45 9 92 l-9 2 l-7 -6 l-9 -5 q-21 -40 -52 -71 q-26 -14 -48 0 l-13 17 l-12 2 q0 8 -12.5 18 q-12.5 10 -0.5 22 q9 3 25 -6 l29 -31 q18 -11 35 5 q32 24 32 67 q17 6 44 26 l16 -2 Z" /><glyph glyph-name="" unicode="&#x5019;" d="M713 603 q40 -33 0 -66 q-60 -67 -134 -107 l4 -8 l203 46 l10 -14 l-28 -28 l-24 16 q-165 -38 -324 -86 q-18 15 4 34 q126 14 219 106 l51 56 l0 20 q-123 2 -232 -58 l-38 6 l-2 32 q28 0 54 16 l12 -16 q97 34 199 55 l26 -4 ZM215 554 q6 -46 -12 -90 l-60 -103 q14 10 34 3 l22 -39 q-6 -68 8 -132 q20 86 82 154 l18 -6 l18 -20 l-11 -175 l-33 -10 q8 84 12 171 l-12 -4 q-52 -76 -72 -165 q-10 -78 -24 -152 q-16 0 -26 -12 l-14 8 l22 197 q10 78 -10 152 l-53 -40 l-8 -18 l-30 -6 l0 34 l15 12 q58 79 100 169 q0 44 22 81 l12 -9 ZM535 353 l10 -18 q-39 -30 -47 -70 l157 58 l65 16 q18 -26 -8 -48 l-63 -52 l-4 -56 q89 11 175 48 l20 -8 l-10 -14 l-181 -48 q-48 -105 -130 -183 l-95 -88 q-24 -21 -50 -25 l92 89 q95 74 141 186 q-90 -24 -179 -54 l-16 6 l6 20 l177 108 q4 19 16 35 q20 -16 36 6 l44 48 l-18 2 q-102 -48 -209 -82 q-18 16 -2 44 l61 80 l12 0 ZM615 202 q-42 -13 -80 -40 l-26 -22 l102 28 l4 34 ZM735 38 l43 -28 l48 -90 l14 -37 q-18 -4 -32 -15 l-22 24 q-6 52 -34 102 q-26 14 -47 34 l8 14 l22 -4 Z" /><glyph glyph-name="" unicode="&#x503c;" d="M520 635 q7 0 17 -8 q30 -55 62 -113 q126 22 257 44 q10 -2 22 -4 q20 -23 -10 -35 q-21 -8 -27 -8 l0 20 q-6 0 -55 -4 q-118 -25 -181 -39 q-9 -23 -29 -64 l-13 -7 l-4 -9 q46 12 95 32 q25 11 47 -3 q-6 -106 -13 -200 q13 -59 4 -118 q14 -23 18 -36 q-15 -32 3 -56 q26 0 47 -7 q73 2 131 4 q5 -4 11 -6 q2 -10 -2 -18 q-6 4 -14 0 l0 -12 q-64 2 -133 0 q-74 11 -106 14 q-53 -2 -100 4 q-4 -4 -8 -6 q-28 6 -41 8 l-4 -4 q-45 -2 -88 -2 q-38 -14 -73 -12 q-23 18 2 37 q89 6 176 12 q25 -4 48 -8 q56 4 113 4 l2 10 l-15 11 q-7 42 7 87 q-5 14 -5 118 q-4 33 -7 58 q-4 -22 -20.5 -36.5 q-16.5 -14.5 -28.5 -27.5 l-23 -16 l-12 -14 l4 -4 q14 -4 32.5 8 q18.5 12 32.5 -4 q6 -19 -4 -37 q-30 -39 -52 -59 l27 -25 q5 -17 0 -24 q-24 2 -52 14 q-15 -7 -42 -9 q0 -9 -9 -29 q-17 -9 -29 -13 q-4 2 -6 6 q-5 108 -14 219 q-5 67 6 130 q32 42 79 24 q29 21 31 58 q-123 -27 -245 -51 q-10 2 -21 4 q-14 7 -4 18 q67 0 133.5 18.5 q66.5 18.5 134.5 34.5 q-7 27 -24 51.5 q-17 24.5 -36 46.5 q-5 19 8 33 ZM684 519 l0 -7 l2 4 l-2 3 ZM219 494 q11 -12 14 -22 q-25 -23 -31 -52 q-8 -51 -32 -89 q2 -5 6 -9 q26 15 45 -9 q9 -54 14 -76 q-5 -83 -9 -179 q9 -18 9 -29 q-7 -18 -12 -37 l-15 -2 l-4 -8 l-10 -2 q-4 8 -8 16 q6 33 14 114 q2 107 0 171 q-12 23 -32.5 6 q-20.5 -17 -26.5 -22 l-22 -22 l-19 -6 q-4 4 -4 22 q43 45 65 105 q11 30 14 63 q3 33 27 59 l13 8 l4 0 ZM668 415 q-23 0 -41 -2 l-2 -5 q-23 -15 -45 -15 l-6 -9 l-25 -8 q-8 -16 -10 -31 q24 -4 52 3 q28 7 52 -5 l11 -19 q0 21 10 43.5 q10 22.5 4 47.5 ZM541 398 q-14 0 -34 -2 q-31 -28 -15 -63 q8 6 22 8 q11 6 5.5 18 q-5.5 12 0.5 25 q11 6 21 14 ZM615 321 q-70 -11 -115 -17 l-6 11 q-22 -15 -11 -42.5 q11 -27.5 3 -44.5 q12 0 30 -9 q29 18 94 75 q-2 6 4.5 13.5 q6.5 7.5 0.5 13.5 ZM594 200 q-18 -8 -71 -22 l-4 3 l-7 -3 q-5 -13 -12 -70 q2 -6 4 -10 l7 0 q1 12 8 21 q17 3 35 16 q16 16 34 35 q17 13 8 29 l-2 1 Z" /><glyph glyph-name="" unicode="&#x505a;" d="M745 715 q10 -14 3 -29 q-67 -137 -72 -145 q-15 -37 -24 -65 q0 -16 0 -33 q14 -10 27 1.5 q13 11.5 29 11.5 l2 4 q35 12 60 -11 q14 -25 30 -56 q0 -33 4 -54 q-6 -29 -9 -58 q-40 -82 -93 -156 q4 -6 8 -11 q54 -18 94 -56 q23 -31 60 -74 q8 -2 55 -44 l10 -20 l-20 -11 l-5 -9 q-30 9 -53 41 q-30 10 -67 26 l0 7 l27 8 q10 4 2.5 10.5 q-7.5 6.5 -0.5 13.5 l-7 5 q-18 20 -32 34 q-13 4 -35 24 q-26 11 -60 27 q-22 -14 -43 -33.5 q-21 -19.5 -48 -13.5 q-25 27 -32 45 q-9 71 -11 102 q20 10 33 10 l2 4 q28 -6 49 -27 q6 -7 43 -44 l7 -2 q22 28 60 89 l4 2 q23 44 36.5 98 q13.5 54 -19.5 101 q-21 13 -45 10 l-2 -4 q-34 -11 -72 -16 l-12 12 q-12 -14 -29 -45 q-24 -53 -35 -78 q-45 -83 -61 -110 q-4 -13 -8 -29 q-38 -65 -63 -116 q-16 -11 -22 -12 q-17 41 19.5 83.5 q36.5 42.5 0.5 85.5 q-9 0 -20 -9 q-35 -79 -51 -117 q-11 -15 -25 -8 q-2 51 4 107 q10 72 22 177 q-32 -11 -63 -21 l-10 -11 l-16 -2 q-25 17 -9 40 l7 0 l4 4 q23 -7 41 5.5 q18 12.5 43 19.5 q15 63 36 136 q8 10 17 20 l16 0 q8 -22 21.5 -40.5 q13.5 -18.5 13.5 -41.5 q5 -5 12 -11 l2 4 l24 4 q14 -19 -2 -35 l-16 0 l-6 -9 l-18 -5 l-9 -9 q-25 -12 -51 -20 q-25 -88 -32 -178 q0 -18 3 -30 q25 34 42 57 q18 8 36 -7 q17 -29 25 -47 l12 11 q75 123 135 255 q40 139 116 268 l10 0 ZM255 592 q20 -14 2 -34 q-14 -29 -32 -84 q-31 -59 -58 -114 q12 -17 16 -29 q0 -27 13 -80 q-2 -81 -6 -137 q0 -53 4 -61 l5 5 l7 0 q13 -22 -0.5 -39 q-13.5 -17 -13.5 -33 q-16 -14 -27 -16 q0 36 -4 113 q6 37 13 145 q-2 46 -20 89 q-11 2 -18 -5.5 q-7 -7.5 -14 -7.5 l-22 -29 q-13 -12 -22 -3 q-6 41 29 67 l20 10 q24 37 49 75 q50 121 71 168 l8 0 ZM429 509 l-9 0 q-7 -13 -16 -23 q-11 -41 -8 -78 q22 10 51 27 q2 5 4 8 q-8 19 -20 64 l-2 2 ZM592 167 q-4 3 -20 -8 q2 -22 4 -43.5 q2 -21.5 18 -35.5 q16 -8 29.5 4 q13.5 12 26.5 23 l0 12 l-15 8 q-8 10 -12 22 l-8 0 l-5 8 l-18 10 Z" /><glyph glyph-name="" unicode="&#x5076;" d="M735 663 q18 0 39 -8 q16 -43 16 -88 q-26 -51 -69 -91 l-26 -18 l0 -31 q-14 -12 -25 6 q-25 -11 -35 -11 l-2 -5 q-18 -27 -39 -13 q-2 31 -4 41 q-12 0 -25 8 q-13 21 5 43 l35 23 q10 12 -2.5 29 q-12.5 17 4.5 32 l10 2 l30 -33 q29 -12 59 5 q17 -11 17 -27 q-24 -20 -53 -16 q-20 -11 -35 -21 q-2 -12 4 -25 q33 -12 53 15 q29 29 60.5 67.5 q31.5 38.5 0.5 87.5 q-24 6 -48 -3 q-24 -9 -46 -11 l-4 -4 l-59 -25 l-4 -9 l-10 -7 l-19 -35 l-11 4 l6 43 q36 29 82 46.5 q46 17.5 95 28.5 ZM411 645 q6 -8 11 -14 q5 -72 23 -139 q22 -75 78 -131 q-7 41 16 79 l8 0 q2 -22 7 -44 q-11 -35 -5 -67 q9 -19 16 -35 q101 39 209 55 q35 -8 64 -14 q7 -6 15 -11 q13 -20 25 -40 q-4 -130 -9 -253 q-7 -29 -11 -64 q-9 -11 -18 -2 q-5 -7 -9 -11 l-9 0 q-13 20 -27.5 45 q-14.5 25 -4.5 54 l8 0 l26 -47 q5 8 9 16 q7 105 12 225 q-7 27 -24 59 q-37 13 -76 15 q-90 -13 -169 -49 q-4 -4 -9 -9 q7 -55 -13 -102 q36 -24 79 15 q43 39 80 14 q2 -14 -3 -23 q-51 -42 -87 -71 q-8 0 -15 0 l-1 -4 q-13 -12 -24 -2 l67 61 q-74 -19 -138 -35 q-3 4 -5 23 q38 44 30 106 q-23 -4 -59 -10 l-4 8 q16 8 46 20 q5 5 11 11 q-4 12 -12 57 l-21 18 q-45 51 -69 116 q-23 98 -36 156 q-7 16 7 26 l11 -2 ZM251 592 q19 -36 2 -76 q-38 -51 -54 -96 q16 15 36 7 q8 -16 16 -58 q-16 -61 -4 -122 q-8 -26 -17 -51 q5 -76 5 -124 q8 -9 12 -25 q-21 -14 -43 -8 q-4 8 -8 17 q3 24 6 51 q-2 42 -2 81 q8 29 17 59 q-11 59 8 119 q-4 12 -6 27 q-13 9 -22 -5.5 q-9 -14.5 -18 -14.5 l-34 -40 q-13 -4 -25 -4 q21 88 90 165 q18 49 29 100 l12 -2 ZM329 333 q14 -16 12 -41 q-19 -62 -8 -120 q2 -43 28.5 -74 q26.5 -31 51.5 -59 q7 -15 20 -4 l10 21 q6 9 17 2 q2 -9 -11 -42 q-22 -20 -43 -8 q-75 66 -98 159 q-8 70 11 139 q-17 13 -4 31 l14 -4 Z" /><glyph glyph-name="" unicode="&#x50cf;" d="M507 704 q4 0 18 -5 l0 -15 l-23 -12 l-4 4 q-2 -13 -17.5 -22 q-15.5 -9 -2.5 -19 q36 2 75 17.5 q39 15.5 80 4.5 l8 -10 l9 -6 q7 -29 -17 -47 l-6 0 q-2 -4 -15 -18 q-13 -20 -32 -22 l-8 -11 l-7 15 l21 16 q4 14 25.5 28.5 q21.5 14.5 7.5 36.5 q-20 2 -36 4 l-3 -4 q-69 -18 -120 -31 q-9 2 -15 7 q-16 20 2 37.5 q18 17.5 29 35.5 l31 16 ZM625 605 l0 -6 l2 3 l-2 3 ZM247 570 q3 -9 4 -14 q-52 -91 -96 -166 q10 0 28 3 q9 -9 19 -15 q8 -29 13 -57 q-5 -37 -8 -75 q-3 -38 3 -72 q-20 -43 -6 -78 q-4 -20 -12 -31 q-22 -9 -35 -9 q-2 7 -3 16 q1 40 20 79 q-4 32 4 61 q0 66 1 141 q-3 5 -5 8 l-4 -3 l-5 3 q-30 -22 -40 -24 l-29 -29 l-18 -6 q-15 13 2 33 q36 47 63 78 q35 65 65 130 q13 15 27 29 l12 -2 ZM745 558 q16 -2 33 -6 q8 -25 -6 -43 q-35 -35 -68 -69 l-7 0 l-5 -5 l-6 0 l-2 -4 l-27 -4 l-2 4 q-32 -35 -67 -71 l-10 -5 q-13 -16 -24 -31 q13 -14 28 -27 q39 -74 51 -93 q98 33 184 98 q4 -2 10 -4 q11 -14 -5 -20 q-29 -21 -59 -43.5 q-30 -22.5 -62 -30.5 l-11 -10 l-11 -6 l-9 -9 q-9 0 -23 -12 l-2 -8 q43 -30 59 -39 l13 -12 q24 -18 49 -34 q20 -11 55 -25 q81 -10 108 -10 q7 -6 9 -10 q-34 -30 -77.5 -14 q-43.5 16 -76.5 3 l-10 11 q-33 20 -98 73 q-19 17 -37 12 q-16 -36 -10 -80 q6 -44 -30 -69 q-19 -7 -34.5 -30.5 q-15.5 -23.5 -37.5 -7.5 q-11 31 12 59 q20 -26 39 4 q8 12 18 26 q3 29 9.5 60 q6.5 31 1.5 61 q-19 4 -28 -10.5 q-9 -14.5 -21 -14.5 l-9 -8 q-47 -37 -93 -71 q-16 -13 -32 -4 l0 18 q36 31 50 38 q33 29 49 70 q-19 -8 -45 -20 l-4 -4 q-21 0 -39 -26.5 q-18 -26.5 -37 -10.5 l-4 -7 l-12 0 l-2 20 l16 12 q53 40 82 106 l14 0 q4 -8 10 -17 q-14 -29 -20 -49 l30 19 q4 18 13 26 q33 4 63 -8 q6 3 12 6 q-6 23 -20.5 44.5 q-14.5 21.5 -27.5 41.5 q-43 6 -83 -23 q-52 -39 -91 -61 l-2 -4 l-15 0 q-6 25 19 41 q73 49 114 69 l6 7 l12 5 l13 13 l6 2 q51 51 74 76 l-5 4 q-24 -9 -46 -15 q-34 -22 -66 -42 q-4 1 -8 4 l-4 -4 l-9 -2 l0 24 l23 16 l8 8 l33 16 l68 70 q-11 8 -21.5 -2 q-10.5 -10 -18.5 -4 l-5 -6 l-11 0 l-2 -4 q-21 -7 -35 -26 q-14 -19 -32 -13 q-2 3 -2 8 q14 17 32 39 q115 52 241 74 ZM704 531 q-14 -2 -81 -22 q0 -7 22 -44 q23 -36 50 -1 q6 18 32 29 q26 11 23 38 l-46 0 ZM294 520 q10 -18 59 -118 q16 -22 33 -42 q20 -9 45 -19 l0 -15 q-33 -2 -62 15 q-20 27 -24 39 l-8 4 q-31 61 -56 100 q-9 23 7 39 l6 -3 ZM610 460 l-11 -13 q16 0 24 4 l-8 11 l-5 -2 ZM170 437 l0 -6 l2 4 l-2 2 ZM324 420 l0 -5 l2 3 l-2 2 ZM204 337 l0 -6 l2 4 l-2 2 ZM539 298 l0 -6 l2 5 l-2 1 ZM607 208 l0 -6 l1 4 l-1 2 ZM652 188 l-19 -9 q10 -7 22 4 l-3 5 ZM490 181 l-2 -3 l0 5 l2 -2 ZM559 165 q-3 -11 -16.5 -23.5 q-13.5 -12.5 -3.5 -21.5 q15 7 51 29 l-8 8 l-19 6 l-4 2 ZM588 141 l6 0 l-4 2 l-2 -2 ZM721 74 l0 -7 l2 5 l-2 2 ZM617 0 l0 -6 l2 5 l-2 1 Z" /><glyph glyph-name="" unicode="&#x513f;" d="M415 484 q32 -71 2.5 -160 q-29.5 -89 19.5 -154 q28 -13 63 -11 q59 13 94 17 l5 -4 q40 6 85 11 q33 0 67 0 q21 5 42 11 q13 92 26 143 q2 -4 5 -8 q7 -79 3 -157 l-8 0 q-2 -11 -6 -23 q-18 2 -35 6 q-68 -8 -137 -8 q-69 0 -132 -18 q-42 0 -82 0 q-25 26 -31 63 q-3 61 4 123 q-7 122 -10 167 l8 6 l17 -4 ZM239 447 q11 -27 4 -54 q-13 -58 -24 -115 q-9 -45 7 -79 l17 0 l8 11 l23 13 q12 -11 1 -24 q-14 -16 -33 -28 q-19 -12 -36 5 q-36 63 -6 132.5 q30 69.5 26 138.5 l13 0 Z" /><glyph glyph-name="" unicode="&#x5148;" d="M484 679 q8 0 41 -27 q4 -60 49 -98 q-2 -38 -33 -60 q-57 -41 -63 -41 q-33 -73 -31 -151 q112 29 229 62 q28 4 53 -9 q4 -10 4 -20 q-20 -25 -49 -22 l-3 -5 l-18 -10 l0 12 l7 0 l25 25 q-16 6 -34 -3.5 q-18 -9.5 -32 -0.5 l-2 -5 q-55 -16 -143 -38 l-4 -4 q-114 -37 -233 -74 q-14 0 -37 -6 q-16 0 -88 4 q-8 -6 -24 -6 q-11 13 2 24 q57 7 121 2 q83 22 194 58 q5 45 22 134 q-2 2 -4 4 q-64 -31 -129 -46 q-26 0 -51 0 q-27 28 -1 55 q26 27 28 57 q12 6 20 -6 q4 -22 -17.5 -44.5 q-21.5 -22.5 -2.5 -41.5 q86 8 160 58 q11 63 16 144 q9 50 16 72 l12 7 ZM498 639 q-24 -37 -22 -80 q2 -43 -2 -79 q18 -6 29 13 q11 19 30 23 q16 13 12 33 q-33 37 -36 88 l-11 2 ZM833 230 q12 -122 78 -224 q-2 -10 -4 -18 l-11 0 l-8 -14 q-44 6 -86 12 q-100 -2 -173 0 q-64 -8 -117 -14 q-18 6 -59 22 q-24 14 -28.5 41.5 q-4.5 27.5 -9.5 51.5 q-2 50 20 96 q12 19 27 3 q-6 -59 -9 -126 q5 -29 29 -44 q14 -4 45 -12 q9 2 18 7 q55 1 123 7 q8 -4 38 -6 q82 2 139 0 q6 4 13 8 q-31 102 -29 213 l4 -3 ZM382 215 q4 -7 11 -11 q-13 -25 -29 -45 q-6 -43 -22 -84.5 q-16 -41.5 -3 -84.5 q32 26 55 63 q2 -17 -8 -26 q-10 -9 -10 -21 l-5 -2 l-13 -37 q-15 -3 -23.5 -16 q-8.5 -13 -19.5 -8 q-9 63 2 131 q12 36 24 73 q23 41 37 68 l4 0 Z" /><glyph glyph-name="" unicode="&#x5149;" d="M760 668 q12 -27 -12 -49 q-49 -70 -138 -195 l-16 -9 l-8 -17 l-6 -2 l-28 -30 l-16 -13 q36 51 87 116 q40 62 72 127 q-16 -6 -38 -22 q-30 -31 -42 -45 l-13 -4 q-30 -41 -55 -72 q-16 -13 -36.5 -26.5 q-20.5 -13.5 -38.5 2.5 q-8 57 -8 67 q-6 16 -13 40 l-18 0 q-13 20 4 36 q28 -9 51 -31 q0 -21 12 -90 l11 -2 l9 11 l11 7 l98 98 l94 76 l18 22 l12 7 l7 -2 ZM275 462 q35 -74 98 -123 l20 0 l1 -17 q-21 -12 -38 2.5 q-17 14.5 -30 26.5 q-42 39 -67 89 l-8 5 q-10 13 -1 27 l25 -10 ZM586 341 q2 0 16 -10 q0 -5 3 -7 q-62 -71 -143 -167 q-25 -41 -62 -99 l6 0 l31 29 l3 3 l76 80 l13 0 q4 -9 8 -15 q-18 -63 -25 -77 q-1 -17 -1 -33 q8 -31 8 -45 q18 -12 39 -24 q177 4 282 8 q4 4 7 8 q-3 66 0 159 l9 -4 q4 -89 32 -169 q-4 -4 -4 -14 q-12 -6 -22 -10 q-9 4 -101 4 q-91 -13 -181 -13 q-44 4 -82 33 q-24 30 -16 65 q8 35 10 71 l-18 -14 q-29 -33 -90 -98 q-16 -8 -26 -10 q-13 20 3 44 q17 29 47 78 q103 131 148 190 q-29 -12 -40 -12 l-7 -8 q-29 -14 -62 -33 q-7 0 -10 0 l-10 -10 q-67 -31 -98 -41 l-3 -4 q-36 -17 -52 -20 l-2 -4 q-53 -23 -91 -35 l-2 -5 l-44 -22 q-25 12 -3 29 q118 37 231 89 q113 52 223 113 Z" /><glyph glyph-name="" unicode="&#x5151;" d="M621 690 q10 -11 2 -27 q-33 -34 -107 -120 q-42 -39 -54 -45 q-2 4 -4 9 q75 75 128 172 l19 16 l16 -5 ZM250 531 q15 2 28 -12 q10 -27 36.5 -42 q26.5 -15 32.5 -44 q-4 -4 -8 -6 q-24 13 -44.5 36 q-20.5 23 -49.5 29 q-12 6 -6 17 q6 11 11 22 ZM586 467 q4 0 16 -7 q0 -25 -16 -42 q-21 -20 -94 -99 l-61 -49 l-4 -13 l-31 -16 l-8 -16 l-22 -21 q-31 -45 -47 -96 q-29 -77 -27 -152 l32 32 l17 8 q10 -16 -5 -26 q-15 -10 -15 -23 q-35 -22 -51 -27 q-17 27 -9 64 q4 15 33 141 q35 90 49 128 l-26 0 l-13 15 l-12 7 q-57 60 -102 129 q0 9 0 18 q12 13 25 0 q38 -73 95 -130 q5 8 14 34 q34 21 66 43 q121 62 196 98 ZM561 433 q-3 2 -77 -35 l-4 -4 q-65 -28 -120 -72 q-9 -14 -19 -30.5 q-10 -16.5 8 -30.5 l6 0 l18 20 q23 17 54 9 q20 16 40 32 q92 102 94 111 ZM492 225 q17 -13 12 -31 q-40 -57 -40 -122 q5 -52 14 -76 q12 -18 35 -12 q23 6 43 2 l3 -4 q78 -6 136 -8 q6 -4 13 -7 q9 3 17 5 q12 50 35 118 q38 88 46 98 q5 -16 -2 -37 q-30 -75 -40 -152 q4 -25 8 -50 q-8 -9 -17 -20 q-45 7 -100 20 q-69 2 -136 5 q-41 -3 -70 20 q-27 32 -20.5 74 q6.5 42 6.5 83 q8 47 41 86 l12 4 l4 4 Z" /><glyph glyph-name="" unicode="&#x5165;" d="M204 523 q31 -4 77 -11 q25 -26 64 -30 l16 -17 l66 -41 l40 -40 l103 -84 l49 -57 l8 -4 q52 -63 83 -98 q33 -9 69 -9.5 q36 -0.5 68 -19.5 q11 -10 2 -18 q-40 16 -85 12 q-45 -4 -85 6 q-22 35 -34 55 q-67 76 -87 103 l-35 28 l-12 15 l-49 36 l-58 57 q-14 7 -26 12 q-37 -25 -72 -49 q-47 -50 -116 -136 q4 -21 -9 -37 q-7 0 -16.5 -11 q-9.5 -11 -15.5 1 q-8 40 27 77 q75 84 150 164 l17 8 l0 5 q-43 22 -78 40 q-24 2 -46 6 l-38 -37 l-7 4 l4 21 l16 12 q2 23 10 37 Z" /><glyph glyph-name="" unicode="&#x5168;" d="M347 679 q17 0 33 -16 l38 -44 q47 -29 89 -67 q38 -50 83 -94 q37 -25 89 -52 q13 -12 56 -51 q86 -45 182 -61 l2 -22 q-59 18 -120.5 28 q-61.5 10 -110.5 47 l-16 24 q-31 27 -70 41.5 q-39 14.5 -59 51.5 l-67 79 l-78 57 l-27 35 l-20 4 q-6 -12 -32 -39 q-38 -59 -111 -171 l-6 -5 q-10 -22 -35 -66 l-8 -5 q-12 -20 -55 -78 l-24 -20 q63 94 120 205 q28 56 72.5 106.5 q44.5 50.5 74.5 112.5 ZM445 413 q4 0 24 -5 q3 -8 5 -15 q-34 -115 -57 -193 q1 -4 3 -8 q25 2 54.5 7 q29.5 5 52.5 -13 q10 -35 -18.5 -59.5 q-28.5 -24.5 -41.5 -46.5 q-45 -44 -94 -72 l-18 -22 q63 -10 131 10 q102 24 164 39 q24 8 47 -6 l2 -17 q-27 -20 -78 -47 q-51 -24 -102 -27 l6 7 q36 17 98 51 l0 6 q-109 -22 -233 -46 q-57 0 -110 -7 q-10 13 1 25 q17 12 40 18 q47 37 94 73 q18 25 46.5 45.5 q28.5 20.5 34.5 54.5 q-27 9 -56 0 q-22 -10 -40 -20 l-18 -37 q-11 -21 -24 -8 q-5 14 -17 29.5 q-12 15.5 0 33.5 q10 15 30 13 q31 43 44 99 q18 83 18 105 q-40 -14 -88 -31 q-30 -12 -47 12 q-4 12 0 29 q6 4 15 8 q30 -10 64 -1 q34 9 68 16 Z" /><glyph glyph-name="" unicode="&#x516c;" d="M315 561 q6 0 24 -12 q-13 -2 -24 -12 q-23 -33 -31.5 -70.5 q-8.5 -37.5 -20.5 -70.5 q-20 -51 -8 -99 q-8 -3 -20 1 q-12 26 -2 57 q17 92 53 181 l29 25 ZM650 492 q18 -16 43.5 -15 q25.5 1 43.5 -19 q31 -34 13 -72 l-13 -6 q-6 20 -4 47 q-10 8 -18 18 q-47 31 -100 15 l-3 7 q13 11 38 25 ZM688 474 l0 -7 l2 5 l-2 2 ZM533 286 q12 -8 10 -21 q-27 -30 -87 -95 q-36 -35 -39 -80 q112 14 296 47 q32 4 63 -6 l0 -17 q-37 -38 -86 -54 q-9 1 -14 3 l-4 4 l49 40 l0 7 q-111 -16 -185 -27 q-9 -4 -17 -7 q-61 -11 -111 -19 q-4 -3 -8 -5 q-24 0 -47 0 q-14 5 -8 24 q79 87 178 206 l10 0 ZM686 67 l0 -6 l2 4 l-2 2 Z" /><glyph glyph-name="" unicode="&#x5173;" d="M531 659 q30 -26 10 -63 q-34 -59 -85 -102 q20 2 60 13 q23 -15 11 -38 q-58 -76 -80 -114 q-16 -29 -12 -53 q41 13 77 31 q-22 10 -12 31 q27 4 52 -13 l15 -16 l-11 -14 q-29 -8 -127 -47 q45 -74 100 -145 q36 -42 76 -80 q7 -2 26 -18 l4 -7 q15 -12 28 -24 q101 -18 164 -35 l-10 -9 q-98 8 -170 18 q-24 14 -51 37 l-13 16 l-5 2 l-26 36 l-25 22 q-41 60 -105 139 l-16 13 l-10 -22 l-6 -2 q-41 -84 -109 -148 l-48 -36 l-7 -9 q-24 -16 -52 -32 l0 9 q28 21 106 95 q30 37 75 102 q23 45 23 55 q-80 -43 -131 -70 q-17 21 4 40 q100 92 164 147 q12 32 22 47 l23 0 q24 30 40 57 q-12 12 -21.5 0 q-9.5 -12 -20.5 -3 l-5 -4 q-45 -16 -86 -40.5 q-41 -24.5 -83 -31.5 q-16 11 -3 27 q101 42 184 113 q19 21 37 43 q21 24 18 53 q-30 12 -44 -21.5 q-14 -33.5 -41 -29.5 q5 16 25 49 q20 25 52 34 l19 -2 ZM235 588 q4 0 22 -6 q29 -21 26 -57.5 q-3 -36.5 27 -55.5 l31 15 q0 -6 -19 -33 l-28 -2 q-31 37 -35 88 l-20 19 q0 5 -7 14.5 q-7 9.5 3 17.5 ZM404 335 l-26 -27 l-12 0 q-11 -14 -45 -51 l3 -4 q21 6 70 33 q14 20 12 47 l-2 2 ZM306 253 l7 -6 l9 8 l-9 2 l-7 -4 Z" /><glyph glyph-name="" unicode="&#x5176;" d="M583 743 q9 -10 17 -18 q-22 -98 -12 -192 q75 12 196 32 q27 -11 14 -32 q-10 0 -21 -14.5 q-11 -14.5 -17 1.5 q0 16 -5 19 q-87 -16 -118 -19 l-4 -4 l-43 -7 q-4 -7 -7 -13 q-1 -114 3 -130 q-10 -86 -14 -170 q-7 -31 6 -57 q76 0 198 4 q28 -6 57 -14 q2 -9 -4 -22 l-12 0 l-6 -9 q-45 -11 -87.5 -22 q-42.5 -11 -84.5 -11 l-2 -4 q-12 -1 -20 2 l4 4 q55 18 105 43 l-65 2 l-2 -4 q-101 -1 -122 0 q-92 -18 -135 -25 l-2 -3 q-32 -4 -153 -22 q-28 -11 -55 -19 q-9 1 -16 4 q-9 17 -11 29 q7 4 14 10 q38 3 121 16 q31 10 53 21 q0 26 -16 162 q-8 90 8 181 q-16 0 -39 -2 l-2 -4 q-32 -3 -59.5 -20.5 q-27.5 -17.5 -58.5 -11.5 q-19 16 -5 34 q15 0 29 0 q82 20 135 34 q8 19 2 38 q-6 19 0 42 q14 10 24 -7 q9 -16 -1 -37 q-10 -21 8 -32 l176 31 q2 36 5 85 l-18 11 q0 8 4 56 q22 22 27 54 l11 10 ZM547 504 q-49 -10 -171 -32 q-5 -8 -8 -14 q-2 -40 -4 -94 q7 4 16 9 q80 7 169 15 q18 23 6 54.5 q-12 31.5 1 57.5 l-7 2 l-2 2 ZM504 360 q-35 -5 -65.5 -18 q-30.5 -13 -60.5 -11 l-12 14 l-6 -4 q1 -22 9 -133 q2 -2 4 -4 l13 6 q12 -16 10 -36 q-6 -23 -10 -39 q2 -4 4 -6 q61 22 114 61 q33 33 39 45 q-20 12 -47 8 q-45 -17 -81 -28 q-11 11 -2 28 q73 38 130 102 l4 15 l-43 0 ZM547 308 q-11 -4 -20 -10 l-23 -23 q12 0 39 -5 q11 4 5.5 15.5 q-5.5 11.5 0.5 20.5 l-2 2 ZM539 179 q-14 -5 -74 -38 q-18 2 -28 -11.5 q-10 -13.5 -26 -2.5 l-7 -11 q9 -2 133 21 l2 42 ZM360 14 l6 -12 l-42 -28 q-16 -18 -30 -36 q-19 -16 -1.5 -27 q17.5 -11 -2.5 -18 l-20 3 q-29 19 -6.5 44 q22.5 25 36.5 44 q35 30 47 34 l13 -4 ZM610 0 q5 0 47 -35 l17 -24 l45 -30 q10 -11 2 -20 l-17 -5 l-2 -6 q-26 -6 -46.5 18 q-20.5 24 -43.5 33 l-20 20 l-29 13 l-2 10 l29 -4 q0 8 9 24 l11 6 Z" /><glyph glyph-name="" unicode="&#x517c;" d="M631 715 q10 -11 12 -20 q-44 -72 -100 -132 l-6 -2 l-12 -16 l-9 -4 l-4 -10 l-16 -12 q0 4 0 10 q76 110 125 186 l10 0 ZM304 572 q2 0 27 -18 l40 -62 q15 -14 31 -28 q143 34 279 67 q79 16 159 18 q11 -12 16 -24 q-18 -9 -43 -16 l-2 3 l-9 2 l-5 13 q-84 -8 -118 -13 l-3 -3 l-22 0 l-4 -4 q-70 -17 -162 -35 q-82 -32 -213 -72 q-81 -14 -120 -24 q-6 2 -12 6 q-14 12 0 24 q43 -8 87 7 q83 20 146 43 q-39 40 -72 80 q-20 20 0 36 ZM563 464 q13 -11 8.5 -25.5 q-4.5 -14.5 2.5 -25.5 q47 0 93 15 q46 15 97 7 q14 -13 10 -29 l-61 -48 l-43 -43 q-20 -5 -30.5 -28.5 q-10.5 -23.5 -29.5 -16.5 q-14 -19 -32 -47 q-2 -15 -13 -69 q2 -64 7 -125 q11 -37 11 -75 q5 -9 9 -16 q8 -25 -12 -38 l-22 7 q-11 51 -17 105 q-4 100 -5 200 q-9 -4 -69 -51 q-5 -7 -9 -36 q-2 -33 -2 -65 l6 0 q-2 18 14 27 q18 -56 -11 -109 q-12 -6 -25 -11 q-22 80 -7 165 q-6 7 -15 22 q6 11 19 25 q6 36 8 80 q-8 0 -37 -14 l-18 -19 l-10 -5 q-31 22 -4 47 q64 20 71 26 q6 28 13 59 q-67 -22 -105 -32 l-2 -4 l-59 -29 l-6 -7 l-13 0 q-12 13 -1 29 q61 31 129.5 48.5 q68.5 17.5 135.5 43.5 q0 15 -1.5 33 q-1.5 18 16.5 30 l9 -1 ZM717 415 q-38 -7 -60 -7 l-3 -4 q-42 -8 -78 -18 q-4 -18 -4 -71 l63 0 l57 56 l43 35 l0 7 l-16 0 l-2 2 ZM539 376 q-14 -3 -57 -16 q12 -17 -2.5 -33.5 q-14.5 -16.5 -1.5 -28.5 l53 8 q14 13 8 32.5 q-6 19.5 0 37.5 ZM576 292 l0 -14 l10 12 l-10 2 ZM541 286 l-61 -12 q-18 -27 -15 -59 q2 -5 7 -9 l71 47 l0 31 l-2 2 ZM257 145 l4 -6 l13 -7 q23 -13 4 -25 l-10 3 q-7 -10 -11 -18 q0 -52 8 -141 l-8 -2 q-32 59 -24 131 q8 49 17 65 l7 0 ZM676 114 q3 0 10 0 q64 -40 135 -63 l17 -20 l31 -29 l-3 -16 l-8 4 l-13 -12 q-39 22 -59 34 l-16 28 q-27 5 -49 21.5 q-22 16.5 -47 14.5 q-15 11 -8 32 l10 6 Z" /><glyph glyph-name="" unicode="&#x5185;" d="M520 663 q9 -9 17 -18 q4 -89 6 -114 q39 8 78 18 q76 7 149 -12 q10 -14 20 -37 q-20 -55 -14 -114 q8 -64 12 -86 q0 -35 -2 -104 q9 -124 16 -222 q-16 -20 -32 -9 l-25 29 q-55 35 -112 75 q66 -18 127 -36 q-2 36 -7 74 q0 79 5 163 q-19 90 -15 183 q2 21 7 43 q-7 6 -11 13 q-60 14 -120 11 q-41 -9 -82 -18 q-10 -26 -35 -91 q2 -7 5 -11 q54 -32 100 -79 l16 -23 l18 -14 q20 -16 6 -33 l-6 6 l-10 -12 q-4 -2 -12 2 q-14 27 -49 68 q-25 11 -43 34.5 q-18 23.5 -45 23.5 q-35 -63 -82 -114 l-20 -18 l-25 -29 l-12 -8 q33 61 94 127 q53 80 67 169 q-28 -12 -57.5 -4 q-29.5 8 -52.5 -10 l-14 -14 l-16 -12 q-19 7 -4 28 q9 10 22 23 q31 12 66.5 6 q35.5 -6 65.5 14 q11 30 2 64 q-9 34 -4 68 l8 0 ZM212 435 q5 0 16 -8 q2 -14 7 -29 q-5 -38 -7 -63 q17 -41 5 -84 q14 -75 18 -88 q-4 -4 -6 -8 l16 0 q-2 -16 -18 -116 q-4 -4 -6 -8 l-7 -2 l-7 -11 l-11 0 q-13 13 -8 33 q2 7 6 12 q2 74 9 116 q-4 7 -4 21 l-5 2 q-4 37 0 120 l-4 2 q0 62 0 98 q2 7 6 13 Z" /><glyph glyph-name="" unicode="&#x518c;" d="M635 627 q37 -6 64 -33 q-7 -14 -13 -29 q0 -18 0 -34 q9 -17 13 -24 q-4 -87 -9 -139 q2 -4 7 -8 q53 8 114 9 q49 -18 102 -3 l6 -6 l10 -5 q7 -29 -18 -45 q-62 27 -127 35 q-53 -4 -82 -10 l-7 -9 q4 -38 6 -100 q9 -45 22 -89 q8 -115 12 -137 l-16 -4 l0 -8 q-27 0 -47 16 l-9 20 l29 3 q-6 55 3 112 q-29 91 -34 190 q-24 -8 -48.5 -6.5 q-24.5 1.5 -40.5 -12.5 q-7 -89 -9 -151 q4 -28 4 -63 l-22 -11 q-16 40 -8 89 q4 52 10 136 q-18 3 -118 -12 q2 -77 11 -206 q13 -18 7 -36 l-25 -9 q-36 25 -32 65 l16 10 q-4 41 -1 85 q3 44 -9 87 q-81 -6 -98 -10 q-8 -119 -10 -184 l-7 0 l-7 -8 l-13 6 q-20 41 4.5 91 q24.5 50 2.5 92 q-58 -1 -103 3 q-40 -9 -87 -10 q-4 1 -9 6 q-6 17 11 24 q183 0 195 4 q6 58 17 119 q5 40 -6 80 l-14 2 l0 7 q12 20 30 9 q15 -31 13 -63 q-13 -78 -11 -154 q45 0 90 9 q0 43 17 192 q6 20 -11 36 q-22 9 -31 -12 q-9 -21 -26 -21 q-14 8 2 21 l16 8 l5 24 q27 17 52 -6 l2 -7 l9 -7 q6 -18 11 -34 q-7 -27 -11 -46 q0 -41 -11 -116 q4 -20 9 -28 l110 12 q12 12 12 33 q-2 67 0 122 q-4 31 -6 77 q-12 13 -26.5 9 q-14.5 -4 -24.5 6 q-2 8 2 20 q26 12 53 -1 q11 -13 20 -23 q5 -215 7 -235 q76 8 87 14 q7 82 11 137 q-15 44 -18 64 q3 16 3 36 l-10 0 l-10 -12 l-12 -2 q-4 4 -4 41 q6 2 14 8 Z" /><glyph glyph-name="" unicode="&#x518d;" d="M661 637 q47 0 72 -4 l2 -6 q20 0 45 4 q17 -10 6 -23 q-18 -6 -35 -14 q-18 2 -32 18 q-76 3 -84 7 l-2 -4 q-18 -3 -43 -7 l-4 4 q-37 -16 -75 -13 q-4 -5 -7 -7 q15 -34 8 -73 q27 0 55.5 13 q28.5 13 59.5 4 q6 -7 12 -13 q2 -112 16 -215 q86 2 151 7 q18 -7 38 -11 q9 -14 -3 -20 q-17 -6 -55 -23 q-8 2 -16 7 l0 12 l-9 6 l-1 -5 q-56 13 -108 -3 q3 -50 22 -209 q2 -69 0 -83 q-19 -6 -33 -8 l-26 26 l-25 18 q-10 23 -12 45 q2 0 5 2 q19 -16 54 -38 q4 47 2 101 q-8 44 -16 140 q-4 3 -8 9 l-15 3 l-1 -4 q-68 -10 -88 -17 l-4 -8 q-9 0 -21 -5 l-10 9 q-31 -2 -58 -4 l-1 -4 q-46 -14 -86 -26 q0 -58 0 -115 q12 -25 10 -50 q-15 -20 -31 -11 q-16 80 -8 163 q-39 -6 -112 -22 q-11 2 -20 6 q-11 16 2 30 q34 9 71 21 q32 6 47 6 q8 4 16 10 q13 70 18 143 q15 11 15 31 q8 8 19 -2 q3 -11 10 -20 q-7 -39 -22 -76 q-15 -37 -9 -74 q31 5 65.5 9 q34.5 4 64.5 28 q15 11 8.5 31 q-6.5 20 -6.5 36 q-11 0 -20 -7 q-9 -7 -16 6 q0 5 -8 15.5 q-8 10.5 8 16.5 l32 2 q4 4 11 11 q2 32 0 59 q-18 -8 -32.5 -28 q-14.5 -20 -32.5 -9 l9 34 q15 11 54 27 q22 13 10 40 q-12 27 2 47 q-4 3 -8 7 q-45 -8 -84 -18 q-92 -13 -184 -25 q-22 2 -43 7 q-20 5 -8 20 q20 2 47 -4 q62 8 82 8 q184 39 373 59 ZM565 512 q-32 -8 -56 -26 q3 -19 -7 -38 q-10 -19 2 -33 q27 9 57 3 q13 -24 2 -50 q-24 -35 -49 -70 q22 0 44 0 q28 2 57 12 q0 59 2 119 q-2 43 -15 82 l-37 1 ZM516 511 l0 -7 l3 5 l-3 2 ZM539 390 q-10 0 -39 -14 q-2 -21 2 -45 l7 0 q28 22 30 59 Z" /><glyph glyph-name="" unicode="&#x5199;" d="M739 633 q51 10 85 -26 q3 -27 23 -42 q-2 -6 -3 -11 q-15 4 -23 0 l-2 -13 q-26 -5 -53 -12 q-16 -9 -67 -41 q-9 0 -18 0 l11 16 l96 61 q12 7 2 14 q-10 7 -8 17 q-21 19 -46.5 15.5 q-25.5 -3.5 -47.5 -3.5 q-61 -22 -100 -32 q-23 -11 -108 -45 l-2 5 l-2 -5 q-36 -17 -47 -17 l-2 -3 q-27 -17 -51 -29 q6 20 12 27 q100 40 257 103 q21 5 94 21 ZM161 619 q9 -2 31 -11 l-2 -8 l-9 0 q-2 -4 -11 -14 q6 -27 11 -50 q0 -20 0 -38 q19 -58 62 -104 l8 -4 l4 -8 q29 -35 69 -18 l7 -9 q-43 -24 -78 11 l-3 7 l-22 13 q-13 16 -28 32 q-8 22 -33 78 q-6 40 -12 65 q2 11 0 44 l-4 2 l4 8 l6 4 ZM681 612 l0 -5 l3 3 l-3 2 ZM657 607 l0 -7 l2 5 l-2 2 ZM525 561 l0 -5 l2 3 l-2 2 ZM790 545 l0 -6 l3 4 l-3 2 ZM170 512 l0 -5 l2 4 l-2 1 ZM708 507 l0 -7 l2 4 l-2 3 ZM520 451 q7 -11 13 -20 q-6 -11 -6 -23 q9 -15 19 -8.5 q10 6.5 21 4.5 l5 4 l20 0 l4 5 q58 16 119 9 l2 -4 q-9 -5 -15 -10 q-61 -8 -122 -15 q-28 -13 -69 -29 q-9 -25 -24 -49.5 q-15 -24.5 -3 -49.5 q30 3 143 21 q52 4 96 -18 q10 -21 22 -40 q5 -24 10 -50 l5 -2 q1 -9 6 -17 q-11 -45 -21 -83 q-37 -54 -64 -90 l-2 4 l-3 -4 q-19 -14 -37 0 l-12 13 q-27 3 -49 9 l-4 12 q8 7 49 19 q14 -21 34 -10 q27 29 40 45 l16 11 q6 19 22 64 q-10 50 -20 90 l-7 2 l-11 12 q-34 12 -68 12 q-70 -10 -133 -22 q-24 -10 -40 7 q-16 18 -5 40 q9 16 53 118 q-20 25 8 48 l8 -5 ZM527 404 l0 -6 l2 4 l-2 2 ZM225 398 l0 -5 l1 3 l-1 2 ZM480 343 l0 -6 l2 4 l-2 2 ZM679 265 l0 -6 l2 4 l-2 2 ZM541 261 l0 -6 l2 4 l-2 2 ZM760 161 l0 -6 l1 4 l-1 2 ZM527 112 l4 -4 q-11 -6 -19 -10 q-77 -18 -159 -45 l-4 5 l-2 -5 q-25 -8 -34 -8 l-3 -5 q-20 -9 -60 -28 l3 -4 q-18 -8 -35.5 -22 q-17.5 -14 -36.5 -2 q-2 12 5 24 q24 3 42 23 q66 22 117 43 q104 26 167 40 l15 -2 ZM708 80 l-2 -4 l0 6 l2 -2 ZM358 65 l6 0 l-4 2 l-2 -2 ZM239 29 l0 -7 l2 5 l-2 2 ZM701 18 l0 -6 l1 4 l-1 2 Z" /><glyph glyph-name="" unicode="&#x51b6;" d="M565 650 q23 -21 7 -50 q-27 -64 -39 -108 q-39 -77 -39 -86 q69 12 205 43 q52 2 77 0 l4 -4 q33 -8 42 -16 q0 -14 -5 -27 q-8 13 -17 0 l4 -4 q-7 -5 -96 -67 q-18 -9 -32 -5 q21 17 90 85 q-16 18 -43 13 q-26 -6 -62 -7 q-36 -13 -54 -19 q-46 -10 -147 -32 q-4 3 -11 20 q33 54 58 104 q5 37 26 73.5 q21 36.5 23 79.5 l7 7 l2 0 ZM292 411 q5 -3 37 -27 q4 -23 20.5 -44 q16.5 -21 3.5 -42 l-8 4 q-12 39 -43 66 l-14 8 q-18 22 4 35 ZM445 297 q-5 -9 -10 -17 l-11 -8 q-6 -11 -26 -37 l-55 -41 l-2 5 l-2 -7 q-33 -25 -68.5 -41 q-35.5 -16 -60.5 -43 q-11 -4 -24 -10 q-10 16 -3 37 q21 8 152 77 q63 49 105 85 l5 0 ZM496 250 q4 -5 8 -9 q7 -41 8 -60 q24 -42 42 -87 q18 -45 53 -78 l5 0 q-2 17 17 27 q23 6 79 37 q25 27 50 55 q8 10 -3 20 q-38 2 -74 -10 q-11 -10 -22 -18 q0 -7 -9 -20 l-9 0 q-2 36 2 48 q33 23 78 24 q32 4 63 -3 q22 -19 4 -41 q-18 -25 -35 -48 q27 0 53 -2 l3 -11 q-90 -18 -166 -66 l-4 -4 l11 -4 q7 -12 -3 -20 q-22 -13 -40 4 q-68 65 -100 155 q-40 55 -21 112 l10 -1 ZM652 116 l0 -6 l2 4 l-2 2 Z" /><glyph glyph-name="" unicode="&#x51bb;" d="M552 666 q13 -14 9 -35 l-7 6 q-54 -54 -50 -126 q32 12 108 50 l5 9 q-23 12 -41 26 l6 3 l4 -5 q33 -12 69 -6 q21 -14 0 -25 q-50 -26 -155 -83 q-22 -96 -44 -186 q-7 -29 -9 -71 l13 -2 l4 7 q28 23 34 23 q9 8 14 17 l25 18 q19 78 28 129 q11 7 21 -3 q10 -10 22 -10 q27 -31 3.5 -66.5 q-23.5 -35.5 -41.5 -57.5 q-3 -79 -3 -158 q3 -69 13 -136 q-4 -6 -6 -12 l-15 0 l-1 -7 l-17 5 q-8 12 -12 30 q4 4 10 11 q-2 136 -3 226 q-7 0 -50 -33 q-26 -16 -55 -14 q-16 22 -9 55 q15 65 27 102 q13 57 13 113 q-33 -17 -113 -60 q-6 2 -10 4 l0 23 q30 13 112 51 q13 8 25 18 q2 98 69 170 l7 0 ZM114 394 q35 -4 64 -26 q8 -17 21 -32 q13 -15 3 -34 q-3 -2 -12 2 q0 13 -12.5 17.5 q-12.5 4.5 -14.5 17.5 q-36 8 -63 32 l0 17 l14 6 ZM596 378 q-13 -10 -2 -18 q5 4 5 16 l-3 2 ZM347 317 q2 -15 -12 -22 q-14 -7 -16 -15 q-72 -47 -141 -92 l-39 -41 q-19 -12 -31 0 q-12 31 23 52 q52 29 81 48 q5 0 11 0 l5 8 q56 29 119 62 ZM692 141 q43 -9 72 -41.5 q29 -32.5 69 -46.5 q11 -2 20 -2 q7 -16 28 -32.5 q21 -16.5 -3 -34.5 l-18 -6 q-16 18 -38 49 q-42 9 -69 42 q-27 33 -69 39 l-3 -4 l-13 0 q-14 6 -2 21 l26 16 ZM253 80 q-6 -15 -25 -44 q-16 -28 5 -50 l37 -19 l0 -13 q-33 -5 -58 13 q-38 55 7 113 q9 0 24 3 l10 -3 Z" /><glyph glyph-name="" unicode="&#x51e0;" d="M486 525 q14 -13 12 -31 q-10 -22 -18 -61 q0 -29 0 -57 q-15 -76 -16 -150 q10 -40 10 -67 q6 -12 24 -30 q82 -9 165 -7 q16 5 54 13 q43 0 59 4 q21 104 33 163 q2 4 6 8 q2 -4 2 -191 l-11 0 l-11 -12 q-134 -13 -266 -11 q-45 -6 -73 24 q-5 11 -9 23 q-4 40 -10 118 q19 94 19 192 q6 19 13 37 q-20 -2 -34 -18 q-20 -19 -39 -37 q-18 -29 -32 -42 q-4 -13 -13 -27 q-4 5 -6 18 q21 45 55 85 q33 38 80 56 l6 0 ZM247 462 l0 -17 l-4 4 l-8 0 q2 -4 4 -9 q-22 -46 -22 -95 q-9 -88 4 -173 q14 0 22 6 q18 37 51 94 l4 0 q-8 -64 -45 -111 q-12 -7 -27.5 -16.5 q-15.5 -9.5 -25.5 9.5 q-17 85 -8 175 q4 40 8 84 q8 22 15 43 q11 2 24 8 l8 -2 ZM337 345 l-11 -8 q-4 -13 -11 -27 q-15 23 11 43 l11 -8 Z" /><glyph glyph-name="" unicode="&#x51fa;" d="M469 631 q11 -2 25 -14 q0 -12 8 -52 l7 -2 q-5 -4 -7 -5 q5 -6 5 -25 l-9 -6 q-4 -47 0 -55 q31 6 66.5 31.5 q35.5 25.5 72.5 -1.5 q26 -42 6 -89 q-57 -111 -145 -194 q-12 -25 -4 -47 q31 6 71 22 l-7 43 l5 0 l15 -35 q67 15 139 33 q26 2 47 -16 q45 -29 51 -80 q0 -31 -20 -49 l-13 -8 l-6 -10 q-25 -29 -69 -58.5 q-44 -29.5 -74 17.5 q-26 41 -45 77 q-12 51 -21 64 q-63 -25 -127 -44.5 q-64 -19.5 -121 -47.5 q-45 -19 -91 -19 q-13 15 2 29 q58 22 119 45 q45 28 53 28 l6 7 l54 42 q3 9 7 16 q-5 62 -9 117 q4 82 0 86 q-33 -14 -123 -60 l-8 -11 q-12 -9 -29 -13 l-6 -6 q-19 -12 -39 -26 q-25 -18 -47 -7 q-25 33 -14 76 q21 49 59 92 q17 14 41 12 q3 -10 -2 -14 l-12 -5 q-29 -29 -56.5 -66 q-27.5 -37 1.5 -77 q43 19 90 42 q36 20 147 81 q5 43 5 86 q0 43 -5 88 q3 4 7 8 ZM612 490 q-24 6 -44.5 -6 q-20.5 -12 -40.5 -12 q-8 -7 -35 -27 q0 -72 -2 -104 q4 -44 10 -91 l7 3 q75 78 122 180 q8 29 -8 53 l-9 4 ZM706 212 q-27 0 -50 -13 q-23 -13 -48 -9 l-3 -4 l-17 -8 q11 -70 64 -115 q20 -24 50 -18 q29 27 59 53 q48 37 7 85 q-18 5 -30 17 q-12 12 -30 10 l-2 2 ZM456 178 l-39 -29 q3 -2 39 8 l2 19 l-2 2 Z" /><glyph glyph-name="" unicode="&#x51fb;" d="M543 686 q20 -27 31 -59 q2 -19 -7 -28 l-13 0 q4 13 0 26 l-9 2 q-18 -31 -33 -47 q-20 -39 -8 -80 q27 2 76 9 q19 -17 3 -33 q-9 -20 -24 -9 l0 15 q-20 0 -52 -10 q-13 -68 -21 -112 q-4 -47 0 -56 q43 4 83.5 20.5 q40.5 16.5 87.5 10.5 q13 -14 -2 -22 q-30 -11 -59 -5 q-104 -27 -120 -34 q-23 -59 -12 -120 q14 -50 16 -101 q45 8 87 37 q29 18 78 53 l10 22 q8 2 17 5 q14 -13 23 -16 q9 -25 30 -58 q6 -24 14 -49 q21 -59 0 -109 l-13 0 l-5 -9 q-20 7 -55 25 q-12 8 -23 18 l-10 18 q10 0 51 -6 q17 -8 29 -12 q8 40 -7 88 q-14 36 -45 65 q-7 -6 -24 -11 l-2 -6 q-35 -21 -77 -47 q-6 0 -13 0 l-8 -10 l-39 -20 q-22 -15 -18 -39 q-13 -6 -27 -8 q3 16 -10 27 q-28 -11 -104 -27 q-49 -17 -89 -4 q-9 34 15 67 q61 72 80 92 q16 -12 2 -23 l-14 -4 q-12 -30 -32.5 -53 q-20.5 -23 -25.5 -53 q6 -4 13 -6 q29 6 92 14 q31 8 63 19 q-3 75 -8 153 q2 40 5 82 q-38 -5 -72.5 -7 q-34.5 -2 -63.5 -20 q-18 10 -4 27 q31 22 68.5 17.5 q37.5 -4.5 74.5 8.5 q4 6 8 12 q5 29 23 154 q-9 2 -94 -17 q-33 0 -63 0 q-17 13 -2 24 q36 -9 77 -1 q41 8 80 20 q0 28 6 92 q31 63 53 110 l12 -2 Z" /><glyph glyph-name="" unicode="&#x5206;" d="M373 583 q5 0 13 -5 q-41 -51 -89 -113 q-5 -9 -17 -30 q4 -24 -8 -39 q-15 -20 -35 -14 q-11 16 2 35 q47 71 96 142 q12 6 38 24 ZM492 547 q37 -6 67 -8 q46 -14 107 -37 q44 -33 92 -62 q16 -16 0 -34 l-25 -12 q-4 14 -8 33 q-46 42 -106 67 q-78 22 -133 39 q0 8 6 14 ZM519 390 q28 3 55 -10 q31 -25 39 -63.5 q8 -38.5 8 -75.5 q-31 -109 -117 -178 q-14 0 -26.5 -15 q-12.5 -15 -24.5 1 q-8 25 11 43 q20 -18 33.5 2 q13.5 20 31.5 28 q57 59 71 143 q-8 33 -22 61 q-4 -13 -15 -28 q-52 -39 -81 -61 q-37 -35 -71 -70 l-53 -55 l-43 -34 l-15 -15 q-19 -3 -30 6 q-11 18 8 33 q19 6 55 27 q125 124 208 216 l20 2 q-30 26 -69 13 q-43 -13 -76.5 -34.5 q-33.5 -21.5 -64.5 -41.5 q-8 2 -14 4 l-4 18 q16 15 33 29 q54 20 153 55 Z" /><glyph glyph-name="" unicode="&#x5207;" d="M298 681 q8 0 24 -9 q13 -15 25 -29 q13 -57 8 -116 q9 -18 22 -36.5 q13 -18.5 17 -37.5 q-6 -8 -12 -13 q-24 -25 -57 -34.5 q-33 -9.5 -57 -25.5 q-3 -9 -5 -14 q15 -129 21 -149 q13 -11 21 8.5 q8 19.5 19 19.5 q94 98 176 213 q-24 -52 -53 -98 q-32 -38 -55.5 -78.5 q-23.5 -40.5 -58.5 -71.5 l-43 -40 l-53 -63 l-11 0 l-7 -9 l-17 4 q-3 5 -6 27 l6 2 l39 39 l9 6 q3 5 9 14 q-6 10 -12 20 q-4 49 -14 151 q-12 -1 -52 -8 q-16 8 -3 27 q32 -2 59 20 q13 69 28 156 q0 27 3 56 q10 31 22 64 l8 5 ZM315 645 q-11 -16 -18 -30 q0 -54 -11.5 -102 q-11.5 -48 -17.5 -96 q2 -4 4 -9 q22 12 47.5 19.5 q25.5 7.5 46.5 28.5 q-13 28 -27 58 q19 74 -18 131 l-6 0 ZM768 580 q27 2 47 -17 q20 -43 14.5 -89.5 q-5.5 -46.5 -10.5 -89.5 q-19 -63 -54.5 -118.5 q-35.5 -55.5 -54.5 -116.5 l-13 -2 l-9 -8 l-7 0 q-38 47 -13 104 l8 0 q8 -31 14 -51 q43 78 93 167.5 q50 89.5 14 187.5 q-44 16 -89 5 q-42 -15 -116 -45 q-22 -23 -33 -42 q-14 -12 -26 -18 q-17 9 -8.5 22 q8.5 13 16.5 23 q39 39 92 57 q30 10 62 21 q31 4 73 10 ZM672 496 q16 -18 9 -47 q-11 -51 -28.5 -98 q-17.5 -47 -29.5 -94 q-60 -138 -156 -253 l-9 -8 q-5 -8 -45 -56 l-11 -4 q0 5 27 50 q73 92 132 197 q39 89 51 121 q13 57 27 133 q2 35 27 59 l6 0 ZM239 131 q-4 -4 -4 -9 l6 7 l-2 2 Z" /><glyph glyph-name="" unicode="&#x521a;" d="M847 708 q4 -7 11 -16 q-18 -377 4 -759 l-9 -4 l-8 -16 q-12 -4 -23 -6 q-72 44 -152 77 l4 4 q67 -6 130 -37 q7 5 13 9 q-4 632 -8 636 l-3 -13 l-6 -1 l-2 -8 q-1 31 9 64.5 q10 33.5 24 65.5 l13 6 l3 -2 ZM465 600 q2 0 23 -10 q19 -43 31 -74 q-5 -18 -7 -34 q2 -98 4 -169 l9 0 q31 30 61 63 q24 41 37 53 q16 14 32 2 q29 -45 24 -96 l9 0 q14 23 29 47 q24 58 51 112 q-4 -16 -7 -32 q-24 -60 -60 -165 q-11 -11 -20 -22 l-24 -7 q-24 29 -9 67 q15 38 -13 67 l-23 -18 q-40 -53 -93 -109 q12 -103 12 -206 l-4 -2 q0 -22 -4 -28 l-11 4 l-10 -10 l-12 3 q-2 13 -12 64 q14 0 20 4 q-2 90 -6 151 q-12 -2 -90 -8 q-16 4 -31 10 l-13 15 l-37 -51 l-23 0 q-12 34 -50 63 q-38 29 -27 71 q12 6 32 11 q80 -31 111 -42 q24 23 22 56 l12 2 q31 -24 -4.5 -52 q-35.5 -28 -0.5 -52 q20 -13 47 -8.5 q27 4.5 48 18.5 q-4 25 -6 51 q4 34 8 69 q-4 19 -6 35 q0 66 4 82 q-6 20 -19 45 q-18 10 -34.5 -3 q-16.5 -13 -30.5 -13 l-26 -29 l-29 -16 l-6 5 q21 27 43 60 l79 26 ZM829 594 l0 -6 l4 4 l-4 2 ZM196 443 q-4 -8 -24 -57 q-5 -39 -9 -55 q-9 -92 16 -177 l21 0 q2 -7 -4 -32 l-24 -12 q-35 57 -33 131 q4 104 10 143 q2 31 23 53 l18 10 l6 -4 ZM274 331 q-17 6 -27 -7 q23 -32 47 -67 l14 -10 q16 16 35 50 q-4 3 -8 9 q-29 20 -61 25 ZM831 275 q-2 -5 2 -10 l2 9 l-4 1 ZM831 265 l0 -6 l4 4 l-4 2 Z" /><glyph glyph-name="" unicode="&#x521b;" d="M274 652 q6 0 14 -5 q10 -16 2 -37 q-25 -54 -33 -110 q4 -2 8 -4 q13 8 103 45 q63 24 130 41 q18 -19 -6 -37 l-12 -4 l-8 8 q-55 -10 -111 -33 q-20 -9 -108 -49 q-14 0 -23 7 q-2 18 3 46 q26 92 41 132 ZM784 635 q6 0 27 -12 q11 -13 18 -29 q-29 -45 -25 -100 q2 -10 5 -20 q-9 -66 -14 -121 q2 -51 0 -199 q5 -19 18 -82 q14 -45 31 -90 q-3 -4 -4 -8 l-13 0 l-6 -9 q-21 9 -61 35 q-7 0 -10 0 l-2 4 l-11 0 l-2 4 q-49 19 -94 31 l0 4 q80 -7 147 -12 q-8 32 -24 98 q-3 41 -6 57 q0 136 20 274 q-2 30 -4 60 q6 50 14 79 q-12 16 -4 36 ZM592 435 q4 -6 8 -11 q-14 -60 -18 -116 q43 61 75 107 q-24 -55 -69 -172 q-14 -8 -27 -13 q-14 17 -12 42 q7 83 33 165 l10 -2 ZM388 393 q32 9 52 -20 q11 -30 -9 -56 q-29 -42 -80 -117 l-8 -4 q-19 -33 -22 -67 q-17 -42 -11 -80 q96 43 170 121 q-11 -23 -31 -56 l-6 -2 l-6 -12 q-35 -24 -124 -98 q-21 -22 -38 0 q0 27 33 219 q-10 30 2 60 q14 11 25 -6 q6 -24 12 -38 q26 37 66 96 q7 16 -2 31 q-74 0 -143 -33 q-45 -39 -94 -61 q-19 14 0.5 23 q19.5 9 25.5 24 q86 52 188 76 ZM384 259 l0 -6 l2 4 l-2 2 Z" /><glyph glyph-name="" unicode="&#x5220;" d="M829 725 q6 -2 20 -10 q4 -25 8.5 -49.5 q4.5 -24.5 -1.5 -46.5 l4 -2 q-4 -177 -9 -315 q5 -45 5 -180 q8 -106 16 -218 q-6 0 -25 -6 l0 -5 q-86 27 -145 48 q11 4 66 4 q38 -2 63 -5 q2 3 7 7 q-9 114 -17 245 q3 206 8 467 q0 22 -10 40 l-17 -13 l-4 -7 l-18 -13 l-6 -64 l-4 0 q4 37 2 74 q6 5 14 14 l23 12 l20 23 ZM572 617 l0 -74 l4 -2 q4 -37 -4.5 -74.5 q-8.5 -37.5 10.5 -68.5 q51 10 99 39 l9 23 q12 2 25 -2 q14 6 30 7 q13 -12 13 -18 l-32 -29 q3 -69 -5 -137 q2 -7 4 -16 q-8 0 -21 -8 q-5 6 -9 15 q-7 114 -9 148 q-43 -14 -103 -38 q0 -45 -7 -98 q4 -65 7 -76 q-3 -49 -3 -173 q-13 1 -18.5 -11 q-5.5 -12 -12.5 3 q-8 42 -13 51 q1 4 5 26 l6 4 q5 41 9 91 q-4 38 -4 107 q4 16 7 33 q-1 22 -5 34 q-13 -22 -33.5 -13.5 q-20.5 8.5 -28.5 -12.5 q-10 -73 -10 -122 q12 -53 18 -109 q-14 -8 -24 -8 q-9 21 -14 43 q2 27 -4 57 q2 72 6 133 q-29 -6 -68 -20 q-6 -6 -10 -11 q-6 -49 7 -87 l11 12 q2 -9 4 -27 q-12 -54 -10 -108 q-14 -15 -29 -6 q-8 114 -14 214 q-40 -8 -87 -18 q-7 -6 -11 -10 q0 -52 2 -102 q-8 -80 -14 -104 l8 -7 l0 -38 q-12 -7 -23 -9 q-5 13 -7 41 q12 53 13 108.5 q1 55.5 5 110.5 q-49 -5 -100 -8 q-14 8 -10 25 q23 11 51 8 q28 -3 57 1 q12 39 16 84 q15 39 25 57 q-5 -34 -17 -69 q-12 -35 2 -65 q32 4 90 18 q5 37 11 86 q-5 23 -6 48 q0 51 9 105 q-3 4 -5 8 l-21 -11 q-4 5 -6 9 q4 18 10 36 q17 3 37 -4 q10 -9 18 -28 q-6 -31 -12 -47 q-2 -93 -4 -192 q18 -6 38.5 3 q20.5 9 40.5 16 q4 57 9 152 q-7 44 -12 88 q3 7 10 12 l14 3 q10 -25 12 -52 q-4 -63 -6 -192 q28 -2 55 15 q11 7 2 12 l5 2 q-15 56 -2 116 q-3 40 -13 76 l-8 -4 l-8 -30 l-14 0 q0 14 3 30 q-3 8 -5 17 q4 7 20 24 l9 0 l3 4 l33 -16 ZM290 480 q7 -15 -6 -20 q4 9 6 20 Z" /><glyph glyph-name="" unicode="&#x522b;" d="M778 652 q2 0 15 -5 q18 -32 26 -69 q-2 -22 -4 -42 q6 -62 12 -138 q0 -12 -3 -63 q9 -84 16 -157 q-2 -84 -7 -142 q2 -3 5 -7 q-5 -29 -11 -47 q-16 -17 -34 -4 l-17 22 q-50 45 -106 74 l-11 9 q42 0 84 -18 q25 -16 50 -30 q7 50 9 108 q-20 122 -7 247 q-13 121 -23 217 q-6 -11 -21 -37 l-8 0 q-4 29 7 57 l28 25 ZM192 539 q8 -10 18 -30 q-8 -31 7 -58 q46 -87 64 -120 q-16 -14 -26 4 q-29 33 -51.5 70.5 q-22.5 37.5 -29.5 82.5 q-15 31 7 53 l11 -2 ZM413 537 q4 0 22 -6 q5 -20 -8 -39 q-61 -72 -69 -86 q11 -24 -3 -48 q-16 -19 -33 -37 l-16 -13 l-4 -8 q19 -3 42.5 -4.5 q23.5 -1.5 41.5 -17.5 q4 8 67 77 l16 0 q9 -8 11 -23 q2 -15 -4 -24 q-18 5 -24.5 -7.5 q-6.5 -12.5 -16.5 -16.5 q-11 -19 -20 -37 q25 -64 5 -131 q-14 -47 -42 -83 q-12 -4 -22.5 -14.5 q-10.5 -10.5 -18.5 3.5 q-22 38 4 74 l8 6 q6 -15 19 -33 q49 68 28 150 q-3 0 -6 2 q-73 -70 -110 -102 q-27 -27 -52 -52 q13 -11 0 -24 q-24 -10 -47 -3 q-11 16 -2 29 q11 7 91 74 q40 45 83 92 q20 16 2 28 q-38 17 -74 -3.5 q-36 -20.5 -71 -20.5 q-18 8 -6 24 q57 34 104 84 l5 8 q-13 0 -25 6 q-8 15 6 25 l21 10 q69 84 87 111 q-34 2 -67 -13 q-27 -16 -51 -36 q4 -23 -9 -38 l-14 0 q7 15 -2 30 q-9 15 4 32 q68 41 150 55 ZM633 465 q8 -14 12 -34 q-6 -14 -8 -35 q4 -20 13 -35 l5 5 q6 16 24 42 q0 -57 -20 -108 q-12 -8 -24 -12 q-10 34 -28 96 q-8 43 12 83 l14 -2 Z" /><glyph glyph-name="" unicode="&#x5230;" d="M795 688 q38 -27 38 -73 q-6 -48 -16 -117 q4 -71 7 -151 q0 -139 0 -275 q7 -19 17 -60 q3 -52 6 -71 q-12 -1 -26 -12 q-10 7 -21 14 l-3 8 q-36 14 -105 41 q5 2 9 7 q63 -7 108 -17 q2 40 -12 83 q-2 113 1 219 q-3 16 -5 33 q2 7 4 18 q-4 108 -7 159 q8 29 6.5 59 q-1.5 30 9.5 62 q-6 16 -9 32 l-9 5 q-16 -11 -13 -27.5 q3 -16.5 -3 -25.5 q-31 53 21 89 l2 0 ZM809 643 l0 -6 l2 4 l-2 2 ZM435 596 q8 0 25 -8 q2 -12 -2 -21 q-27 -38 -54 -71 q-4 -10 -8 -20 l-12 -9 l0 -5 l-6 -2 q-5 -13 -9 -23 l-9 -6 l4 -2 q-27 -33 -60 -74 q0 -6 0 -12 q25 -4 53.5 -2 q28.5 2 53.5 -10 q6 -12 11 -23 q0 -33 -22 -55 q4 -14 0 -41 q-29 -67 -78 -116 q0 -6 0 -11 q4 -2 9 -2 q69 25 136 52 q98 28 116 35 q-1 -9 -1 -16 q-19 -17 -39 -13 l-2 -4 q-96 -35 -161 -59 l-2 -4 q-54 -21 -103 -38 q-5 7 -5 20 q77 103 98 136 q5 16 1 29 q-28 -21 -61.5 -36 q-33.5 -15 -64.5 -7 q-22 24 4 47 q50 14 129 32 q6 8 15 24 q9 16 -1 29 q-30 16 -64 9 q-38 -13 -83 -21 l-2 24 q10 4 16 7 q60 64 109 138 q38 47 61 100 q-112 -28 -221 -67 q-28 -12 -49 9 q-6 16 13 27 q26 -7 53 7 l7 -7 q11 0 205 60 ZM400 570 l0 -7 l2 4 l-2 3 ZM433 545 l0 -6 l2 4 l-2 2 ZM739 480 q-14 -51 -37 -135 q-12 -41 -39 -67 q-13 -8 -28 -8 q-14 32 -8 67.5 q6 35.5 -2 73.5 q-26 -13 -51 -27 q-31 -39 -33 -45 q-16 -10 -25 -10 q-32 37 -49 86 q-9 12 -20 25 q2 3 4 7 q16 13 33 -2 q4 -45 32 -77 l11 -2 l16 27 q35 22 82 50 q12 6 25 2 q5 -12 13 -23 q-16 -49 -2 -98 q29 31 41.5 73.5 q12.5 42.5 36.5 82.5 Z" /><glyph glyph-name="" unicode="&#x5236;" d="M784 704 q11 -2 25 -14 q18 -29 22 -63 q2 -139 9 -254 q0 -120 -5 -123 q9 -148 14 -317 q-11 -2 -21.5 -11 q-10.5 -9 -21.5 5 l-26 35 l-20 14 q-19 23 -27 35 q18 0 35.5 -15.5 q17.5 -15.5 40.5 -17.5 q10 44 6 100 q-4 63 -9 147 q0 128 0 265 q-2 88 -18 169 l-6 -4 q-4 4 -10 44 l12 5 ZM402 629 q6 0 15 -6 l1 -58 q15 -6 32 5.5 q17 11.5 32 -0.5 l4 -12 l-8 -4 l-47 -54 l-9 -4 q-4 -12 -4 -38 q15 0 29 4 q6 -6 15 -11 l0 -11 l-11 -7 q-8 -13 -33 -45 q-5 -59 6 -113 q38 15 128 47 q31 15 58 -5 q5 -29 -11 -49 q-25 -29 -88 -96 q-25 -17 -47 -31 q-40 -4 -56 -4 q-22 -29 -6 -55 l15 8 l5 6 l13 0 q-4 -20 -15.5 -35.5 q-11.5 -15.5 -17.5 -29.5 l-8 -2 l-4 -5 l-21 -8 q-3 4 -3 92 q2 17 10 49 q-3 37 -3 68 q-30 -17 -38 -19 l-4 -4 q-66 -43 -81 -48 l-3 -7 q-41 -27 -66 -40 l-3 -5 l-15 -4 q-12 14 -2 33 l17 10 l3 8 l19 14 l25 37 l5 4 q0 21 20 33.5 q20 12.5 31 30.5 l36 30 l14 19 l10 7 q17 17 32 36 q23 28 3 51 l-29 -11 l-6 -6 l-12 0 l-7 -8 l-20 -10 l-5 -7 l-19 -14 q-6 -6 -17 -16 l-18 -8 q-13 20 8 42 q43 35 96 58 l4 9 l13 9 l0 7 l16 13 q4 13 8 27 q-4 4 -6 24 q-53 -13 -123 -30 l-4 -4 l-20 0 q-10 18 -3 39.5 q7 21.5 9 44.5 l4 2 q0 40 2 47 l10 0 q17 -20 13 -45 q-9 -38 -13 -47 q2 -4 4 -8 q29 4 78 14 q12 6 43 16 q8 18 5 39.5 q-3 21.5 15 40.5 ZM661 511 q11 0 20 -9 q0 -22 -7 -44 q5 -41 10 -54 l24 49 q5 -35 -7.5 -65 q-12.5 -30 -12.5 -62 q-9 -7 -25 -9 q-4 4 -16 157 q5 12 5 28 l9 9 ZM679 492 l0 -4 l0 6 l0 -2 ZM297 378 l0 -7 l1 5 l-1 2 ZM288 371 l0 -5 l2 3 l-2 2 ZM364 315 l-17 -11 q0 -18 -15 -25 q-15 -7 -22 -20 l-6 0 q-4 -4 -12 -18 l-14 -8 q-17 -16 -15 -37 q58 27 115 57 q4 35 8 76 l-8 4 l-14 -18 ZM355 331 l0 -7 l3 5 l-3 2 ZM561 300 q-3 0 -9 -2 l-5 -4 q-43 -13 -80 -29 q-9 0 -18 0 l-2 -6 l-20 -9 q0 -50 2 -74 q4 -6 8 -13 q12 -9 21 3 q9 12 22 15 l51 52 l10 8 q6 14 25.5 25.5 q19.5 11.5 15.5 33.5 l-21 0 ZM322 280 l0 -6 l2 4 l-2 2 ZM366 226 l0 -5 l2 4 l-2 1 ZM502 172 l0 -7 l2 5 l-2 2 Z" /><glyph glyph-name="" unicode="&#x5237;" d="M884 654 l16 0 q19 -37 8.5 -76 q-10.5 -39 6.5 -74 q-4 -4 -6 -8 q4 -53 6 -155 q-4 -91 -4 -118 q6 -92 12 -151 q-3 -43 -4 -102 l-23 -3 l-5 -5 l-11 5 q-16 29 -27 44 l-22 11 l-16 17 q-13 6 -29 19 q-12 3 -49 18 l-6 6 l4 3 q31 -7 62 -13 q47 -21 87 -52 q10 20 9 49 q-7 47 -11 112 q0 199 0 368 l-8 7 q2 36 8 96 l2 2 ZM582 650 q17 -11 17 -29 q-7 -14 -25 -41 q-35 -35 -35 -41 q10 -2 19 -8 q3 -17 -6 -22 l-43 0 l-2 -5 q-58 -18 -101 -32 q-2 10 5 30 q32 17 68.5 29 q36.5 12 63.5 47 q18 14 24 41 q-24 14 -53 4 q-50 -16 -85 -24 l-2 -5 q-41 -11 -74 -31 q31 -32 27 -77 q-19 -49 -33 -84 q-26 -41 -39 -65 q16 -57 34 -114.5 q18 -57.5 60 -100.5 l6 29 l9 0 q10 -20 1 -43 l6 -4 l-4 -12 q-12 -16 -22 -9 q-20 25 -38 52 q-21 24 -25 53 l-4 2 q-18 25 -19.5 58 q-1.5 33 -23.5 58 l-37 -45 l-8 -6 l-15 -25 l-5 -2 q-27 -42 -65 -75.5 q-38 -33.5 -66 -70.5 l-14 -6 q-2 2 -2 4 q107 119 204 253 q0 28 0 60 q17 13 37 3 q22 31 36 71 q16 35 -4 64 l-12 5 l0 20 q-18 0 -33 2 q-14 7 -7 24 q61 4 119 29.5 q58 25.5 121 38.5 l45 0 ZM559 574 l0 -7 l2 5 l-2 2 ZM704 415 l25 -2 q14 -13 9 -29 q-5 -16 7 -26 q3 11 17 19.5 q14 8.5 16 26.5 l10 9 q-4 -31 -22 -49 q-15 -58 -23 -92 q-17 -7 -22 -7 q-6 61 -11 123 l-13 2 l-13 -17 q-18 17 -3 38 l21 6 l2 -2 ZM504 390 q19 -12 14.5 -33.5 q-4.5 -21.5 10.5 -34.5 q18 7 38.5 16 q20.5 9 44.5 7 q31 -26 11 -64 q-58 -87 -71 -116 l-11 -2 l-5 -6 l-13 4 q0 -103 4 -108 q29 23 41 58.5 q12 35.5 39 64.5 q-15 -44 -40 -109 q-22 -45 -42 -89 l-6 6 q-10 -8 -23 -12 q-4 6 -6 12 q2 177 0 284 l-21 -17 l-22 -34 l-7 -5 q-9 18 0 45 q7 8 13 18 l43 27 q4 20 -3 43 q-7 23 7 45 l4 0 ZM580 319 q-28 -6 -49 -25 q-8 -43 10 -82 l6 0 q25 39 52 78 q8 12 1 27 l-20 2 ZM120 127 l0 -7 l2 5 l-2 2 ZM565 92 l0 -7 l2 5 l-2 2 ZM915 14 l5 0 l-3 2 l-2 -2 ZM874 -12 l0 -6 l2 4 l-2 2 Z" /><glyph glyph-name="" unicode="&#x524d;" d="M663 758 q32 -29 -1 -54 q-33 -25 -43 -47 q-33 -26 -80 -71 q-25 -8 -45 -23 l-2 4 l96 92 q37 42 59 92 l10 9 l6 -2 ZM390 686 q16 -53 34 -106 q9 -10 19 -19 q13 -3 29 0 l0 -18 q-14 -16 -29.5 -8 q-15.5 8 -25.5 17 q-6 9 -23 31 q-8 27 -16 44 q-18 32 -5 61 l17 -2 ZM849 561 q13 -12 17 -24 q-4 -1 -33 -23 l-4 -7 l-12 -3 q-6 21 -13 33 q-87 -6 -169 -12 l-4 -5 l-19 0 l-2 -4 q-161 -26 -295 -51 q-65 -20 -107 -36 l0 -16 q-18 11 -25 -8 q-7 -19 -26 -3 q-22 18 -14 47 q151 33 373 78 q156 29 315 36 l18 -2 ZM739 451 q6 -8 12 -14 q-1 -104 -3 -163 l3 -2 q4 -73 19 -243 q0 -65 -2 -161 q-7 3 -15 0 l-8 -10 l-8 4 l-6 6 q-81 68 -177 110 l-2 10 q91 -32 181 -77 q4 2 8 4 q0 61 0 124 q-8 144 -12 161 q-4 149 -6 208 l-8 3 q-56 -62 -84 -136 q-12 -25 -53 -146 l-13 -10 q-4 3 -11 20 q5 63 -9 126 l-8 3 q-35 -29 -51.5 -67 q-16.5 -38 -40.5 -69 q8 -32 -8 -63 l-6 0 l-2 -4 l-9 -4 q-26 15 -24 46 q15 28 28 44 q3 27 -2 59 q11 82 11 103 q-6 2 -15 -5 q-5 -6 -16 -24 l-8 -4 q-1 6 -4 12 q4 5 14 37 q16 18 43 14 q4 -10 11 -21 q-18 -65 -11 -132 l9 0 q75 100 81 112 l10 2 q23 -20 21.5 -49 q-1.5 -29 9.5 -53 l10 8 q35 70 86 161 l5 2 q29 45 54 78 l6 0 ZM200 427 l-4 -5 l4 -4 l2 6 l-2 3 ZM298 368 q6 -8 12 -17 q-4 -6 -8 -12 q-5 -124 -12 -252 q10 -60 14 -69 q27 38 39 82 l6 0 q6 -37 -6 -67.5 q-12 -30.5 -26 -56.5 q-13 -12 -25 -2 q-4 18 -17 73 q-1 36 -3 75 q9 153 16 238 l10 8 Z" /><glyph glyph-name="" unicode="&#x5269;" d="M431 681 q16 -11 12 -31 l-19 -13 l-6 6 q-30 -14 -57 -31 l-10 -13 l18 -11 q21 -21 31 -45 q27 -6 54.5 8 q27.5 14 57.5 8 q13 -14 13 -22 l-6 0 l-5 -6 l-69 -55 q-5 -18 -25 -30.5 q-20 -12.5 -12 -30.5 q90 22 172 75 q6 0 14 0 q13 -18 -3.5 -31.5 q-16.5 -13.5 -23.5 -25.5 q-60 -55 -69 -60 q-12 -28 -12 -42 q8 -5 18 -7 q35 5 70 11 q6 -4 12 -6 l6 -12 l-16 -11 l-11 -9 q-40 3 -70 -19.5 q-30 -22.5 -60 -36.5 q-24 -13 -25.5 -35.5 q-1.5 -22.5 5.5 -40.5 q61 18 110 34 l-9 -11 q-14 -2 -23 -12.5 q-9 -10.5 -21 -3.5 l-3 -5 q-24 -12 -49 -20 q-3 -4 -7 -8 q-17 -39 -7.5 -82 q9.5 -43 -9.5 -75 l-8 4 l-8 -12 l-11 8 q2 49 9 140 q-5 3 -7 7 l-3 -4 q-76 -21 -145 -56 l-8 -8 q-23 -12 -37 4 l0 22 q12 11 37 20 q106 76 165 119 q0 27 2 55 q-4 56 -9 87 l-20 -10 q-8 -27 -22 -52 q-14 -25 -9 -51 q-12 -16 -29.5 -16 q-17.5 0 -31.5 4 q-42 22 -89 37 q-18 20 6 37 q83 22 163 65 q17 24 35 49 q6 41 -8 76 l-2 -5 q-21 -6 -40 -10 q-85 -39 -122 -55 q-16 0 -32 0 l-2 16 q6 5 11 11 q60 18 187 61 q8 20 -13 38 l-26 2 l-3 -4 l-7 0 l-2 -3 q-19 0 -25 3 l0 17 q96 81 128 103 l11 0 ZM770 666 q28 -9 63 -16 q11 -15 14 -29 q-26 -19 -23 -49 q3 -139 5 -248 q-2 -18 -7 -30 l5 -2 q0 -64 2 -96 q4 -37 12 -122 q3 -109 0 -131 l-6 4 l-13 -11 l-5 0 l-24 29 q-32 17 -76 46 q-63 13 -115 29 q35 0 131 -13 q31 -13 64 -25 q5 0 14 0 q-9 161 -16 255 q2 51 9 103 q-2 18 -7 71 q1 25 0 159 q7 27 7 33 q-24 6 -38 10 q-18 -8 -19.5 -24.5 q-1.5 -16.5 -9.5 -26.5 l-11 4 q5 19 12 37 q7 18 23 36 l9 7 ZM360 619 l0 -7 l1 5 l-1 2 ZM451 531 l-40 -19 l-11 -14 l4 -2 q-4 -20 0 -29 l7 9 l49 44 l4 9 l-11 0 l-2 2 ZM417 469 l0 -5 l1 3 l-1 2 ZM672 453 q7 0 23 -13 q2 -47 0 -136 l-16 -2 l-3 -8 l-6 4 q-4 21 -9 41 q5 47 9 90 q-2 8 -4 16 q2 4 6 8 ZM516 435 q-4 -2 -18 -13 l0 -7 l9 -4 l24 24 l-15 0 ZM460 411 q-15 -13 -31 -15.5 q-16 -2.5 -25 -15.5 q-2 -25 11 -127 l49 37 q10 18 -13 39 q16 69 16 82 l-7 0 ZM361 371 l0 -7 l3 5 l-3 2 ZM308 351 l-4 -8 q-51 -19 -92 -51 l5 -4 q20 6 39 -12.5 q19 -18.5 42 -1.5 q15 47 21 73 l-11 4 ZM250 331 l0 -7 l1 5 l-1 2 ZM380 192 q-4 2 -54 -27 q-20 -16 -38 -33 l0 -5 q45 10 90 27 l2 38 ZM241 83 l0 -5 l2 4 l-2 1 ZM786 -26 l0 -7 l2 5 l-2 2 Z" /><glyph glyph-name="" unicode="&#x529b;" d="M629 625 q2 -10 4 -20 q-16 -69 -23 -98 q27 -3 60.5 7.5 q33.5 10.5 58.5 -20.5 q29 -65 4 -133 q-34 -89 -78 -207 q-16 -25 -32 -47 q-21 -5 -35 -5 q-14 45 2 90 l10 0 q8 -33 12 -41 l11 4 q22 49 45 98 q4 35 19 67.5 q15 32.5 28 69.5 q10 47 -9 90 q-25 12 -53 7 q-28 -5 -53 -11 q-35 -61 -68.5 -122.5 q-33.5 -61.5 -69.5 -116.5 q-98 -129 -207 -245 l-12 -6 q2 6 4 13 q113 126 209 269 q69 93 103 197 q-47 -16 -95 -16 q-8 -6 -17 -9 l-7 -20 l-9 0 q-16 20 0 38 q59 11 145 36 q24 71 45 135 l8 -4 Z" /><glyph glyph-name="" unicode="&#x529e;" d="M482 565 q30 -22 10 -58 q22 -7 48.5 -1 q26.5 6 49.5 -12 q12 -20 17 -41 q-8 -65 -35 -122 q2 -5 6 -9 q114 17 202 29 q4 -2 8 -4 l2 4 q27 -2 58.5 0 q31.5 2 55.5 -16 l-6 -27 q-10 -4 -45 -8 q-13 -8 -60 -28 q-17 0 -33 0 l0 12 q18 -3 30 13 q12 16 31 22 l0 5 q-73 5 -142 -7 q-67 -11 -123 -29 q-17 -37 -47 -109 q-21 -30 -39.5 -61 q-18.5 -31 -42.5 -55 q-16 -14 -33 -3 q-6 5 -14 44 q10 104 18 137 q0 18 -4 27 q-21 -3 -39 -5 q-38 -26 -108 -64 q-21 -3 -41 -5 q-55 12 -104 18 q-8 14 4.5 26 q12.5 12 22.5 23 q36 9 65 17 q96 8 137 12 q20 0 37 20 q22 33 56 90 q16 47 25 64 q-2 1 -4 3 q-41 -14 -132 -50 q-25 -15 -48 -29 q-6 0 -12 0 q-6 23 17 36 q132 50 188 72 q11 37 14 60 q4 3 8 9 l2 0 ZM559 484 q-59 0 -71 -4 q-8 -11 -8 -18 l-6 -4 q-25 -62 -34 -85 q-23 -34 -46 -71 q71 -5 143 15 q8 36 31.5 74 q23.5 38 5.5 81 l-15 12 ZM514 288 q-50 -8 -108 -23 q-2 -63 0 -138 q7 -13 12 -25 l13 5 q6 12 33 44 q28 49 47 100 l3 2 l11 35 l-11 0 ZM298 259 q-37 0 -48 -4 l-3 4 q-39 -8 -84 -22 l-2 -7 q38 -18 82 -9 q16 7 54 30 l1 8 Z" /><glyph glyph-name="" unicode="&#x529f;" d="M695 580 q15 -24 -7 -42 q-22 -18 -12 -40 q21 6 52.5 16.5 q31.5 10.5 51.5 -16.5 q24 -31 29.5 -72.5 q5.5 -41.5 -0.5 -78.5 q-23 -63 -31 -84 q-18 -33 -72 -131 q-11 9 -25 -1 q-15 14 -28.5 37.5 q-13.5 23.5 4.5 46.5 l13 -5 l20 -40 l14 8 q21 43 44.5 89 q23.5 46 37.5 97 q16 63 -22 112 q-25 24 -55 12 q-30 -12 -52 -21 q-32 -56 -42 -118 q-13 -25 -43 -92 q-39 -67 -86 -126 l-12 -6 l-7 -17 l-7 -1 q-15 -20 -54 -58 l-16 -10 l-2 -6 l-6 3 q85 91 154 199 q22 51 46.5 104.5 q24.5 53.5 29.5 113.5 q-42 -18 -79 -31 q-13 13 0 25 q82 27 96 35 q12 22 19 50.5 q7 28.5 31 50.5 l16 -3 ZM343 525 q8 0 25 -9 q12 -14 1 -32 q-32 -66 -56 -131 q-38 -59 -63 -116 q206 82 238 98 l4 -4 l-23 -14 l-4 -9 q-87 -49 -181 -82 q-45 -34 -67 -48 q-11 0 -21 0 q-10 1 -8 9.5 q2 8.5 2 16.5 l14 13 q55 80 100 169 q22 54 37 108 q-22 6 -41.5 -4 q-19.5 -10 -38.5 -8 l-6 -6 q-16 0 -29.5 -9 q-13.5 -9 -25.5 0 q-1 17 2 25 q51 12 141 33 ZM748 221 l0 -6 l2 4 l-2 2 Z" /><glyph glyph-name="" unicode="&#x52a0;" d="M429 539 q4 0 14 -8 q13 -35 -11 -60.5 q-24 -25.5 -26 -53.5 q12 -64 5 -125 q-38 -129 -62 -209 q-6 0 -20 -7 q-5 4 -7 9 q7 35 17 72 l8 6 q13 27 39 125 q10 43 2 85 q-15 -13 -88 -122 l-6 -1 q-13 -27 -35 -47 q-22 -20 -29 -44 l-36 -32 l-24 -29 q-15 -20 -38 -15 q-12 19 5.5 27.5 q17.5 8.5 23.5 24.5 l27 22 q75 78 136 167 q45 52 44 103 q-31 -3 -46 -5 l-1 -4 l-33 -20 l-13 -18 q-14 -12 -24 -2 q-8 16 5.5 28 q13.5 12 24.5 25 q32 9 74 22 q27 -4 39 -6 q17 27 17 60 q6 7 18 32 ZM561 388 q4 -10 11 -19 q10 -72 16 -108 q14 -51 45 -91 q2 9 17 30 q42 25 91 43 q45 43 90 86 l0 8 q-78 -11 -143 -51 l-20 -25 l-9 4 q0 37 4 41 q72 25 146 52 q26 8 53 -3 q16 -26 -13 -40 l-43 -40 l-26 -28 l10 -4 q7 -13 -4 -17 l-16 0 l-2 -3 q-42 -13 -76 -33 q-26 -7 -19.5 -24 q6.5 -17 -2.5 -29 q-23 -18 -41 2 q-47 40 -59 104 q-18 92 -25 143 l9 7 l7 -5 Z" /><glyph glyph-name="" unicode="&#x52a1;" d="M502 699 q2 -7 7 -13 q-9 -27 -13 -47 l-16 0 q-35 -40 -53 -59 q-23 -26 -34 -53 q24 -2 42 -2 q5 2 8 6 q51 8 96 18 q19 0 37 0 q10 -30 -16.5 -48.5 q-26.5 -18.5 -39.5 -36.5 q-34 -29 -80 -62 l-7 -8 q69 -12 169 -28 q95 -23 180 -69 q40 -11 67 -17 q29 -17 49 -27 q11 -8 6 -23 l-16 -2 l0 -5 q-26 -4 -47 12 q-20 0 -41 0 q-5 6 -12 15 q9 9 -4 18 q-31 13 -116 53 q-43 10 -96 22 q-14 6 -29 12 q-53 6 -121 14 q-28 -3 -42 -3 l-2 -5 q-45 -28 -92 -57 q-29 -14 -58 -10 l-2 -4 q-36 -4 -67 14 q-18 17 -42.5 41 q-24.5 24 -9.5 55 q22 13 52.5 12 q30.5 -1 59.5 5 q55 -11 169 -23 q47 24 92 59 l2 7 l22 16 q5 12 24 21.5 q19 9.5 15 29.5 q-71 -13 -177 -25 q-6 2 -13 7 q-2 7 -4 16 q31 38 71 75 q40 37 56 92 l10 9 l16 -2 ZM543 500 l0 -6 l2 4 l-2 2 ZM504 462 l0 -6 l3 4 l-3 2 ZM199 394 l-5 -4 q-18 6 -30.5 -5.5 q-12.5 -11.5 -24.5 -8.5 q-10 -16 2 -33 l16 -12 l19 -18 q47 -23 89.5 0.5 q42.5 23.5 81.5 52.5 l0 5 q-50 9 -147 22 l-1 1 ZM200 304 l0 -6 l2 4 l-2 2 ZM582 292 q14 2 25 -12 q3 -25 -17 -37 q22 -65 6 -133 q-22 -61 -71 -102 l-21 -16 q-51 -51 -69 -72 l-4 5 q-13 -10 -20 2 q-7 40 32 67 l17 5 l2 -11 q20 -12 32.5 21.5 q12.5 33.5 34.5 33.5 q34 39 49 89 q8 49 -15 89 l-5 -6 l-9 0 q-12 -15 -26 -29 q-110 -88 -159 -123 l-11 -10 q-51 -37 -69 -47 q-67 -63 -94 -81 q-9 6 4 18 q23 24 45 49 q125 90 245 191 q-2 19 27.5 30.5 q29.5 11.5 15.5 33.5 q-69 -2 -129 -32 q-4 2 -8 6 q-10 20 6 36 q8 -2 17 -4 q69 15 141 10 q5 2 11 7 l17 22 ZM243 -12 l0 -6 l2 4 l-2 2 Z" /><glyph glyph-name="" unicode="&#x52a8;" d="M290 623 q2 0 25 -15 q24 -36 65 -89 q10 -21 4 -37 l-8 -4 q-15 29 -33 53 l-10 8 l-41 47 l-20 2 l0 29 l18 6 ZM725 617 q8 -12 12 -25 q-12 -20 -45 -72 q0 -8 0 -13 q61 -13 106 -60 q58 -87 -15 -166 q-73 -79 -107 -149 l-10 5 l-7 -6 l-12 0 q-2 28 -5 61 q-3 33 26 58 q11 -40 18 -58 q64 69 104 155 q21 46 -10 84 q-22 12 -47 32.5 q-25 20.5 -52 12.5 l-38 -70 l-4 -2 q-6 -14 -153 -218 q-93 -106 -153 -180 q-12 2 -19.5 -6 q-7.5 -8 -13.5 8 q6 16 3 36.5 q-3 20.5 21 33.5 l23 14 l6 6 l13 0 l3 -4 q71 65 127 145 q104 149 125 179 q6 17 12 35 q-18 -2 -34 -17.5 q-16 -15.5 -34 -6.5 l0 27 q25 11 85 38 q13 31 36 84 q15 18 31 39 l8 0 ZM364 388 q12 -17 0 -30 q-49 -56 -78 -113 q57 10 134 25 q20 0 40 0 q20 -15 4 -29 q-15 -13 -29.5 -26 q-14.5 -13 -32.5 0 l20 18 l7 8 q-16 0 -33 0 q-112 -26 -173 -39 q-4 2 -8 4 l0 15 l44 42 q72 95 74 103 q-12 10 -27 7 q-80 -49 -163 -52 l4 24 q12 8 25 19 q7 -15 24 -11 q76 29 125 51 l43 -16 Z" /><glyph glyph-name="" unicode="&#x52b3;" d="M672 723 q7 -8 14 -15 q-2 -13 -5 -29 q5 -50 34 -87 q-11 0 -16 -4 l-2 -8 q-5 2 -9 3 q-33 -9 -63 -20 l-13 -11 l-18 -16 q-38 -54 -114 -150 q43 70 94 153 l-22 2 l-3 -4 l-16 -1 l-4 -5 q-135 -35 -188 -47 q-2 -6 -4 -10 q6 -16 22.5 -28.5 q16.5 -12.5 13.5 -30.5 q-15 -11 -26 -11 l-4 -4 q-59 15 -100 29 q-22 0 -28 -5 q-9 5 -16 11 q1 21 22 37 q30 10 60 22 q-6 13 -6 25 l-5 4 q-2 16 -16.5 30 q-14.5 14 -3.5 35 l7 4 q15 -29 49 -92 q107 11 213 41 q46 8 83 39 q43 94 66 143 l4 0 ZM659 639 l-5 -4 q1 -14 -17 -28.5 q-18 -14.5 -4 -26.5 l17 3 l4 5 q5 0 20 8 q5 23 -13 41 l-2 2 ZM292 484 q-14 -12 -33 -6 l-9 -11 l-7 -2 q-10 -16 -17 -28 q78 -19 109 -22 q25 12 0 25 q-25 13 -27 32 l-14 10 l-2 2 ZM717 393 q41 -11 71 -20 l14 -13 q-18 -15 -36 -31 q-18 -16 -40 -16 l-5 -9 q-6 0 -13 0 q-38 -24 -73 -41 l0 5 q44 29 116 77 l0 10 q-30 9 -43 14 q-65 -9 -101 -11 q-8 -7 -60 -17 q-8 2 -16 4 q-4 -4 -8 -6 q-35 -2 -92 -4 l-7 -6 l-44 0 l-2 -5 l-17 -7 l0 7 q33 11 56 19 q73 4 148.5 17 q75.5 13 151.5 33 ZM233 331 q6 -68 0 -148 q6 -26 14 -52 l-4 -2 q-41 38 -31.5 93.5 q9.5 55.5 9.5 103.5 l5 5 l7 0 ZM347 297 l-8 -9 l-13 0 q-4 10 11 18 q10 -12 20.5 -1.5 q10.5 10.5 22.5 10.5 l-33 -18 ZM527 274 q4 0 16 -11 l0 -28 l-4 -2 l0 -16 q49 11 90 -18 q37 -52 6 -112 q-12 -18 -47 -91 q-14 -20 -47 -69 l-12 -10 l-13 -21 l-14 -2 l-4 4 l-10 -4 q-37 33 -24 80 l10 4 q14 -20 14 -45 l16 -11 q37 27 52.5 70 q15.5 43 45.5 80 q8 24 19.5 53 q11.5 29 -6.5 54 q-29 17 -54 27 l-5 -6 l-29 -8 q-2 -16 -16.5 -25.5 q-14.5 -9.5 -10.5 -23.5 l-6 -4 q-14 -27 -27 -54 q-14 -13 -27 -25 q-7 -17 -47 -72 q-46 -47 -89 -92 l-4 0 q41 49 129 165 q43 51 53 117 q-6 0 -10 1 q-50 -18 -90 -30 l-21 -20 l-10 0 q-8 12 9 20 q42 14 136 51 q18 47 31 74 Z" /><glyph glyph-name="" unicode="&#x52fa;" d="M417 643 q7 -43 -15 -80 q-41 -56 -61 -118 q43 19 90 34 q47 15 96 28 q65 38 83 45 q40 -3 64 -33 q10 -23 21 -45 q4 -25 11 -52 q2 -44 4 -87 q-15 -100 -44 -253 q-11 -62 -47 -106 q-17 -6 -37 -9 q-39 32 -78 61.5 q-39 29.5 -80 54.5 l-2 11 q29 -9 145 -59 l23 -27 l9 0 q11 21 24 43 q18 74 56 253 q0 49 0 98 q-11 60 -44 112 q-10 2 -28 6 q-40 -20 -78 -26 l-2 -4 q-45 -2 -92 -16 q-41 -18 -69 -34 l-11 -11 q-16 -9 -27 -27 q-11 -18 -30 -8 q-8 26 12 55 q19 33 39 65 q31 68 39 98 q12 21 20 35 l9 -4 ZM384 384 q2 0 16 -8 q29 -55 80 -148 q0 -11 2 -22 l-13 4 q-22 31 -76 116 q-25 29 -9 58 Z" /><glyph glyph-name="" unicode="&#x5305;" d="M394 641 q6 -6 12 -12 q-6 -19 -13 -73 l-7 -2 q-20 -27 -31 -58 q0 -8 0 -14 q47 10 161 41 q38 0 49 -4 q52 -54 70 -125 q0 -43 0 -84 q-39 -161 -52 -208 q-16 -19 -31 -6 q-32 20 -21 55 q10 3 15.5 -6.5 q5.5 -9.5 16.5 -9.5 q7 19 47 182 q0 34 0 69 q-11 59 -54 106 q-9 6 -29 8 q-82 -22 -141 -38 l-2 -4 q-37 -18 -80 -36 q-10 11 -12 23 q63 88 92 196 l10 0 ZM371 321 q42 -8 64 -19 q12 -18 10 -39 q-21 -28 -25 -40 l-3 -2 l-24 -33 q-27 -18 -53.5 -39.5 q-26.5 -21.5 -59.5 -9.5 q-12 -31 -35 -52 q-8 -29 -12 -54 q55 -37 121 -29 q66 8 130 2 q179 18 277 29 q5 59 19 195 l6 0 q4 -63 12 -195 q4 -13 11 -23 q-5 -6 -9 -12 q-24 -10 -47 6 q-56 0 -110.5 -13 q-54.5 -13 -109.5 -13 q-106 0 -175 -4 q-66 0 -128 16 q-15 14 -31 28 q-5 9 -7 19 q10 21 53 122 q12 67 23 129 q13 7 24 -10 q14 -50 -8 -94 q4 -12 8 -23 q34 0 63 27 l39 47 l-16 13 q0 13 -16.5 36.5 q-16.5 23.5 7.5 35.5 l2 -1 ZM398 281 q-2 -7 4 -28 l9 6 q4 13 0 21 l-13 1 Z" /><glyph glyph-name="" unicode="&#x5316;" d="M449 586 q11 -10 29 -47 q2 -28 6 -49 q-37 -96 -20 -198 l8 0 q20 21 40 43 q-3 16 0 26 q8 -3 17 -8 q38 33 59 47 l12 17 l8 3 q21 20 7 47 q-19 13 -28 -11.5 q-9 -24.5 -28 -12.5 l-1 13 l22 16 l14 24 q21 15 39 -8 q10 -24 12 -48 q-22 -47 -33 -62 l-92 -74 q-26 -26 -53 -53 q-3 -63 5 -124 q6 -2 12 -5 q47 13 94 23 q85 6 175 27 q68 0 111 -2 q20 -15 12 -33 q-47 -15 -123 -37 q-5 2 -10 4 l0 8 l54 33 q-37 0 -72 0 q-80 -16 -227 -45 q-33 -2 -45 2 q-2 8 -10 33 q4 51 -6 95 q-68 -52 -79 -56 l-11 -11 q-30 -18 -63 -34 q-10 -10 -21 -19 q2 -6 5 -12 q-5 -33 -15 -59 l-6 6 l-6 -12 q-4 -2 -16 6 q-10 43 -15 75 l13 8 l7 -10 l5 0 q0 43 -5 53 q11 76 11 154 q-4 14 -6 30 l-18 -12 l-25 -29 l-9 -6 q-29 -34 -38 -79 q-13 -6 -25 -6 q-6 20 -3.5 44.5 q2.5 24.5 22.5 42.5 l6 2 q31 49 47 107 q2 20 7 40 q-13 14 -7 37 q8 6 12 -4 q4 -10 15 -10 q9 -31 -5 -55.5 q-14 -24.5 -8 -51.5 q9 4 22 11.5 q13 7.5 25 -7.5 q6 -9 12 -20 q-4 -110 0 -218 q50 22 96 64 q39 31 79 64 q-3 47 -5 95 q10 82 21 169 q-11 25 -21 51 l10 8 l4 0 Z" /><glyph glyph-name="" unicode="&#x5317;" d="M543 621 q4 0 18 -11 q4 -28 9 -58 q-3 -3 -5 -5 l-7 12 q-11 -18 -19 -34 q-19 -65 -43 -156 q-4 -24 -16 -106 q2 -69 4 -100 q10 -31 16 -43 q74 -24 157 -13 q80 13 145 30 q27 0 56 0 q22 -12 44 -21 q9 -26 -14 -40 q-39 6 -73 9 q-47 -25 -94 -9 l10 9 l-5 5 q-24 -5 -97 -12 q-71 -4 -139 12 q-43 45 -40 107 q3 62 10 120 q28 114 49 203 q20 62 34 101 ZM263 467 q5 0 17 -7 q0 -17 -2 -56 q-17 -31 -13 -67 q13 -111 25 -167 l14 -3 q-4 -8 -4 -22 l13 -8 q9 -29 11 -45 q-14 -12 -24 -14 q-8 7 -22 49 q-21 14 -37 -15 q-16 -29 -35 -25 q-43 -56 -71 -93 l-10 5 l-6 19 l8 6 q2 15 12 39 q55 49 122 88 q2 4 4 8 q-18 35 -18 75 q0 40 -8 79 q2 48 4 100 q12 38 20 54 ZM679 443 q5 -10 11 -19 q-65 -69 -85 -156 q-17 -15 -27 0 q-13 22 -19.5 48.5 q-6.5 26.5 6.5 52.5 l7 0 q-2 -26 14 -47 l6 4 q45 74 78 117 l9 0 ZM110 228 q39 -3 73 -24 q0 -12 14.5 -22 q14.5 -10 -1.5 -19 l-13 4 l-2 7 q-11 4 -23.5 13 q-12.5 9 -22.5 1 l-6 -9 q-13 -12 -25 -1 q-17 21 -4 43 l10 7 Z" /><glyph glyph-name="" unicode="&#x533f;" d="M668 659 q42 -4 93 -7 q9 -19 -10 -31 q-25 -13 -41 10 q-58 0 -79 -4 l6 -27 l15 -10 q22 -27 24 -36 q-19 -23 -42.5 -28.5 q-23.5 -5.5 -41.5 -14.5 q-40 -51 -34 -117 q30 6 103 23 q7 -4 13 -6 l5 -13 l-7 -4 q-6 -12 -18 -25 q-39 7 -76 4 q-19 -12 -37 -22 q-49 -70 -94 -128 q11 -40 37 -68 q30 -18 43 -23 q6 -5 12 -19.5 q6 -14.5 0 -20.5 l-6 0 l-2 -5 l-6 -2 q-5 5 -13 19 l-43 27 q-32 28 -45 69 q-7 -6 -13 -8 l-13 -16 l-8 0 q-12 -17 -41 -49 l-36 -25 q34 41 105 126 q-20 33 0 66 l15 8 q7 -12 2.5 -24.5 q-4.5 -12.5 4.5 -22.5 l5 0 q6 23 30.5 41.5 q24.5 18.5 18.5 48.5 l-20 0 l-2 -4 q-106 -26 -194 -44 l-13 13 q-22 -55 -14 -111 q8 -70 24 -166 q23 0 74 0 q12 3 27 7 q42 -1 126 -4 q43 13 87 8.5 q44 -4.5 90 6.5 q64 -2 130 0 q8 -4 15 -8 q14 -12 0 -25 l-11 -2 l-2 -5 q-66 -11 -90 -19 q-15 4 -47 4 l0 6 l21 10 l-5 4 q-80 0 -107 0 l-3 4 q-47 -9 -104 -18 q-65 6 -88 4 q-41 -14 -82 -14 q-8 -6 -16 -10 l-16 -18 q-19 -8 -33 6 q0 29 4 79 q-22 96 -20 196 q16 90 16 184 q-18 35 -11 73 l25 0 q17 -12 19 -30 q-4 -7 -6 -12 q0 -70 -3 -138 q10 9 29 19 q114 -2 220 41 q6 22 15 47 q-20 24 -10 59 q-19 -6 -52 -23 q-7 -22 8 -40.5 q15 -18.5 9 -38.5 q-17 -8 -35 -10 q-32 17 -53 32 q-6 12 -17 25.5 q-11 13.5 -3 31.5 q14 23 42 21 q-12 41 -24 88 q2 8 6 18 q-40 7 -78 -10 q-38 -17 -75 -6 l-4 -4 l-69 0 q-13 6 -7 20 q5 4 11 8 q48 0 97 0 q131 21 272 37 q60 10 121 22 ZM572 621 q-76 -13 -155 -25 q3 -6 7 -10 q0 -49 25 -90 q62 4 116 33 q-9 23 14 46.5 q23 23.5 9 47.5 l-14 -4 l-2 2 ZM625 576 l-6 2 l-19 -35 q21 -4 37 15 l-12 16 l0 2 ZM552 500 l-21 -10 l12 -10 l11 18 l-2 2 ZM437 456 q-4 2 -17 -3 q-22 -16 -1 -27 q21 -11 26 -22 l8 4 l-16 48 ZM652 259 q11 -12 14 -20 q-35 -61 -72 -110 l-24 -9 q-5 9 -9 17 q29 49 51 86 q-10 0 -63 -27 q-13 -15 -24 -33 l-13 4 q-12 12 -4 24.5 q8 12.5 15 27.5 q67 22 120 42 l9 -2 Z" /></font>
</defs>
</svg>
