<?xml version="1.0" standalone="no"?>
<!DOCTYPE svg PUBLIC "-//W3C//DTD SVG 20010904//EN"
 "http://www.w3.org/TR/2001/REC-SVG-20010904/DTD/svg10.dtd">
<svg version="1.0" xmlns="http://www.w3.org/2000/svg"
 width="451.000000pt" height="451.000000pt" viewBox="0 0 451.000000 451.000000"
 preserveAspectRatio="xMidYMid meet">
<metadata>
Created by potrace 1.14, written by Peter Selinger 2001-2017
</metadata>
<g transform="translate(0.000000,451.000000) scale(0.100000,-0.100000)"
fill="#000000" stroke="none">
<path d="M819 4300 c-116 -30 -211 -125 -250 -252 -24 -81 -24 -112 4 -200 19
-62 31 -82 82 -134 58 -59 116 -94 157 -94 10 0 51 27 89 59 71 60 213 161
225 161 4 0 15 7 24 15 9 8 36 25 61 38 l44 24 -1 69 c-2 84 -26 141 -88 210
-63 70 -137 105 -234 110 -42 2 -93 -1 -113 -6z m28 -147 c57 -38 47 -135 -18
-165 -69 -33 -134 10 -134 87 0 87 77 126 152 78z"/>
<path d="M3530 4300 c-133 -34 -245 -164 -257 -299 -7 -77 1 -105 33 -120 62
-28 233 -151 336 -242 l41 -36 59 21 c79 28 155 96 193 172 27 54 30 68 30
159 -1 118 -17 162 -87 240 -65 71 -139 106 -236 111 -42 2 -93 -1 -112 -6z
m280 -156 c36 -35 35 -103 -1 -140 -75 -74 -196 12 -155 110 27 65 104 80 156
30z"/>
<path d="M1787 3863 c-4 -3 -7 -17 -7 -30 0 -20 23 -34 188 -114 103 -49 204
-99 224 -109 64 -34 100 -27 256 50 78 39 144 70 148 70 17 0 154 76 159 88
10 26 -5 52 -30 52 -21 0 -83 -27 -95 -41 -3 -3 -25 -16 -50 -27 -25 -12 -67
-35 -95 -52 -123 -73 -163 -90 -217 -90 -57 1 -65 4 -374 176 -59 33 -93 41
-107 27z"/>
<path d="M1910 3299 c-442 -61 -750 -206 -973 -456 -61 -69 -117 -146 -117
-162 0 -6 -4 -11 -9 -11 -10 0 -91 -156 -91 -176 0 -8 -6 -25 -14 -37 -46 -71
-111 -369 -128 -582 -17 -221 -5 -416 32 -555 31 -116 101 -275 166 -375 44
-69 167 -216 231 -275 64 -61 160 -140 168 -140 3 0 -15 28 -42 62 -39 51
-102 164 -102 183 0 3 -7 28 -16 57 -8 28 -13 53 -12 55 2 2 26 -8 53 -22 56
-29 153 -60 161 -51 3 3 -6 23 -19 44 -67 100 -109 210 -153 392 -22 94 -66
352 -61 357 1 1 29 -25 62 -58 32 -34 54 -63 48 -66 -6 -2 -20 -10 -30 -17
-17 -13 -17 -15 16 -35 24 -14 51 -48 85 -106 27 -47 54 -85 58 -85 5 0 6 28
3 63 -19 180 -23 155 34 223 59 72 111 109 175 125 57 14 66 7 23 -19 -89 -56
-127 -130 -128 -250 l0 -84 28 6 c34 8 102 -15 116 -38 18 -28 -25 -56 -85
-56 -27 0 -49 -5 -49 -10 0 -28 44 -91 82 -119 45 -33 37 -41 -14 -15 -20 10
-34 12 -40 6 -15 -15 -2 -30 55 -59 44 -23 65 -27 142 -27 80 -1 97 2 149 28
53 26 58 31 53 56 -5 21 0 33 18 50 43 41 57 106 53 250 -2 83 0 126 7 122 6
-3 22 -14 38 -24 36 -26 37 -2 1 41 -20 24 -22 31 -10 31 31 0 15 19 -41 51
-32 18 -71 43 -87 56 -51 42 -104 63 -206 80 -99 17 -131 15 -204 -13 -18 -7
-18 -2 -14 107 3 63 9 122 13 132 10 24 54 22 158 -8 128 -37 147 -50 184
-125 32 -65 32 -65 10 -68 -39 -6 -39 -18 2 -31 27 -8 52 -26 77 -56 34 -42
64 -58 64 -34 0 6 9 8 20 4 11 -3 20 -3 20 0 0 15 -25 52 -51 77 -28 26 -29
30 -28 120 0 51 4 111 8 133 l8 40 13 -33 c42 -113 120 -232 194 -300 51 -46
56 -54 56 -94 0 -24 -7 -78 -15 -121 -18 -95 -18 -87 1 -87 50 0 231 118 338
220 47 44 81 70 83 63 3 -7 11 -13 19 -13 17 0 128 95 213 183 40 41 82 73
113 87 28 12 51 20 53 18 2 -2 -15 -46 -37 -98 -62 -149 -62 -150 13 -101 53
34 133 117 180 186 19 28 39 54 44 58 6 5 65 6 133 3 95 -4 123 -3 120 7 -7
19 -114 66 -168 75 l-48 7 24 60 c12 33 32 92 43 130 22 75 61 340 61 417 0
26 4 49 10 53 5 3 27 -32 49 -77 l39 -83 -49 -3 -50 -3 96 -101 c53 -55 100
-109 106 -120 9 -17 7 -18 -15 -12 -37 9 -33 -8 17 -69 42 -51 61 -87 105
-187 33 -77 33 -80 12 -80 -24 0 -25 -15 -4 -66 49 -117 80 -410 54 -519 -5
-22 -5 -44 -1 -48 20 -20 108 46 169 126 l21 28 13 -23 c8 -15 12 -63 12 -143
0 -107 -3 -128 -28 -195 -16 -41 -35 -82 -42 -90 -8 -8 -25 -29 -38 -46 -32
-39 -131 -92 -189 -100 -25 -4 -49 -9 -54 -13 -5 -3 -29 -55 -53 -116 -44
-114 -76 -176 -118 -233 -13 -18 -22 -36 -19 -38 9 -9 40 12 134 88 277 226
481 561 521 858 8 60 8 322 -1 385 -30 232 -71 382 -154 563 -18 41 -33 75
-33 77 0 2 -23 41 -51 87 -159 258 -363 446 -610 562 -175 82 -233 102 -414
142 -112 25 -139 27 -410 30 -159 1 -319 -2 -355 -7z m-341 -1218 c12 -35 20
-65 18 -68 -3 -2 -27 5 -55 16 -28 11 -78 21 -112 23 l-61 3 6 35 c8 43 54
178 71 205 6 11 15 31 19 45 19 66 29 55 61 -71 17 -68 41 -153 53 -188z
m-745 138 c-9 -16 24 -23 113 -25 79 -1 95 1 109 17 21 24 36 24 64 1 21 -17
22 -20 7 -49 -13 -25 -14 -36 -4 -62 6 -17 15 -31 19 -31 4 0 8 -35 8 -78 0
-72 -3 -83 -30 -120 -40 -55 -65 -70 -136 -80 -131 -18 -214 42 -245 177 -6
26 -2 50 17 100 21 55 23 69 13 88 -18 34 5 74 42 71 15 -1 26 -5 23 -9z
m2090 -126 c-9 -49 -21 -73 -38 -73 -9 0 -5 16 13 54 14 30 27 55 29 55 2 1 0
-16 -4 -36z m-1728 -170 c-11 -11 -17 4 -9 23 7 18 8 18 11 1 2 -10 1 -21 -2
-24z m19 -84 c4 -5 15 -48 24 -95 17 -84 17 -85 -3 -82 -16 2 -21 -3 -21 -22
0 -14 -8 -36 -17 -50 -18 -24 -18 -20 -18 118 0 117 3 142 14 142 8 0 18 -5
21 -11z m537 -286 c22 -20 23 -41 1 -65 -32 -36 -83 -17 -83 32 0 48 45 67 82
33z"/>
<path d="M3069 1576 c-35 -19 -161 -88 -279 -154 -327 -182 -327 -179 63 -310
151 -50 287 -92 301 -92 48 0 75 60 41 93 -8 9 -45 25 -82 37 -38 12 -77 25
-88 30 -11 5 -73 26 -137 47 -65 20 -118 40 -118 43 0 3 34 23 75 45 41 22 75
43 75 48 0 4 5 7 11 7 13 0 228 118 252 138 23 20 22 57 -3 82 -27 27 -36 26
-111 -14z"/>
<path d="M2537 607 c-20 -30 -94 -55 -207 -68 -133 -15 -286 7 -348 51 -23 16
-54 30 -68 30 -41 0 -29 -47 21 -81 67 -46 129 -61 271 -66 200 -8 313 18 381
89 21 22 25 32 17 45 -16 25 -50 26 -67 0z"/>
</g>
</svg>
