<?xml version="1.0" standalone="no"?>
<!DOCTYPE svg PUBLIC "-//W3C//DTD SVG 20010904//EN"
 "http://www.w3.org/TR/2001/REC-SVG-20010904/DTD/svg10.dtd">
<svg version="1.0" xmlns="http://www.w3.org/2000/svg"
 width="564.000000pt" height="564.000000pt" viewBox="0 0 564.000000 564.000000"
 preserveAspectRatio="xMidYMid meet">
<metadata>
Created by potrace 1.14, written by Peter Selinger 2001-2017
</metadata>
<g transform="translate(0.000000,564.000000) scale(0.100000,-0.100000)"
fill="#000000" stroke="none">
<path d="M1037 5380 c-93 -24 -200 -99 -252 -176 -40 -61 -70 -146 -80 -225
-8 -67 20 -185 61 -255 34 -57 137 -152 192 -175 69 -30 87 -25 162 40 98 84
225 175 354 252 l111 66 -1 79 c-1 65 -6 90 -31 144 -43 94 -118 172 -209 216
-67 34 -83 37 -172 40 -53 2 -114 -1 -135 -6z m8 -170 c69 -31 91 -92 61 -164
-19 -47 -88 -79 -137 -66 -63 18 -105 83 -93 145 7 38 58 91 94 98 14 2 26 5
28 6 2 0 23 -8 47 -19z"/>
<path d="M4405 5373 c-161 -58 -270 -180 -300 -335 -16 -84 -11 -140 14 -161
9 -7 45 -31 81 -52 105 -63 229 -155 366 -271 l50 -43 49 14 c280 85 403 419
245 665 -42 66 -103 118 -185 160 -59 30 -76 34 -168 37 -80 3 -113 0 -152
-14z m355 -172 c39 -28 52 -60 46 -115 -6 -59 -31 -88 -86 -105 -34 -10 -46
-9 -75 5 -49 23 -75 63 -75 114 0 102 108 159 190 101z"/>
<path d="M2246 4834 c-21 -20 -20 -47 2 -67 10 -9 78 -45 152 -80 74 -36 194
-93 265 -127 181 -87 187 -87 353 -6 73 36 135 66 137 66 19 0 284 137 297
153 14 19 15 24 2 49 -24 47 -26 47 -349 -138 -160 -91 -191 -104 -260 -103
-66 0 -63 -2 -386 177 -91 51 -173 92 -181 92 -9 0 -24 -7 -32 -16z"/>
<path d="M2465 4135 c-247 -24 -465 -74 -685 -158 -129 -50 -295 -146 -409
-237 -288 -231 -473 -539 -570 -951 -47 -201 -81 -504 -81 -730 0 -459 206
-900 582 -1242 161 -147 227 -183 133 -72 -30 36 -67 91 -83 122 -38 76 -88
230 -78 240 4 4 25 -2 46 -15 81 -46 220 -86 220 -62 0 6 -14 31 -30 55 -105
152 -200 461 -250 811 -18 122 -15 124 64 44 l69 -69 -31 -18 c-41 -23 -40
-38 3 -61 27 -13 51 -43 98 -122 34 -57 68 -105 76 -108 13 -4 11 63 -9 213
-9 69 -11 64 85 171 74 83 137 121 213 130 l47 5 -24 -18 c-70 -54 -124 -111
-146 -158 -23 -47 -25 -61 -23 -159 l3 -107 61 -3 c103 -4 145 -50 88 -95 -20
-16 -41 -21 -85 -21 -46 0 -59 -3 -59 -15 0 -32 41 -95 92 -139 57 -49 51 -60
-12 -24 -32 19 -42 20 -52 10 -41 -41 133 -121 263 -122 57 0 164 32 210 63
37 25 49 55 28 68 -11 6 -7 16 17 41 42 44 60 81 74 156 13 62 9 253 -5 300
-10 29 6 28 43 -3 57 -47 73 -19 22 38 -28 33 -29 35 -10 40 32 8 24 20 -43
56 -34 19 -80 49 -102 66 -72 57 -130 85 -225 105 -113 24 -193 25 -267 4 -30
-9 -57 -13 -60 -10 -7 6 15 295 23 308 7 11 60 10 108 -3 111 -29 185 -54 229
-76 43 -21 52 -32 86 -103 l38 -79 -30 -3 c-56 -6 -38 -30 40 -52 11 -4 40
-31 63 -61 40 -52 80 -73 80 -41 0 9 8 12 25 8 14 -2 25 -1 25 3 0 22 -34 74
-57 86 -14 7 -29 24 -34 37 -17 44 -7 322 11 322 4 0 15 -21 25 -47 55 -147
190 -341 278 -398 23 -15 27 -24 27 -64 0 -40 -15 -139 -36 -238 -6 -30 -5
-33 19 -33 64 0 290 146 426 275 55 52 96 85 98 78 3 -7 13 -13 22 -13 27 0
153 103 261 213 71 73 107 102 147 118 30 12 57 19 60 15 4 -4 -3 -27 -15 -51
-12 -25 -22 -51 -22 -57 0 -6 -14 -42 -32 -80 -42 -92 -30 -105 49 -52 76 51
178 157 228 238 49 80 55 81 241 72 118 -6 134 -5 134 8 0 21 -105 70 -195 93
-39 10 -71 18 -73 19 -1 0 7 23 17 50 50 127 96 309 106 419 8 91 15 125 25
125 17 0 210 -201 247 -257 15 -23 15 -23 -16 -17 -24 5 -31 3 -31 -9 0 -9 5
-19 10 -22 14 -9 81 -101 112 -155 23 -40 98 -212 98 -225 0 -3 -9 -5 -19 -5
-26 0 -31 -18 -15 -60 63 -169 88 -341 82 -562 -3 -98 -3 -180 0 -182 3 -3 30
8 61 25 38 20 75 53 114 100 l57 70 16 -38 c26 -61 30 -200 9 -301 -49 -234
-171 -364 -377 -402 -57 -10 -68 -15 -76 -38 -20 -53 -64 -168 -75 -197 -25
-63 -91 -182 -124 -225 -68 -89 8 -50 177 91 117 97 156 136 254 256 161 197
255 375 336 636 91 296 49 811 -97 1202 -58 154 -89 218 -172 355 -156 257
-312 418 -581 597 -224 150 -550 263 -870 304 -129 16 -561 19 -715 4z m1659
-799 c20 -40 40 -85 46 -100 l10 -26 -60 0 -60 0 0 39 c0 64 12 161 21 161 4
0 24 -33 43 -74z m-2239 -417 c23 -104 52 -208 84 -304 30 -90 32 -106 9 -88
-23 18 -111 41 -183 48 -38 4 -73 9 -76 11 -13 8 42 182 92 294 44 95 52 111
56 107 2 -2 10 -33 18 -68z m-859 -137 c6 -4 13 -15 17 -25 4 -10 11 -16 16
-13 5 4 21 2 36 -4 19 -7 24 -7 19 2 -5 8 18 10 89 5 93 -5 96 -5 112 19 16
24 65 34 65 13 0 -5 4 -8 9 -4 21 13 31 -32 16 -69 -14 -34 -14 -40 6 -86 12
-27 19 -57 15 -65 -3 -10 -2 -13 4 -10 7 4 9 -19 7 -67 -3 -88 -35 -150 -99
-194 -36 -25 -52 -29 -123 -32 -98 -5 -148 8 -198 49 -41 34 -82 103 -71 121
4 6 3 8 -3 5 -14 -9 -26 71 -17 109 4 16 18 53 32 83 20 43 23 58 13 72 -31
51 11 121 55 91z m2614 -206 c-6 -20 -18 -36 -26 -36 -19 0 -18 4 8 44 28 42
34 39 18 -8z m-2144 -163 c-11 -11 -17 4 -9 23 7 18 8 18 11 1 2 -10 1 -21 -2
-24z m22 -120 c5 -16 17 -60 26 -100 9 -40 19 -79 22 -87 4 -10 -3 -15 -23
-18 -24 -3 -28 -7 -26 -32 1 -16 -6 -40 -17 -54 l-20 -25 0 172 c0 139 3 171
14 171 7 0 18 -12 24 -27z m676 -345 c23 -32 20 -64 -9 -86 -59 -47 -131 22
-84 81 26 34 71 36 93 5z"/>
<path d="M3910 2011 c-14 -5 -108 -55 -210 -111 -102 -57 -248 -138 -325 -181
-134 -73 -175 -108 -175 -147 0 -27 56 -68 115 -86 33 -10 79 -26 102 -37 24
-10 48 -19 55 -19 7 0 112 -34 233 -75 120 -41 233 -75 250 -75 66 0 98 79 51
123 -13 12 -83 41 -157 65 -225 72 -369 124 -369 133 0 4 9 10 20 14 10 3 51
25 91 48 39 23 108 61 153 85 240 128 266 148 266 198 0 58 -39 83 -100 65z"/>
<path d="M3188 773 c-54 -58 -193 -93 -367 -93 -161 0 -263 23 -341 75 -69 47
-110 45 -110 -5 0 -22 58 -73 114 -100 77 -37 149 -50 306 -57 221 -9 405 41
469 128 27 37 21 59 -22 70 -20 5 -31 1 -49 -18z"/>
</g>
</svg>
